<svg width="1100" height="597" viewBox="0 0 1100 597" fill="none" xmlns="http://www.w3.org/2000/svg">
<path d="M995.636 144.14C996.02 143.772 996.42 143.404 996.836 143.036C997.252 142.652 997.668 142.276 998.084 141.908C999.38 140.756 1000.41 139.804 1001.18 139.052C1001.95 138.284 1002.6 137.5 1003.12 136.7C1003.65 135.9 1003.92 135.14 1003.92 134.42C1003.92 133.764 1003.79 133.188 1003.53 132.692C1003.28 132.18 1002.92 131.78 1002.45 131.492C1002 131.204 1001.48 131.06 1000.89 131.06C1000.2 131.06 999.548 131.284 998.924 131.732C998.316 132.18 997.852 132.756 997.532 133.46L995.3 132.476C995.78 131.372 996.54 130.476 997.58 129.788C998.636 129.084 999.74 128.732 1000.89 128.732C1001.98 128.732 1002.94 128.972 1003.77 129.452C1004.62 129.932 1005.28 130.604 1005.74 131.468C1006.22 132.332 1006.46 133.316 1006.46 134.42C1006.46 135.508 1006.14 136.58 1005.5 137.636C1004.86 138.692 1004.09 139.668 1003.2 140.564C1002.3 141.46 1001.13 142.524 999.692 143.756C998.78 144.524 997.988 145.228 997.316 145.868L995.636 144.14ZM995.636 144.14H1006.75V146.372H995.876L995.636 144.14ZM1016.38 144.284C1017.16 144.284 1017.86 144.004 1018.46 143.444C1019.07 142.884 1019.54 142.108 1019.88 141.116C1020.22 140.108 1020.38 138.948 1020.38 137.636C1020.38 136.324 1020.22 135.164 1019.88 134.156C1019.54 133.148 1019.07 132.364 1018.46 131.804C1017.86 131.244 1017.16 130.964 1016.38 130.964C1015.59 130.964 1014.89 131.244 1014.26 131.804C1013.66 132.364 1013.18 133.148 1012.85 134.156C1012.51 135.164 1012.34 136.324 1012.34 137.636C1012.34 138.948 1012.51 140.108 1012.85 141.116C1013.18 142.108 1013.66 142.884 1014.26 143.444C1014.89 144.004 1015.59 144.284 1016.38 144.284ZM1016.38 146.54C1015.11 146.54 1013.98 146.164 1012.97 145.412C1011.98 144.644 1011.2 143.588 1010.64 142.244C1010.08 140.884 1009.8 139.348 1009.8 137.636C1009.8 135.908 1010.08 134.372 1010.64 133.028C1011.2 131.668 1011.98 130.612 1012.97 129.86C1013.96 129.108 1015.1 128.732 1016.38 128.732C1017.64 128.732 1018.77 129.108 1019.76 129.86C1020.75 130.612 1021.53 131.668 1022.09 133.028C1022.65 134.372 1022.93 135.908 1022.93 137.636C1022.93 139.348 1022.65 140.884 1022.09 142.244C1021.53 143.588 1020.75 144.644 1019.76 145.412C1018.77 146.164 1017.64 146.54 1016.38 146.54ZM1027.55 149.612H1025.65L1026.57 144.092H1029.18L1027.55 149.612ZM1040.34 144.284C1041.12 144.284 1041.82 144.004 1042.43 143.444C1043.04 142.884 1043.51 142.108 1043.84 141.116C1044.18 140.108 1044.35 138.948 1044.35 137.636C1044.35 136.324 1044.18 135.164 1043.84 134.156C1043.51 133.148 1043.04 132.364 1042.43 131.804C1041.82 131.244 1041.12 130.964 1040.34 130.964C1039.56 130.964 1038.85 131.244 1038.23 131.804C1037.62 132.364 1037.15 133.148 1036.81 134.156C1036.48 135.164 1036.31 136.324 1036.31 137.636C1036.31 138.948 1036.48 140.108 1036.81 141.116C1037.15 142.108 1037.62 142.884 1038.23 143.444C1038.85 144.004 1039.56 144.284 1040.34 144.284ZM1040.34 146.54C1039.08 146.54 1037.94 146.164 1036.93 145.412C1035.94 144.644 1035.16 143.588 1034.6 142.244C1034.04 140.884 1033.76 139.348 1033.76 137.636C1033.76 135.908 1034.04 134.372 1034.6 133.028C1035.16 131.668 1035.94 130.612 1036.93 129.86C1037.92 129.108 1039.06 128.732 1040.34 128.732C1041.6 128.732 1042.73 129.108 1043.72 129.86C1044.72 130.612 1045.49 131.668 1046.05 133.028C1046.61 134.372 1046.89 135.908 1046.89 137.636C1046.89 139.348 1046.61 140.884 1046.05 142.244C1045.49 143.588 1044.72 144.644 1043.72 145.412C1042.73 146.164 1041.6 146.54 1040.34 146.54ZM1056.5 144.284C1057.29 144.284 1057.98 144.004 1058.59 143.444C1059.2 142.884 1059.67 142.108 1060.01 141.116C1060.34 140.108 1060.51 138.948 1060.51 137.636C1060.51 136.324 1060.34 135.164 1060.01 134.156C1059.67 133.148 1059.2 132.364 1058.59 131.804C1057.98 131.244 1057.29 130.964 1056.5 130.964C1055.72 130.964 1055.02 131.244 1054.39 131.804C1053.78 132.364 1053.31 133.148 1052.98 134.156C1052.64 135.164 1052.47 136.324 1052.47 137.636C1052.47 138.948 1052.64 140.108 1052.98 141.116C1053.31 142.108 1053.78 142.884 1054.39 143.444C1055.02 144.004 1055.72 144.284 1056.5 144.284ZM1056.5 146.54C1055.24 146.54 1054.1 146.164 1053.1 145.412C1052.1 144.644 1051.33 143.588 1050.77 142.244C1050.21 140.884 1049.93 139.348 1049.93 137.636C1049.93 135.908 1050.21 134.372 1050.77 133.028C1051.33 131.668 1052.1 130.612 1053.1 129.86C1054.09 129.108 1055.22 128.732 1056.5 128.732C1057.77 128.732 1058.9 129.108 1059.89 129.86C1060.88 130.612 1061.66 131.668 1062.22 133.028C1062.78 134.372 1063.06 135.908 1063.06 137.636C1063.06 139.348 1062.78 140.884 1062.22 142.244C1061.66 143.588 1060.88 144.644 1059.89 145.412C1058.9 146.164 1057.77 146.54 1056.5 146.54ZM1072.67 144.284C1073.45 144.284 1074.15 144.004 1074.76 143.444C1075.37 142.884 1075.84 142.108 1076.17 141.116C1076.51 140.108 1076.68 138.948 1076.68 137.636C1076.68 136.324 1076.51 135.164 1076.17 134.156C1075.84 133.148 1075.37 132.364 1074.76 131.804C1074.15 131.244 1073.45 130.964 1072.67 130.964C1071.89 130.964 1071.18 131.244 1070.56 131.804C1069.95 132.364 1069.48 133.148 1069.14 134.156C1068.81 135.164 1068.64 136.324 1068.64 137.636C1068.64 138.948 1068.81 140.108 1069.14 141.116C1069.48 142.108 1069.95 142.884 1070.56 143.444C1071.18 144.004 1071.89 144.284 1072.67 144.284ZM1072.67 146.54C1071.41 146.54 1070.27 146.164 1069.26 145.412C1068.27 144.644 1067.49 143.588 1066.93 142.244C1066.37 140.884 1066.09 139.348 1066.09 137.636C1066.09 135.908 1066.37 134.372 1066.93 133.028C1067.49 131.668 1068.27 130.612 1069.26 129.86C1070.25 129.108 1071.39 128.732 1072.67 128.732C1073.93 128.732 1075.06 129.108 1076.05 129.86C1077.05 130.612 1077.82 131.668 1078.38 133.028C1078.94 134.372 1079.22 135.908 1079.22 137.636C1079.22 139.348 1078.94 140.884 1078.38 142.244C1077.82 143.588 1077.05 144.644 1076.05 145.412C1075.06 146.164 1073.93 146.54 1072.67 146.54ZM1091.07 136.172H1096.92V138.716H1091.07V144.548H1088.55V138.716H1082.69V136.172H1088.55V130.316H1091.07V136.172Z" fill="#5F8CE8"/>
<path d="M783.731 239.9H782.003V224.564L779.315 226.436L778.355 225.116L782.003 222.596H783.731V239.9ZM789.468 230.612C789.964 230.036 790.612 229.564 791.412 229.196C792.212 228.828 792.996 228.644 793.764 228.644C794.9 228.644 795.908 228.884 796.788 229.364C797.684 229.844 798.38 230.516 798.876 231.38C799.372 232.244 799.62 233.228 799.62 234.332C799.62 235.452 799.372 236.452 798.876 237.332C798.38 238.212 797.684 238.9 796.788 239.396C795.908 239.892 794.9 240.14 793.764 240.14C792.884 240.14 792.06 239.956 791.292 239.588C790.524 239.22 789.868 238.708 789.324 238.052C788.78 237.38 788.412 236.628 788.22 235.796L789.9 235.412C790.108 236.324 790.572 237.068 791.292 237.644C792.012 238.22 792.836 238.508 793.764 238.508C794.564 238.508 795.276 238.332 795.9 237.98C796.524 237.628 797.012 237.132 797.364 236.492C797.716 235.852 797.892 235.132 797.892 234.332C797.892 233.548 797.716 232.852 797.364 232.244C797.012 231.62 796.524 231.14 795.9 230.804C795.276 230.452 794.564 230.276 793.764 230.276C793.252 230.276 792.716 230.412 792.156 230.684C791.596 230.956 791.132 231.3 790.764 231.716L789.468 230.612ZM789.036 231.428L789.588 222.548H798.228V224.084H791.244L790.764 231.716L789.036 231.428ZM804.01 242.516H802.738L803.458 238.076H805.33L804.01 242.516ZM816.429 238.532C817.277 238.532 818.037 238.22 818.709 237.596C819.381 236.972 819.901 236.108 820.269 235.004C820.653 233.9 820.845 232.644 820.845 231.236C820.845 229.828 820.653 228.572 820.269 227.468C819.901 226.364 819.381 225.508 818.709 224.9C818.037 224.276 817.277 223.964 816.429 223.964C815.565 223.964 814.797 224.276 814.125 224.9C813.453 225.508 812.925 226.364 812.541 227.468C812.173 228.572 811.989 229.828 811.989 231.236C811.989 232.644 812.173 233.9 812.541 235.004C812.925 236.108 813.453 236.972 814.125 237.596C814.797 238.22 815.565 238.532 816.429 238.532ZM816.429 240.068C815.229 240.068 814.157 239.692 813.213 238.94C812.285 238.188 811.557 237.148 811.029 235.82C810.517 234.476 810.261 232.948 810.261 231.236C810.261 229.54 810.517 228.028 811.029 226.7C811.557 225.356 812.285 224.308 813.213 223.556C814.157 222.804 815.229 222.428 816.429 222.428C817.613 222.428 818.669 222.804 819.597 223.556C820.541 224.308 821.269 225.356 821.781 226.7C822.309 228.028 822.573 229.54 822.573 231.236C822.573 232.948 822.309 234.476 821.781 235.82C821.269 237.148 820.541 238.188 819.597 238.94C818.669 239.692 817.613 240.068 816.429 240.068ZM832.078 238.532C832.926 238.532 833.686 238.22 834.358 237.596C835.03 236.972 835.55 236.108 835.918 235.004C836.302 233.9 836.494 232.644 836.494 231.236C836.494 229.828 836.302 228.572 835.918 227.468C835.55 226.364 835.03 225.508 834.358 224.9C833.686 224.276 832.926 223.964 832.078 223.964C831.214 223.964 830.446 224.276 829.774 224.9C829.102 225.508 828.574 226.364 828.19 227.468C827.822 228.572 827.638 229.828 827.638 231.236C827.638 232.644 827.822 233.9 828.19 235.004C828.574 236.108 829.102 236.972 829.774 237.596C830.446 238.22 831.214 238.532 832.078 238.532ZM832.078 240.068C830.878 240.068 829.806 239.692 828.862 238.94C827.934 238.188 827.206 237.148 826.678 235.82C826.166 234.476 825.91 232.948 825.91 231.236C825.91 229.54 826.166 228.028 826.678 226.7C827.206 225.356 827.934 224.308 828.862 223.556C829.806 222.804 830.878 222.428 832.078 222.428C833.262 222.428 834.318 222.804 835.246 223.556C836.19 224.308 836.918 225.356 837.43 226.7C837.958 228.028 838.222 229.54 838.222 231.236C838.222 232.948 837.958 234.476 837.43 235.82C836.918 237.148 836.19 238.188 835.246 238.94C834.318 239.692 833.262 240.068 832.078 240.068ZM847.728 238.532C848.576 238.532 849.336 238.22 850.008 237.596C850.68 236.972 851.2 236.108 851.568 235.004C851.952 233.9 852.144 232.644 852.144 231.236C852.144 229.828 851.952 228.572 851.568 227.468C851.2 226.364 850.68 225.508 850.008 224.9C849.336 224.276 848.576 223.964 847.728 223.964C846.864 223.964 846.096 224.276 845.424 224.9C844.752 225.508 844.224 226.364 843.84 227.468C843.472 228.572 843.288 229.828 843.288 231.236C843.288 232.644 843.472 233.9 843.84 235.004C844.224 236.108 844.752 236.972 845.424 237.596C846.096 238.22 846.864 238.532 847.728 238.532ZM847.728 240.068C846.528 240.068 845.456 239.692 844.512 238.94C843.584 238.188 842.856 237.148 842.328 235.82C841.816 234.476 841.56 232.948 841.56 231.236C841.56 229.54 841.816 228.028 842.328 226.7C842.856 225.356 843.584 224.308 844.512 223.556C845.456 222.804 846.528 222.428 847.728 222.428C848.912 222.428 849.968 222.804 850.896 223.556C851.84 224.308 852.568 225.356 853.08 226.7C853.608 228.028 853.872 229.54 853.872 231.236C853.872 232.948 853.608 234.476 853.08 235.82C852.568 237.148 851.84 238.188 850.896 238.94C849.968 239.692 848.912 240.068 847.728 240.068Z" fill="#6E6E6E"/>
<path d="M653.229 333.5H651.501V318.164L648.813 320.036L647.853 318.716L651.501 316.196H653.229V333.5ZM666.478 324.548C667.214 324.996 667.79 325.596 668.206 326.348C668.638 327.1 668.854 327.852 668.854 328.604C668.854 329.58 668.614 330.452 668.134 331.22C667.67 331.972 667.014 332.564 666.166 332.996C665.318 333.428 664.35 333.644 663.262 333.644C662.19 333.644 661.23 333.428 660.382 332.996C659.534 332.564 658.87 331.972 658.39 331.22C657.926 330.452 657.694 329.58 657.694 328.604H659.422C659.422 329.276 659.582 329.884 659.902 330.428C660.238 330.956 660.694 331.372 661.27 331.676C661.862 331.964 662.526 332.108 663.262 332.108C664.014 332.108 664.678 331.964 665.254 331.676C665.846 331.372 666.302 330.956 666.622 330.428C666.958 329.9 667.126 329.3 667.126 328.628C667.126 327.988 666.958 327.42 666.622 326.924C666.302 326.412 665.854 326.02 665.278 325.748C664.702 325.46 664.046 325.316 663.31 325.316H662.038V323.732H663.31C663.998 323.732 664.614 323.604 665.158 323.348C665.702 323.092 666.126 322.74 666.43 322.292C666.734 321.828 666.886 321.3 666.886 320.708C666.886 319.78 666.558 319.028 665.902 318.452C665.262 317.86 664.43 317.564 663.406 317.564C662.734 317.564 662.126 317.7 661.582 317.972C661.054 318.244 660.638 318.62 660.334 319.1C660.046 319.58 659.902 320.132 659.902 320.756H658.174C658.174 319.844 658.398 319.028 658.846 318.308C659.294 317.588 659.91 317.028 660.694 316.628C661.494 316.228 662.398 316.028 663.406 316.028C664.414 316.028 665.31 316.228 666.094 316.628C666.894 317.028 667.51 317.588 667.942 318.308C668.39 319.028 668.614 319.844 668.614 320.756C668.614 321.428 668.422 322.116 668.038 322.82C667.67 323.524 667.15 324.1 666.478 324.548ZM673.227 336.116H671.955L672.675 331.676H674.547L673.227 336.116ZM685.645 332.132C686.493 332.132 687.253 331.82 687.925 331.196C688.597 330.572 689.117 329.708 689.485 328.604C689.869 327.5 690.061 326.244 690.061 324.836C690.061 323.428 689.869 322.172 689.485 321.068C689.117 319.964 688.597 319.108 687.925 318.5C687.253 317.876 686.493 317.564 685.645 317.564C684.781 317.564 684.013 317.876 683.341 318.5C682.669 319.108 682.141 319.964 681.757 321.068C681.389 322.172 681.205 323.428 681.205 324.836C681.205 326.244 681.389 327.5 681.757 328.604C682.141 329.708 682.669 330.572 683.341 331.196C684.013 331.82 684.781 332.132 685.645 332.132ZM685.645 333.668C684.445 333.668 683.373 333.292 682.429 332.54C681.501 331.788 680.773 330.748 680.245 329.42C679.733 328.076 679.477 326.548 679.477 324.836C679.477 323.14 679.733 321.628 680.245 320.3C680.773 318.956 681.501 317.908 682.429 317.156C683.373 316.404 684.445 316.028 685.645 316.028C686.829 316.028 687.885 316.404 688.813 317.156C689.757 317.908 690.485 318.956 690.997 320.3C691.525 321.628 691.789 323.14 691.789 324.836C691.789 326.548 691.525 328.076 690.997 329.42C690.485 330.748 689.757 331.788 688.813 332.54C687.885 333.292 686.829 333.668 685.645 333.668ZM701.295 332.132C702.143 332.132 702.903 331.82 703.575 331.196C704.247 330.572 704.767 329.708 705.135 328.604C705.519 327.5 705.711 326.244 705.711 324.836C705.711 323.428 705.519 322.172 705.135 321.068C704.767 319.964 704.247 319.108 703.575 318.5C702.903 317.876 702.143 317.564 701.295 317.564C700.431 317.564 699.663 317.876 698.991 318.5C698.319 319.108 697.791 319.964 697.407 321.068C697.039 322.172 696.855 323.428 696.855 324.836C696.855 326.244 697.039 327.5 697.407 328.604C697.791 329.708 698.319 330.572 698.991 331.196C699.663 331.82 700.431 332.132 701.295 332.132ZM701.295 333.668C700.095 333.668 699.023 333.292 698.079 332.54C697.151 331.788 696.423 330.748 695.895 329.42C695.383 328.076 695.127 326.548 695.127 324.836C695.127 323.14 695.383 321.628 695.895 320.3C696.423 318.956 697.151 317.908 698.079 317.156C699.023 316.404 700.095 316.028 701.295 316.028C702.479 316.028 703.535 316.404 704.463 317.156C705.407 317.908 706.135 318.956 706.647 320.3C707.175 321.628 707.439 323.14 707.439 324.836C707.439 326.548 707.175 328.076 706.647 329.42C706.135 330.748 705.407 331.788 704.463 332.54C703.535 333.292 702.479 333.668 701.295 333.668ZM716.945 332.132C717.793 332.132 718.553 331.82 719.225 331.196C719.897 330.572 720.417 329.708 720.785 328.604C721.169 327.5 721.361 326.244 721.361 324.836C721.361 323.428 721.169 322.172 720.785 321.068C720.417 319.964 719.897 319.108 719.225 318.5C718.553 317.876 717.793 317.564 716.945 317.564C716.081 317.564 715.313 317.876 714.641 318.5C713.969 319.108 713.441 319.964 713.057 321.068C712.689 322.172 712.505 323.428 712.505 324.836C712.505 326.244 712.689 327.5 713.057 328.604C713.441 329.708 713.969 330.572 714.641 331.196C715.313 331.82 716.081 332.132 716.945 332.132ZM716.945 333.668C715.745 333.668 714.673 333.292 713.729 332.54C712.801 331.788 712.073 330.748 711.545 329.42C711.033 328.076 710.777 326.548 710.777 324.836C710.777 323.14 711.033 321.628 711.545 320.3C712.073 318.956 712.801 317.908 713.729 317.156C714.673 316.404 715.745 316.028 716.945 316.028C718.129 316.028 719.185 316.404 720.113 317.156C721.057 317.908 721.785 318.956 722.297 320.3C722.825 321.628 723.089 323.14 723.089 324.836C723.089 326.548 722.825 328.076 722.297 329.42C721.785 330.748 721.057 331.788 720.113 332.54C719.185 333.292 718.129 333.668 716.945 333.668Z" fill="#6E6E6E"/>
<path d="M622.628 428.899H620.9V413.563L618.212 415.435L617.252 414.115L620.9 411.595H622.628V428.899ZM627.189 427.387C627.621 426.971 627.941 426.667 628.149 426.475C628.357 426.283 628.669 425.987 629.085 425.587C630.525 424.243 631.693 423.115 632.589 422.203C633.485 421.275 634.245 420.331 634.869 419.371C635.509 418.395 635.829 417.507 635.829 416.707C635.829 415.971 635.677 415.315 635.373 414.739C635.085 414.163 634.677 413.715 634.149 413.395C633.637 413.059 633.045 412.891 632.373 412.891C631.637 412.891 630.925 413.147 630.237 413.659C629.565 414.155 629.053 414.795 628.701 415.579L627.117 414.907C627.565 413.867 628.277 413.019 629.253 412.363C630.245 411.691 631.285 411.355 632.373 411.355C633.381 411.355 634.277 411.587 635.061 412.051C635.845 412.499 636.453 413.131 636.885 413.947C637.333 414.747 637.557 415.667 637.557 416.707C637.557 417.731 637.213 418.803 636.525 419.923C635.837 421.027 635.013 422.075 634.053 423.067C633.109 424.043 631.893 425.211 630.405 426.571C629.749 427.179 629.093 427.795 628.437 428.419L627.189 427.387ZM627.189 427.387H637.845V428.923H627.429L627.189 427.387ZM642.204 431.515H640.932L641.652 427.075H643.524L642.204 431.515ZM654.622 427.531C655.47 427.531 656.23 427.219 656.902 426.595C657.574 425.971 658.094 425.107 658.462 424.003C658.846 422.899 659.038 421.643 659.038 420.235C659.038 418.827 658.846 417.571 658.462 416.467C658.094 415.363 657.574 414.507 656.902 413.899C656.23 413.275 655.47 412.963 654.622 412.963C653.758 412.963 652.99 413.275 652.318 413.899C651.646 414.507 651.118 415.363 650.734 416.467C650.366 417.571 650.182 418.827 650.182 420.235C650.182 421.643 650.366 422.899 650.734 424.003C651.118 425.107 651.646 425.971 652.318 426.595C652.99 427.219 653.758 427.531 654.622 427.531ZM654.622 429.067C653.422 429.067 652.35 428.691 651.406 427.939C650.478 427.187 649.75 426.147 649.222 424.819C648.71 423.475 648.454 421.947 648.454 420.235C648.454 418.539 648.71 417.027 649.222 415.699C649.75 414.355 650.478 413.307 651.406 412.555C652.35 411.803 653.422 411.427 654.622 411.427C655.806 411.427 656.862 411.803 657.79 412.555C658.734 413.307 659.462 414.355 659.974 415.699C660.502 417.027 660.766 418.539 660.766 420.235C660.766 421.947 660.502 423.475 659.974 424.819C659.462 426.147 658.734 427.187 657.79 427.939C656.862 428.691 655.806 429.067 654.622 429.067ZM670.272 427.531C671.12 427.531 671.88 427.219 672.552 426.595C673.224 425.971 673.744 425.107 674.112 424.003C674.496 422.899 674.688 421.643 674.688 420.235C674.688 418.827 674.496 417.571 674.112 416.467C673.744 415.363 673.224 414.507 672.552 413.899C671.88 413.275 671.12 412.963 670.272 412.963C669.408 412.963 668.64 413.275 667.968 413.899C667.296 414.507 666.768 415.363 666.384 416.467C666.016 417.571 665.832 418.827 665.832 420.235C665.832 421.643 666.016 422.899 666.384 424.003C666.768 425.107 667.296 425.971 667.968 426.595C668.64 427.219 669.408 427.531 670.272 427.531ZM670.272 429.067C669.072 429.067 668 428.691 667.056 427.939C666.128 427.187 665.4 426.147 664.872 424.819C664.36 423.475 664.104 421.947 664.104 420.235C664.104 418.539 664.36 417.027 664.872 415.699C665.4 414.355 666.128 413.307 667.056 412.555C668 411.803 669.072 411.427 670.272 411.427C671.456 411.427 672.512 411.803 673.44 412.555C674.384 413.307 675.112 414.355 675.624 415.699C676.152 417.027 676.416 418.539 676.416 420.235C676.416 421.947 676.152 423.475 675.624 424.819C675.112 426.147 674.384 427.187 673.44 427.939C672.512 428.691 671.456 429.067 670.272 429.067ZM685.921 427.531C686.769 427.531 687.529 427.219 688.201 426.595C688.873 425.971 689.393 425.107 689.761 424.003C690.145 422.899 690.337 421.643 690.337 420.235C690.337 418.827 690.145 417.571 689.761 416.467C689.393 415.363 688.873 414.507 688.201 413.899C687.529 413.275 686.769 412.963 685.921 412.963C685.057 412.963 684.289 413.275 683.617 413.899C682.945 414.507 682.417 415.363 682.033 416.467C681.665 417.571 681.481 418.827 681.481 420.235C681.481 421.643 681.665 422.899 682.033 424.003C682.417 425.107 682.945 425.971 683.617 426.595C684.289 427.219 685.057 427.531 685.921 427.531ZM685.921 429.067C684.721 429.067 683.649 428.691 682.705 427.939C681.777 427.187 681.049 426.147 680.521 424.819C680.009 423.475 679.753 421.947 679.753 420.235C679.753 418.539 680.009 417.027 680.521 415.699C681.049 414.355 681.777 413.307 682.705 412.555C683.649 411.803 684.721 411.427 685.921 411.427C687.105 411.427 688.161 411.803 689.089 412.555C690.033 413.307 690.761 414.355 691.273 415.699C691.801 417.027 692.065 418.539 692.065 420.235C692.065 421.947 691.801 423.475 691.273 424.819C690.761 426.147 690.033 427.187 689.089 427.939C688.161 428.691 687.105 429.067 685.921 429.067Z" fill="#6E6E6E"/>
<path d="M548.86 519.38C549.612 519.38 550.284 519.228 550.876 518.924C551.484 518.62 551.948 518.196 552.268 517.652C552.604 517.108 552.772 516.484 552.772 515.78C552.772 515.108 552.604 514.516 552.268 514.004C551.948 513.476 551.484 513.068 550.876 512.78C550.284 512.492 549.612 512.348 548.86 512.348C548.108 512.348 547.428 512.492 546.82 512.78C546.228 513.068 545.764 513.476 545.428 514.004C545.108 514.516 544.948 515.108 544.948 515.78C544.948 516.484 545.108 517.108 545.428 517.652C545.764 518.196 546.228 518.62 546.82 518.924C547.428 519.228 548.108 519.38 548.86 519.38ZM545.404 507.764C545.404 508.66 545.724 509.388 546.364 509.948C547.004 510.508 547.836 510.788 548.86 510.788C549.884 510.788 550.716 510.508 551.356 509.948C552.012 509.372 552.34 508.644 552.34 507.764C552.34 506.836 552.012 506.076 551.356 505.484C550.716 504.892 549.884 504.596 548.86 504.596C547.836 504.596 547.004 504.892 546.364 505.484C545.724 506.076 545.404 506.836 545.404 507.764ZM551.716 511.532C552.532 512.012 553.196 512.644 553.708 513.428C554.236 514.212 554.5 514.98 554.5 515.732C554.5 516.74 554.26 517.636 553.78 518.42C553.3 519.204 552.628 519.82 551.764 520.268C550.916 520.7 549.948 520.916 548.86 520.916C547.772 520.916 546.796 520.7 545.932 520.268C545.084 519.82 544.42 519.204 543.94 518.42C543.46 517.636 543.22 516.74 543.22 515.732C543.22 514.98 543.476 514.212 543.988 513.428C544.516 512.644 545.196 512.012 546.028 511.532C545.34 511.068 544.772 510.492 544.324 509.804C543.892 509.1 543.676 508.436 543.676 507.812C543.676 506.9 543.892 506.084 544.324 505.364C544.772 504.644 545.388 504.084 546.172 503.684C546.956 503.268 547.852 503.06 548.86 503.06C549.868 503.06 550.764 503.268 551.548 503.684C552.348 504.084 552.964 504.644 553.396 505.364C553.844 506.084 554.068 506.9 554.068 507.812C554.068 508.436 553.844 509.1 553.396 509.804C552.964 510.492 552.404 511.068 551.716 511.532ZM558.87 523.316H557.598L558.318 518.876H560.19L558.87 523.316ZM571.289 519.332C572.137 519.332 572.897 519.02 573.569 518.396C574.241 517.772 574.761 516.908 575.129 515.804C575.513 514.7 575.705 513.444 575.705 512.036C575.705 510.628 575.513 509.372 575.129 508.268C574.761 507.164 574.241 506.308 573.569 505.7C572.897 505.076 572.137 504.764 571.289 504.764C570.425 504.764 569.657 505.076 568.985 505.7C568.313 506.308 567.785 507.164 567.401 508.268C567.033 509.372 566.849 510.628 566.849 512.036C566.849 513.444 567.033 514.7 567.401 515.804C567.785 516.908 568.313 517.772 568.985 518.396C569.657 519.02 570.425 519.332 571.289 519.332ZM571.289 520.868C570.089 520.868 569.017 520.492 568.073 519.74C567.145 518.988 566.417 517.948 565.889 516.62C565.377 515.276 565.121 513.748 565.121 512.036C565.121 510.34 565.377 508.828 565.889 507.5C566.417 506.156 567.145 505.108 568.073 504.356C569.017 503.604 570.089 503.228 571.289 503.228C572.473 503.228 573.529 503.604 574.457 504.356C575.401 505.108 576.129 506.156 576.641 507.5C577.169 508.828 577.433 510.34 577.433 512.036C577.433 513.748 577.169 515.276 576.641 516.62C576.129 517.948 575.401 518.988 574.457 519.74C573.529 520.492 572.473 520.868 571.289 520.868ZM586.938 519.332C587.786 519.332 588.546 519.02 589.218 518.396C589.89 517.772 590.41 516.908 590.778 515.804C591.162 514.7 591.354 513.444 591.354 512.036C591.354 510.628 591.162 509.372 590.778 508.268C590.41 507.164 589.89 506.308 589.218 505.7C588.546 505.076 587.786 504.764 586.938 504.764C586.074 504.764 585.306 505.076 584.634 505.7C583.962 506.308 583.434 507.164 583.05 508.268C582.682 509.372 582.498 510.628 582.498 512.036C582.498 513.444 582.682 514.7 583.05 515.804C583.434 516.908 583.962 517.772 584.634 518.396C585.306 519.02 586.074 519.332 586.938 519.332ZM586.938 520.868C585.738 520.868 584.666 520.492 583.722 519.74C582.794 518.988 582.066 517.948 581.538 516.62C581.026 515.276 580.77 513.748 580.77 512.036C580.77 510.34 581.026 508.828 581.538 507.5C582.066 506.156 582.794 505.108 583.722 504.356C584.666 503.604 585.738 503.228 586.938 503.228C588.122 503.228 589.178 503.604 590.106 504.356C591.05 505.108 591.778 506.156 592.29 507.5C592.818 508.828 593.082 510.34 593.082 512.036C593.082 513.748 592.818 515.276 592.29 516.62C591.778 517.948 591.05 518.988 590.106 519.74C589.178 520.492 588.122 520.868 586.938 520.868ZM602.588 519.332C603.436 519.332 604.196 519.02 604.868 518.396C605.54 517.772 606.06 516.908 606.428 515.804C606.812 514.7 607.004 513.444 607.004 512.036C607.004 510.628 606.812 509.372 606.428 508.268C606.06 507.164 605.54 506.308 604.868 505.7C604.196 505.076 603.436 504.764 602.588 504.764C601.724 504.764 600.956 505.076 600.284 505.7C599.612 506.308 599.084 507.164 598.7 508.268C598.332 509.372 598.148 510.628 598.148 512.036C598.148 513.444 598.332 514.7 598.7 515.804C599.084 516.908 599.612 517.772 600.284 518.396C600.956 519.02 601.724 519.332 602.588 519.332ZM602.588 520.868C601.388 520.868 600.316 520.492 599.372 519.74C598.444 518.988 597.716 517.948 597.188 516.62C596.676 515.276 596.42 513.748 596.42 512.036C596.42 510.34 596.676 508.828 597.188 507.5C597.716 506.156 598.444 505.108 599.372 504.356C600.316 503.604 601.388 503.228 602.588 503.228C603.772 503.228 604.828 503.604 605.756 504.356C606.7 505.108 607.428 506.156 607.94 507.5C608.468 508.828 608.732 510.34 608.732 512.036C608.732 513.748 608.468 515.276 607.94 516.62C607.428 517.948 606.7 518.988 605.756 519.74C604.828 520.492 603.772 520.868 602.588 520.868Z" fill="#6E6E6E"/>
<path d="M378.232 125.02V149.94H375.32V125.02H378.232ZM376.328 134.68V137.172H371.96V134.68H376.328ZM372.716 125.496V148.764H369.832V125.496H372.716ZM367.424 127.708V143.556H357.736V127.708H367.424ZM360.592 130.116V141.148H364.568V130.116H360.592ZM402.341 136.696V139.16H384.981V136.696H402.341ZM404.833 144.284V146.804H382.265V144.284H404.833ZM402.117 127.148V129.668H388.033V137.732H384.981V127.148H402.117ZM430.145 144.508V147.028H407.577V144.508H430.145ZM420.317 138.544V145.656H417.265V138.544H420.317ZM428.185 127.204V129.668H409.397V127.204H428.185ZM428.129 137.144V139.608H409.509V137.144H428.129ZM416.061 129.22V137.48H412.981V129.22H416.061ZM424.629 129.22V137.48H421.577V129.22H424.629ZM445.098 126.56V128.408C445.098 130.182 444.659 131.852 443.782 133.42C442.905 134.97 441.691 136.286 440.142 137.368C438.593 138.451 436.847 139.188 434.906 139.58L433.59 137.032C435.251 136.734 436.754 136.146 438.098 135.268C439.461 134.391 440.525 133.346 441.29 132.132C442.055 130.919 442.438 129.678 442.438 128.408V126.56H445.098ZM445.686 126.56V128.408C445.686 129.696 446.069 130.947 446.834 132.16C447.599 133.374 448.654 134.419 449.998 135.296C451.361 136.155 452.882 136.734 454.562 137.032L453.218 139.58C451.277 139.188 449.531 138.46 447.982 137.396C446.433 136.314 445.219 134.998 444.342 133.448C443.465 131.88 443.026 130.2 443.026 128.408V126.56H445.686ZM455.458 144.256V146.776H432.89V144.256H455.458ZM478.951 124.992V149.996H475.899V124.992H478.951ZM476.263 134.064V136.528H471.251V134.064H476.263ZM461.283 141.736C463.691 141.736 465.697 141.699 467.303 141.624C468.908 141.531 470.523 141.344 472.147 141.064L472.455 143.528C470.756 143.808 469.067 143.995 467.387 144.088C465.725 144.182 463.691 144.228 461.283 144.228H459.323V141.736H461.283ZM470.831 127.176V129.696H462.375V142.52H459.323V127.176H470.831ZM469.907 134.12V136.556H461.647V134.12H469.907ZM504.067 125.02V150.024H500.987V125.02H504.067ZM487.155 141.4C489.918 141.4 492.139 141.354 493.819 141.26C495.499 141.148 497.17 140.934 498.831 140.616L499.111 143.164C497.431 143.5 495.723 143.724 493.987 143.836C492.27 143.93 489.993 143.976 487.155 143.976H485.055V141.4H487.155ZM496.983 127.316V129.808H488.107V142.38H485.055V127.316H496.983Z" fill="white"/>
<path d="M361.674 221.503L367.963 236.843H368.195L374.484 221.503H378.135V241.3H375.264V226.999H375.072L369.248 241.272H366.883L361.059 226.999H360.895V241.3H358.023V221.503H361.674ZM389.912 225.345C389.912 227.213 389.63 229.018 389.065 230.759C388.5 232.491 387.702 234.026 386.672 235.366C385.642 236.706 384.448 237.731 383.09 238.442L381.463 236.351C382.712 235.758 383.81 234.883 384.758 233.726C385.715 232.559 386.462 231.246 387 229.788C387.538 228.321 387.807 226.84 387.807 225.345V221.147H389.912V225.345ZM390.363 225.345C390.363 226.785 390.623 228.207 391.143 229.61C391.671 231.005 392.405 232.258 393.344 233.37C394.283 234.473 395.345 235.316 396.529 235.899L394.944 237.978C393.622 237.285 392.455 236.291 391.444 234.997C390.441 233.703 389.666 232.222 389.119 230.554C388.572 228.886 388.299 227.149 388.299 225.345V221.147H390.363V225.345ZM400.973 243.61H398.389V219.11H400.973V243.61ZM404.924 231.114H400.385V228.886H404.924V231.114Z" fill="white"/>
<path d="M368.797 320.312C368.724 319.711 368.514 319.191 368.168 318.754C367.822 318.316 367.352 317.988 366.76 317.77C366.176 317.551 365.502 317.441 364.736 317.441C363.943 317.441 363.246 317.564 362.645 317.811C362.043 318.057 361.578 318.403 361.25 318.85C360.922 319.287 360.758 319.788 360.758 320.354C360.758 321.183 361.1 321.821 361.783 322.268C362.467 322.714 363.328 323.07 364.367 323.334L366.268 323.84C367.917 324.241 369.28 324.87 370.355 325.727C371.44 326.583 371.982 327.818 371.982 329.432C371.982 330.544 371.691 331.542 371.107 332.426C370.533 333.301 369.69 333.989 368.578 334.49C367.475 334.982 366.163 335.229 364.641 335.229C363.173 335.229 361.893 334.996 360.799 334.531C359.705 334.057 358.853 333.387 358.242 332.521C357.632 331.646 357.294 330.612 357.23 329.418H360.238C360.302 330.102 360.535 330.68 360.936 331.154C361.337 331.628 361.856 331.984 362.494 332.221C363.132 332.458 363.843 332.576 364.627 332.576C365.465 332.576 366.217 332.444 366.883 332.18C367.548 331.915 368.068 331.542 368.441 331.059C368.815 330.566 369.002 330.006 369.002 329.377C369.002 328.83 368.847 328.37 368.537 327.996C368.227 327.622 367.803 327.317 367.266 327.08C366.737 326.834 366.072 326.602 365.27 326.383L362.918 325.768C361.259 325.312 359.988 324.66 359.104 323.812C358.219 322.956 357.777 321.857 357.777 320.518C357.777 319.396 358.083 318.408 358.693 317.551C359.313 316.694 360.152 316.029 361.209 315.555C362.275 315.072 363.474 314.83 364.805 314.83C366.126 314.83 367.302 315.067 368.332 315.541C369.371 316.006 370.187 316.653 370.779 317.482C371.372 318.312 371.682 319.255 371.709 320.312H368.797ZM382.994 318.945C382.994 320.814 382.712 322.618 382.147 324.359C381.582 326.091 380.784 327.627 379.754 328.967C378.724 330.307 377.53 331.332 376.172 332.043L374.545 329.951C375.794 329.359 376.892 328.484 377.84 327.326C378.797 326.16 379.544 324.847 380.082 323.389C380.62 321.921 380.889 320.44 380.889 318.945V314.748H382.994V318.945ZM383.445 318.945C383.445 320.385 383.705 321.807 384.225 323.211C384.753 324.605 385.487 325.859 386.426 326.971C387.365 328.074 388.427 328.917 389.611 329.5L388.026 331.578C386.704 330.885 385.537 329.892 384.526 328.598C383.523 327.303 382.748 325.822 382.201 324.154C381.654 322.486 381.381 320.75 381.381 318.945V314.748H383.445V318.945ZM394.055 337.211H391.471V312.711H394.055V337.211ZM398.006 324.715H393.467V322.486H398.006V324.715Z" fill="white"/>
<path d="M358.023 408.703H370.451V411.287H361.031V417.303H369.795V419.873H361.031V425.916H370.547V428.5H358.023V408.703ZM381.846 412.545C381.846 414.413 381.563 416.218 380.998 417.959C380.433 419.691 379.636 421.227 378.606 422.566C377.576 423.906 376.382 424.932 375.024 425.643L373.397 423.551C374.645 422.958 375.744 422.083 376.692 420.926C377.649 419.759 378.396 418.447 378.934 416.988C379.472 415.521 379.74 414.04 379.74 412.545V408.348H381.846V412.545ZM382.297 412.545C382.297 413.985 382.557 415.407 383.076 416.811C383.605 418.205 384.339 419.458 385.278 420.57C386.216 421.673 387.278 422.516 388.463 423.1L386.877 425.178C385.555 424.485 384.389 423.492 383.377 422.197C382.375 420.903 381.6 419.422 381.053 417.754C380.506 416.086 380.233 414.35 380.233 412.545V408.348H382.297V412.545ZM392.906 430.811H390.322V406.311H392.906V430.811ZM396.858 418.314H392.319V416.086H396.858V418.314Z" fill="white"/>
<path d="M376.16 522.184H373.668L371.512 516.416H362.636L360.396 522.184H357.904L365.716 501.8H368.488L376.16 522.184ZM370.728 514.372L367.116 504.768L363.392 514.372H370.728ZM387.95 501.688V505.972C387.95 507.801 387.66 509.584 387.082 511.32C386.503 513.037 385.691 514.568 384.646 515.912C383.619 517.256 382.443 518.283 381.118 518.992L379.634 517.032C380.847 516.435 381.93 515.548 382.882 514.372C383.852 513.196 384.608 511.871 385.15 510.396C385.71 508.921 385.99 507.447 385.99 505.972V501.688H387.95ZM388.37 501.688V505.972C388.37 507.391 388.631 508.809 389.154 510.228C389.695 511.647 390.432 512.916 391.366 514.036C392.318 515.156 393.382 516.005 394.558 516.584L393.074 518.488C391.786 517.816 390.638 516.836 389.63 515.548C388.622 514.26 387.828 512.785 387.25 511.124C386.69 509.463 386.41 507.745 386.41 505.972V501.688H388.37ZM398.982 499.588V524.228H396.546V499.588H398.982ZM402.986 509.472V511.544H398.422V509.472H402.986Z" fill="white"/>
</svg>
