<svg width="1100" height="597" viewBox="0 0 1100 597" fill="none" xmlns="http://www.w3.org/2000/svg">
<circle cx="170.5" cy="170.5" r="170.5" fill="url(#paint0_linear_2011_1888)"/>
<path d="M316.648 585.16V587.272H315.256V585.16H316.648ZM322.312 584.344V585.384H309.624V584.344H322.312ZM316.664 578.056V579.752H315.272V578.056H316.664ZM316.44 579.88V580.104C316.44 580.808 316.189 581.421 315.688 581.944C315.187 582.456 314.499 582.867 313.624 583.176C312.76 583.475 311.773 583.667 310.664 583.752L310.264 582.68C311.213 582.637 312.061 582.504 312.808 582.28C313.555 582.045 314.141 581.741 314.568 581.368C314.995 580.995 315.208 580.573 315.208 580.104V579.88H316.44ZM316.728 579.88V580.104C316.728 580.573 316.936 580.995 317.352 581.368C317.779 581.741 318.365 582.045 319.112 582.28C319.869 582.504 320.723 582.637 321.672 582.68L321.272 583.752C320.163 583.667 319.176 583.475 318.312 583.176C317.448 582.867 316.765 582.456 316.264 581.944C315.763 581.421 315.512 580.808 315.512 580.104V579.88H316.728ZM321.048 579.336V580.392H310.904V579.336H321.048ZM320.696 586.616V589.752H312.52V591.4H311.176V588.776H319.352V587.656H311.128V586.616H320.696ZM321.128 591.016V592.056H311.176V591.016H321.128ZM335.672 578.104V592.232H334.296V578.104H335.672ZM334.664 583.736V584.888H331.32V583.736H334.664ZM328.696 581.512V582.664C328.696 583.635 328.531 584.579 328.2 585.496C327.88 586.403 327.427 587.208 326.84 587.912C326.254 588.605 325.587 589.133 324.84 589.496L324.072 588.44C324.755 588.12 325.363 587.656 325.896 587.048C326.43 586.44 326.846 585.757 327.144 585C327.443 584.232 327.592 583.453 327.592 582.664V581.512H328.696ZM328.968 581.512V582.664C328.968 583.411 329.118 584.152 329.416 584.888C329.726 585.613 330.152 586.264 330.696 586.84C331.24 587.416 331.854 587.864 332.536 588.184L331.784 589.24C331.016 588.899 330.334 588.392 329.736 587.72C329.15 587.048 328.691 586.275 328.36 585.4C328.03 584.525 327.864 583.613 327.864 582.664V581.512H328.968ZM332.056 580.552V581.656H324.472V580.552H332.056ZM328.968 578.392V581.16H327.592V578.392H328.968ZM344.416 581.704C344.651 581.704 344.838 581.779 344.976 581.928C345.126 582.067 345.2 582.253 345.2 582.488C345.2 582.723 345.126 582.915 344.976 583.064C344.827 583.213 344.64 583.288 344.416 583.288C344.192 583.288 344 583.213 343.84 583.064C343.691 582.915 343.616 582.723 343.616 582.488C343.616 582.264 343.691 582.077 343.84 581.928C343.99 581.779 344.182 581.704 344.416 581.704ZM344.416 587.096C344.651 587.096 344.838 587.171 344.976 587.32C345.126 587.459 345.2 587.645 345.2 587.88C345.2 588.115 345.126 588.307 344.976 588.456C344.827 588.605 344.64 588.68 344.416 588.68C344.192 588.68 344 588.605 343.84 588.456C343.691 588.296 343.616 588.104 343.616 587.88C343.616 587.656 343.691 587.469 343.84 587.32C343.99 587.171 344.182 587.096 344.416 587.096ZM363.849 578.12V586.808H362.537V578.12H363.849ZM362.937 581.848V582.984H360.345V581.848H362.937ZM360.745 578.392V586.328H359.449V578.392H360.745ZM353.529 584.872C354.649 584.872 355.582 584.851 356.329 584.808C357.086 584.755 357.865 584.653 358.665 584.504L358.777 585.592C357.945 585.763 357.134 585.875 356.345 585.928C355.566 585.981 354.627 586.008 353.529 586.008H352.617V584.872H353.529ZM357.897 579.16V583.032H353.929V585.72H352.617V581.976H356.537V580.28H352.569V579.16H357.897ZM359.209 587.08C360.179 587.08 361.017 587.181 361.721 587.384C362.435 587.576 362.979 587.864 363.353 588.248C363.737 588.632 363.929 589.091 363.929 589.624C363.929 590.157 363.737 590.616 363.353 591C362.979 591.384 362.435 591.677 361.721 591.88C361.017 592.083 360.179 592.184 359.209 592.184C358.238 592.184 357.395 592.083 356.681 591.88C355.977 591.677 355.433 591.384 355.049 591C354.675 590.616 354.489 590.152 354.489 589.608C354.489 589.085 354.675 588.632 355.049 588.248C355.433 587.864 355.977 587.576 356.681 587.384C357.395 587.181 358.238 587.08 359.209 587.08ZM359.209 588.136C358.163 588.136 357.342 588.269 356.745 588.536C356.158 588.792 355.865 589.149 355.865 589.608C355.865 590.077 356.158 590.445 356.745 590.712C357.342 590.979 358.163 591.112 359.209 591.112C360.254 591.112 361.07 590.979 361.657 590.712C362.243 590.445 362.537 590.077 362.537 589.608C362.537 589.149 362.243 588.792 361.657 588.536C361.07 588.269 360.254 588.136 359.209 588.136ZM373.929 579.56C373.929 581.043 373.732 582.408 373.337 583.656C372.953 584.893 372.281 586.051 371.321 587.128C370.361 588.205 369.065 589.144 367.433 589.944L366.681 588.856C368.121 588.152 369.273 587.341 370.137 586.424C371.012 585.507 371.636 584.499 372.009 583.4C372.393 582.301 372.585 581.08 372.585 579.736V579.56H373.929ZM373.305 579.56V580.696H367.465V579.56H373.305ZM372.425 584.136L366.969 584.648L366.745 583.432L372.425 583.064V584.136ZM378.009 578.12V592.2H376.617V578.12H378.009ZM391.866 578.12V587.416H390.474V578.12H391.866ZM393.914 582.04V583.176H391.482V582.04H393.914ZM382.634 584.52C384.191 584.52 385.423 584.488 386.33 584.424C387.247 584.36 388.154 584.237 389.05 584.056L389.21 585.176C388.271 585.368 387.322 585.501 386.362 585.576C385.402 585.64 384.159 585.672 382.634 585.672H381.53V584.52H382.634ZM387.754 579.192V580.328H382.906V585.208H381.53V579.192H387.754ZM388.074 586.68V587.192C388.074 588.035 387.839 588.803 387.37 589.496C386.9 590.179 386.266 590.744 385.466 591.192C384.666 591.651 383.77 591.971 382.778 592.152L382.234 591.064C383.098 590.925 383.882 590.675 384.586 590.312C385.3 589.939 385.86 589.485 386.266 588.952C386.682 588.408 386.89 587.821 386.89 587.192V586.68H388.074ZM388.266 586.68V587.192C388.266 587.821 388.474 588.408 388.89 588.952C389.306 589.485 389.866 589.939 390.57 590.312C391.274 590.675 392.058 590.925 392.922 591.064L392.378 592.152C391.386 591.971 390.49 591.651 389.69 591.192C388.9 590.744 388.271 590.179 387.802 589.496C387.332 588.803 387.098 588.035 387.098 587.192V586.68H388.266ZM405.802 581.832V582.968H402.602V581.832H405.802ZM402.634 578.92C402.634 580.147 402.405 581.245 401.946 582.216C401.498 583.187 400.799 584.029 399.85 584.744C398.911 585.459 397.717 586.04 396.266 586.488L395.722 585.368C396.991 585.005 398.031 584.536 398.842 583.96C399.653 583.373 400.245 582.707 400.618 581.96C401.002 581.203 401.194 580.371 401.194 579.464V578.92H402.634ZM402.026 578.92V580.04H396.346V578.92H402.026ZM401.21 582.456L395.866 582.856L395.658 581.736L401.21 581.48V582.456ZM406.97 578.12V586.232H405.578V578.12H406.97ZM406.97 586.968V592.024H397.866V586.968H406.97ZM399.21 588.072V590.904H405.61V588.072H399.21ZM421.314 584.44V585.768H414.482V584.44H421.314ZM429.681 579.624V587.848H428.321V579.624H429.681ZM429.249 587.48C430.156 587.48 430.993 587.448 431.761 587.384C432.529 587.32 433.324 587.203 434.145 587.032L434.337 588.216C433.494 588.397 432.673 588.52 431.873 588.584C431.084 588.637 430.209 588.664 429.249 588.664H428.321V587.48H429.249ZM439.649 578.12V592.2H438.337V578.12H439.649ZM435.713 582.824V583.96H432.225V582.824H435.713ZM436.641 578.44V591.496H435.345V578.44H436.641ZM453.665 578.104V592.232H452.273V578.104H453.665ZM446.209 579.192C446.903 579.192 447.521 579.395 448.065 579.8C448.62 580.205 449.047 580.781 449.345 581.528C449.655 582.264 449.809 583.128 449.809 584.12C449.809 585.101 449.655 585.965 449.345 586.712C449.047 587.459 448.62 588.035 448.065 588.44C447.521 588.845 446.903 589.048 446.209 589.048C445.516 589.048 444.892 588.851 444.337 588.456C443.793 588.051 443.367 587.475 443.057 586.728C442.759 585.981 442.609 585.112 442.609 584.12C442.609 583.128 442.759 582.264 443.057 581.528C443.367 580.781 443.793 580.205 444.337 579.8C444.892 579.395 445.516 579.192 446.209 579.192ZM446.209 580.44C445.772 580.44 445.383 580.589 445.041 580.888C444.7 581.187 444.433 581.613 444.241 582.168C444.049 582.723 443.953 583.373 443.953 584.12C443.953 584.856 444.049 585.507 444.241 586.072C444.433 586.627 444.7 587.059 445.041 587.368C445.383 587.667 445.772 587.816 446.209 587.816C446.647 587.816 447.036 587.667 447.377 587.368C447.729 587.059 447.996 586.627 448.177 586.072C448.369 585.507 448.465 584.856 448.465 584.12C448.465 583.384 448.369 582.739 448.177 582.184C447.996 581.619 447.729 581.187 447.377 580.888C447.036 580.589 446.647 580.44 446.209 580.44ZM468.21 578.104V592.232H466.834V578.104H468.21ZM467.234 583.32V584.44H463.17V583.32H467.234ZM458.53 579.24V582.856H462.29V579.24H463.65V588.712H457.138V579.24H458.53ZM458.53 587.576H462.29V583.96H458.53V587.576ZM480.313 583.928V586.44H478.937V583.928H480.313ZM486.777 578.12V586.392H485.385V578.12H486.777ZM475.177 583.384C476.959 583.384 478.591 583.363 480.073 583.32C481.556 583.277 482.969 583.181 484.313 583.032L484.409 583.912C483.044 584.115 481.631 584.248 480.169 584.312C478.719 584.365 477.113 584.392 475.353 584.392L475.177 583.384ZM486.777 586.904V589.864H478.697V591.4H477.321V588.952H485.417V587.88H477.289V586.904H486.777ZM487.241 591.048V592.056H477.321V591.048H487.241ZM485.849 584.792V585.688H482.633V584.792H485.849ZM479.705 578.392C480.399 578.392 481.007 578.477 481.529 578.648C482.052 578.808 482.457 579.048 482.745 579.368C483.033 579.688 483.177 580.067 483.177 580.504C483.177 581.144 482.863 581.656 482.233 582.04C481.604 582.413 480.761 582.6 479.705 582.6C478.649 582.6 477.807 582.413 477.177 582.04C476.548 581.656 476.233 581.144 476.233 580.504C476.233 580.067 476.377 579.693 476.665 579.384C476.953 579.064 477.359 578.819 477.881 578.648C478.404 578.477 479.012 578.392 479.705 578.392ZM479.705 579.336C479.055 579.336 478.527 579.443 478.121 579.656C477.727 579.869 477.529 580.152 477.529 580.504C477.529 580.867 477.727 581.155 478.121 581.368C478.527 581.571 479.055 581.672 479.705 581.672C480.367 581.672 480.895 581.571 481.289 581.368C481.684 581.155 481.881 580.867 481.881 580.504C481.881 580.152 481.684 579.869 481.289 579.656C480.895 579.443 480.367 579.336 479.705 579.336ZM500.634 578.136V588.376H499.242V578.136H500.634ZM502.698 582.344V583.496H500.218V582.344H502.698ZM496.858 579.208C496.858 580.413 496.591 581.512 496.058 582.504C495.535 583.496 494.778 584.355 493.786 585.08C492.805 585.805 491.637 586.381 490.282 586.808L489.69 585.688C491.471 585.155 492.863 584.376 493.866 583.352C494.879 582.317 495.386 581.144 495.386 579.832V579.208H496.858ZM496.122 579.208V580.344H490.282V579.208H496.122ZM501.242 590.776V591.896H491.818V590.776H501.242ZM493.21 587.336V591.224H491.818V587.336H493.21ZM521.074 589.272V590.424H508.322V589.272H521.074ZM515.394 585.912V589.64H514.002V585.912H515.394ZM515.154 579.912V580.728C515.154 581.656 514.887 582.515 514.354 583.304C513.831 584.093 513.132 584.76 512.258 585.304C511.394 585.837 510.471 586.205 509.49 586.408L508.93 585.32C509.772 585.171 510.583 584.872 511.362 584.424C512.14 583.976 512.77 583.427 513.25 582.776C513.73 582.115 513.97 581.432 513.97 580.728V579.912H515.154ZM515.41 579.912V580.728C515.41 581.432 515.65 582.109 516.13 582.76C516.62 583.4 517.26 583.944 518.05 584.392C518.839 584.84 519.66 585.128 520.514 585.256L519.954 586.36C518.951 586.157 518.012 585.795 517.138 585.272C516.274 584.739 515.575 584.083 515.042 583.304C514.508 582.515 514.242 581.656 514.242 580.728V579.912H515.41ZM520.002 579.384V580.504H509.378V579.384H520.002ZM528.114 586.584V588.904H526.722V586.584H528.114ZM534.274 578.136V592.216H532.898V578.136H534.274ZM522.85 588.408C524.631 588.408 526.269 588.381 527.762 588.328C529.255 588.275 530.674 588.157 532.018 587.976L532.114 589C530.738 589.245 529.319 589.405 527.858 589.48C526.397 589.544 524.791 589.576 523.042 589.576L522.85 588.408ZM531.682 579.832V580.936H523.138V579.832H531.682ZM527.41 581.72C528.071 581.72 528.658 581.827 529.17 582.04C529.693 582.253 530.098 582.563 530.386 582.968C530.674 583.363 530.818 583.816 530.818 584.328C530.818 584.84 530.674 585.293 530.386 585.688C530.098 586.083 529.693 586.392 529.17 586.616C528.658 586.829 528.071 586.936 527.41 586.936C526.738 586.936 526.146 586.829 525.634 586.616C525.122 586.392 524.722 586.083 524.434 585.688C524.157 585.293 524.018 584.84 524.018 584.328C524.018 583.816 524.157 583.363 524.434 582.968C524.722 582.563 525.122 582.253 525.634 582.04C526.146 581.827 526.738 581.72 527.41 581.72ZM527.41 582.776C526.791 582.776 526.29 582.92 525.906 583.208C525.522 583.485 525.33 583.859 525.33 584.328C525.33 584.787 525.522 585.16 525.906 585.448C526.29 585.725 526.791 585.864 527.41 585.864C528.039 585.864 528.541 585.725 528.914 585.448C529.298 585.171 529.49 584.797 529.49 584.328C529.49 583.859 529.298 583.485 528.914 583.208C528.53 582.92 528.029 582.776 527.41 582.776ZM528.114 578.136V580.44H526.722V578.136H528.114ZM544.115 578.616V579.4C544.115 580.264 543.853 581.059 543.331 581.784C542.819 582.509 542.131 583.112 541.267 583.592C540.403 584.072 539.459 584.392 538.435 584.552L537.875 583.448C538.76 583.32 539.587 583.059 540.355 582.664C541.123 582.269 541.736 581.784 542.195 581.208C542.664 580.632 542.899 580.029 542.899 579.4V578.616H544.115ZM544.355 578.616V579.4C544.355 580.019 544.584 580.616 545.043 581.192C545.512 581.768 546.131 582.259 546.899 582.664C547.677 583.059 548.504 583.32 549.379 583.448L548.819 584.552C547.805 584.392 546.867 584.072 546.003 583.592C545.139 583.101 544.445 582.493 543.923 581.768C543.4 581.032 543.139 580.243 543.139 579.4V578.616H544.355ZM544.275 586.888V592.216H542.899V586.888H544.275ZM549.987 586.024V587.16H537.251V586.024H549.987Z" fill="#6D6D6D"/>
<path d="M89.5475 104.299L89.5555 106.003L84.2756 106.028L84.2675 104.324L89.5475 104.299ZM90.4324 98.5352L90.505 113.967L88.417 113.977L88.3444 98.5451L90.4324 98.5352ZM91.0976 117.492L91.1055 119.172L76.9697 119.239L76.9618 117.559L91.0976 117.492ZM79.0269 112.701L79.0538 118.413L76.9658 118.423L76.9389 112.711L79.0269 112.701ZM80.0289 101.224L80.0367 102.88C80.0427 104.16 79.8084 105.369 79.3338 106.508C78.8591 107.646 78.1758 108.641 77.2838 109.493C76.4078 110.345 75.3788 110.99 74.1969 111.428L73.1091 109.777C74.1633 109.404 75.0808 108.864 75.8615 108.156C76.6582 107.448 77.2704 106.637 77.6981 105.723C78.1418 104.809 78.3613 103.864 78.3567 102.888L78.3489 101.232L80.0289 101.224ZM80.4369 101.222L80.4446 102.854C80.4488 103.75 80.6609 104.629 81.081 105.491C81.517 106.337 82.1126 107.094 82.8677 107.763C83.6388 108.415 84.5372 108.915 85.5628 109.262L84.5145 110.899C83.3606 110.489 82.3497 109.885 81.4819 109.089C80.6141 108.278 79.9457 107.337 79.4766 106.267C79.0076 105.197 78.7703 104.062 78.7646 102.862L78.7569 101.23L80.4369 101.222ZM84.9922 100.217L85.0002 101.921L73.6964 101.974L73.6883 100.27L84.9922 100.217ZM102.276 111.056L102.292 114.464L100.204 114.473L100.188 111.065L102.276 111.056ZM111.073 98.4381L111.172 119.558L109.084 119.568L108.985 98.4479L111.073 98.4381ZM114.307 107.327L114.315 109.079L110.451 109.097L110.443 107.345L114.307 107.327ZM94.5614 113.924C97.1854 113.912 99.5692 113.86 101.713 113.77C103.856 113.68 105.888 113.495 107.806 113.214L107.981 114.725C105.983 115.118 103.944 115.376 101.865 115.498C99.7854 115.603 97.4576 115.662 94.8817 115.674L94.5614 113.924ZM107.461 100.975L107.468 102.631L94.8685 102.69L94.8607 101.034L107.461 100.975ZM101.186 103.861C102.178 103.856 103.051 104.012 103.804 104.328C104.558 104.645 105.144 105.106 105.563 105.712C105.998 106.302 106.217 106.981 106.22 107.749C106.224 108.517 106.011 109.198 105.582 109.792C105.169 110.386 104.587 110.853 103.837 111.192C103.086 111.516 102.215 111.68 101.223 111.685C100.247 111.689 99.3822 111.533 98.6287 111.217C97.8751 110.884 97.281 110.423 96.8462 109.833C96.4274 109.243 96.2162 108.564 96.2126 107.796C96.2089 107.012 96.4136 106.323 96.8269 105.729C97.2561 105.135 97.8459 104.676 98.5964 104.353C99.3469 104.029 100.21 103.865 101.186 103.861ZM101.218 105.445C100.29 105.449 99.5466 105.668 98.9886 106.103C98.4466 106.522 98.1772 107.083 98.1806 107.787C98.1839 108.491 98.4665 109.05 99.0285 109.463C99.5904 109.876 100.319 110.081 101.215 110.077C102.143 110.072 102.878 109.861 103.42 109.442C103.978 109.024 104.256 108.462 104.252 107.758C104.249 107.054 103.967 106.496 103.405 106.082C102.859 105.653 102.13 105.44 101.218 105.445ZM102.217 98.5038L102.234 102.128L100.146 102.138L100.129 98.5136L102.217 98.5038ZM132.399 101.338L132.407 103.018L125.999 103.048L125.991 101.368L132.399 101.338ZM132.422 106.186L132.43 107.89L126.022 107.92L126.014 106.216L132.422 106.186ZM122.191 99.6097C123.215 99.6049 124.144 99.8165 124.978 100.245C125.812 100.673 126.463 101.27 126.93 102.035C127.414 102.801 127.658 103.664 127.663 104.624C127.667 105.6 127.431 106.473 126.955 107.243C126.494 107.998 125.849 108.593 125.019 109.029C124.189 109.464 123.254 109.685 122.214 109.69C121.19 109.695 120.261 109.483 119.427 109.055C118.593 108.627 117.935 108.038 117.451 107.288C116.983 106.522 116.747 105.651 116.743 104.675C116.738 103.715 116.966 102.85 117.426 102.08C117.903 101.294 118.556 100.691 119.386 100.271C120.216 99.835 121.151 99.6146 122.191 99.6097ZM122.199 101.386C121.527 101.389 120.928 101.528 120.401 101.802C119.89 102.077 119.484 102.471 119.183 102.984C118.881 103.481 118.732 104.042 118.735 104.666C118.738 105.306 118.892 105.873 119.199 106.368C119.505 106.862 119.915 107.245 120.428 107.514C120.957 107.784 121.558 107.917 122.23 107.914C122.902 107.91 123.493 107.772 124.004 107.497C124.531 107.223 124.937 106.837 125.223 106.34C125.524 105.842 125.674 105.273 125.671 104.633C125.668 104.009 125.513 103.45 125.207 102.956C124.916 102.445 124.506 102.055 123.977 101.785C123.448 101.516 122.855 101.383 122.199 101.386ZM133.825 98.331L133.884 110.787L131.796 110.797L131.737 98.3408L133.825 98.331ZM126.902 111.324C129.094 111.313 130.816 111.665 132.067 112.379C133.334 113.093 133.971 114.082 133.977 115.346C133.983 116.626 133.356 117.621 132.095 118.331C130.851 119.057 129.132 119.425 126.94 119.436C124.748 119.446 123.019 119.094 121.751 118.38C120.5 117.682 119.871 116.693 119.865 115.413C119.859 114.149 120.479 113.154 121.723 112.428C122.984 111.702 124.71 111.334 126.902 111.324ZM126.91 112.956C125.87 112.961 124.974 113.061 124.223 113.256C123.472 113.452 122.897 113.735 122.499 114.104C122.101 114.458 121.903 114.891 121.905 115.403C121.908 115.899 122.11 116.33 122.511 116.696C122.913 117.063 123.49 117.34 124.243 117.528C124.996 117.717 125.893 117.809 126.933 117.804C127.989 117.799 128.884 117.698 129.619 117.503C130.37 117.307 130.945 117.025 131.343 116.655C131.741 116.285 131.939 115.852 131.937 115.356C131.935 114.844 131.733 114.413 131.331 114.063C130.929 113.697 130.352 113.419 129.599 113.231C128.862 113.042 127.966 112.951 126.91 112.956ZM143.769 99.8682C144.793 99.8633 145.706 100.163 146.509 100.767C147.312 101.371 147.94 102.233 148.393 103.35C148.847 104.452 149.077 105.747 149.084 107.235C149.091 108.707 148.873 110.012 148.43 111.15C147.987 112.272 147.367 113.139 146.57 113.751C145.773 114.347 144.863 114.647 143.839 114.652C142.815 114.657 141.901 114.365 141.098 113.777C140.296 113.173 139.667 112.312 139.214 111.194C138.761 110.076 138.531 108.773 138.524 107.285C138.517 105.797 138.735 104.5 139.177 103.394C139.62 102.272 140.24 101.405 141.037 100.793C141.834 100.181 142.745 99.873 143.769 99.8682ZM143.778 101.74C143.122 101.743 142.547 101.97 142.053 102.42C141.559 102.871 141.17 103.512 140.886 104.346C140.618 105.179 140.486 106.156 140.492 107.276C140.497 108.38 140.638 109.355 140.914 110.202C141.205 111.032 141.6 111.678 142.099 112.14C142.597 112.586 143.174 112.807 143.83 112.804C144.486 112.801 145.061 112.574 145.555 112.124C146.048 111.658 146.429 111.008 146.697 110.174C146.981 109.325 147.121 108.348 147.116 107.244C147.11 106.124 146.962 105.149 146.67 104.319C146.394 103.488 146.007 102.85 145.509 102.404C145.011 101.958 144.434 101.737 143.778 101.74ZM155.521 98.1808L155.621 119.373L153.581 119.382L153.481 98.1904L155.521 98.1808ZM154.407 106.226L154.415 107.882L148.391 107.91L148.383 106.255L154.407 106.226ZM171.079 107.084C171.527 107.082 171.896 107.224 172.185 107.51C172.474 107.781 172.62 108.14 172.622 108.588C172.624 109.036 172.474 109.405 172.171 109.695C171.885 109.984 171.517 110.13 171.069 110.132C170.621 110.134 170.253 109.992 169.963 109.705C169.674 109.418 169.528 109.051 169.526 108.603C169.524 108.155 169.666 107.794 169.953 107.521C170.24 107.232 170.615 107.086 171.079 107.084ZM192.306 110.632L192.322 114.04L190.234 114.05L190.218 110.642L192.306 110.632ZM201.103 98.0142L201.202 119.134L199.114 119.144L199.015 98.0241L201.103 98.0142ZM204.337 106.903L204.345 108.655L200.481 108.673L200.473 106.921L204.337 106.903ZM184.591 113.5C187.215 113.488 189.599 113.437 191.743 113.346C193.886 113.256 195.917 113.071 197.836 112.79L198.011 114.301C196.013 114.694 193.974 114.952 191.895 115.074C189.815 115.18 187.488 115.239 184.912 115.251L184.591 113.5ZM197.491 100.551L197.498 102.207L184.898 102.267L184.891 100.611L197.491 100.551ZM191.216 103.437C192.208 103.432 193.081 103.588 193.834 103.905C194.588 104.221 195.174 104.682 195.593 105.288C196.028 105.878 196.247 106.557 196.25 107.325C196.254 108.093 196.041 108.774 195.612 109.368C195.199 109.962 194.617 110.429 193.867 110.768C193.116 111.092 192.245 111.256 191.253 111.261C190.277 111.265 189.412 111.109 188.659 110.793C187.905 110.46 187.311 109.999 186.876 109.409C186.457 108.819 186.246 108.14 186.243 107.372C186.239 106.588 186.444 105.899 186.857 105.305C187.286 104.711 187.876 104.253 188.626 103.929C189.377 103.605 190.24 103.441 191.216 103.437ZM191.248 105.021C190.32 105.025 189.577 105.245 189.019 105.679C188.477 106.098 188.207 106.659 188.21 107.363C188.214 108.067 188.496 108.626 189.058 109.039C189.62 109.452 190.349 109.657 191.245 109.653C192.173 109.648 192.908 109.437 193.45 109.018C194.008 108.6 194.286 108.038 194.282 107.334C194.279 106.63 193.996 106.072 193.435 105.658C192.889 105.229 192.159 105.016 191.248 105.021ZM192.247 98.0799L192.264 101.704L190.176 101.714L190.159 98.0897L192.247 98.0799ZM213.228 99.0371L213.238 101.173C213.245 102.533 213.019 103.806 212.56 104.992C212.102 106.163 211.434 107.19 210.559 108.074C209.699 108.942 208.678 109.603 207.496 110.056L206.36 108.406C207.43 108.017 208.356 107.46 209.136 106.736C209.917 105.997 210.513 105.154 210.924 104.208C211.352 103.246 211.563 102.237 211.558 101.181L211.548 99.0451L213.228 99.0371ZM213.588 99.0355L213.599 101.315C213.603 102.259 213.816 103.162 214.236 104.024C214.656 104.87 215.251 105.628 216.022 106.296C216.809 106.948 217.708 107.448 218.717 107.795L217.645 109.408C216.507 108.998 215.504 108.395 214.636 107.599C213.785 106.787 213.124 105.846 212.655 104.776C212.186 103.69 211.949 102.539 211.943 101.323L211.932 99.0433L213.588 99.0355ZM222.871 97.9117L222.931 110.68L220.843 110.689L220.783 97.9216L222.871 97.9117ZM225.992 103.273L226 105.001L222.328 105.018L222.32 103.29L225.992 103.273ZM216.19 111.263C218.366 111.253 220.071 111.589 221.307 112.271C222.542 112.937 223.162 113.887 223.168 115.119C223.172 115.935 222.895 116.632 222.338 117.21C221.781 117.789 220.983 118.233 219.944 118.542C218.905 118.851 217.666 119.008 216.226 119.015C214.786 119.022 213.546 118.876 212.504 118.577C211.463 118.278 210.661 117.841 210.098 117.268C209.535 116.679 209.252 115.984 209.248 115.184C209.244 114.368 209.521 113.671 210.078 113.092C210.635 112.498 211.433 112.046 212.472 111.737C213.51 111.428 214.75 111.27 216.19 111.263ZM216.197 112.895C214.661 112.903 213.454 113.108 212.576 113.512C211.714 113.916 211.285 114.462 211.288 115.15C211.291 115.87 211.726 116.428 212.592 116.824C213.474 117.204 214.683 117.391 216.219 117.383C217.755 117.376 218.954 117.178 219.816 116.79C220.694 116.386 221.131 115.824 221.128 115.104C221.125 114.416 220.682 113.874 219.8 113.478C218.934 113.082 217.733 112.888 216.197 112.895ZM244.125 100.812L244.133 102.492L237.725 102.522L237.717 100.842L244.125 100.812ZM244.148 105.66L244.156 107.364L237.748 107.394L237.74 105.69L244.148 105.66ZM233.917 99.0838C234.941 99.0789 235.87 99.2906 236.704 99.7186C237.538 100.147 238.189 100.744 238.657 101.509C239.14 102.275 239.384 103.138 239.389 104.098C239.393 105.074 239.158 105.947 238.681 106.717C238.221 107.472 237.575 108.067 236.746 108.503C235.916 108.938 234.981 109.159 233.941 109.164C232.917 109.169 231.988 108.957 231.154 108.529C230.32 108.101 229.661 107.512 229.177 106.762C228.71 105.996 228.474 105.125 228.469 104.149C228.464 103.189 228.692 102.324 229.153 101.554C229.629 100.768 230.282 100.165 231.112 99.745C231.942 99.3091 232.877 99.0886 233.917 99.0838ZM233.926 100.86C233.254 100.863 232.654 101.002 232.127 101.276C231.617 101.551 231.211 101.945 230.909 102.458C230.607 102.955 230.458 103.516 230.461 104.14C230.464 104.78 230.619 105.347 230.925 105.842C231.231 106.336 231.641 106.719 232.154 106.988C232.684 107.258 233.284 107.391 233.956 107.388C234.628 107.384 235.22 107.246 235.73 106.971C236.257 106.697 236.663 106.311 236.949 105.814C237.251 105.316 237.4 104.747 237.397 104.107C237.394 103.483 237.239 102.924 236.933 102.43C236.643 101.919 236.233 101.529 235.703 101.259C235.174 100.99 234.582 100.857 233.926 100.86ZM245.551 97.805L245.61 110.261L243.522 110.271L243.463 97.8148L245.551 97.805ZM238.628 110.798C240.82 110.787 242.542 111.139 243.793 111.853C245.061 112.567 245.697 113.556 245.703 114.82C245.709 116.1 245.082 117.095 243.821 117.805C242.577 118.531 240.859 118.899 238.667 118.91C236.475 118.92 234.745 118.568 233.478 117.854C232.226 117.156 231.598 116.167 231.592 114.887C231.586 113.623 232.205 112.628 233.449 111.902C234.71 111.176 236.436 110.808 238.628 110.798ZM238.636 112.43C237.596 112.435 236.701 112.535 235.949 112.73C235.198 112.926 234.624 113.209 234.225 113.578C233.827 113.932 233.629 114.365 233.631 114.877C233.634 115.373 233.836 115.804 234.238 116.17C234.639 116.537 235.217 116.814 235.97 117.002C236.722 117.191 237.619 117.283 238.659 117.278C239.715 117.273 240.61 117.172 241.345 116.977C242.097 116.781 242.671 116.499 243.069 116.129C243.468 115.759 243.666 115.326 243.663 114.83C243.661 114.318 243.459 113.887 243.057 113.537C242.656 113.171 242.078 112.893 241.325 112.705C240.588 112.516 239.692 112.425 238.636 112.43ZM255.495 99.3422C256.519 99.3374 257.433 99.6371 258.235 100.241C259.038 100.846 259.666 101.707 260.12 102.824C260.573 103.926 260.803 105.221 260.81 106.709C260.817 108.181 260.599 109.486 260.156 110.624C259.714 111.746 259.094 112.613 258.297 113.225C257.499 113.821 256.589 114.121 255.565 114.126C254.541 114.131 253.627 113.839 252.825 113.251C252.022 112.647 251.394 111.786 250.94 110.668C250.487 109.55 250.257 108.247 250.25 106.759C250.243 105.271 250.461 103.974 250.904 102.868C251.346 101.746 251.966 100.879 252.763 100.267C253.561 99.6553 254.471 99.347 255.495 99.3422ZM255.504 101.214C254.848 101.217 254.273 101.444 253.779 101.894C253.285 102.345 252.896 102.986 252.612 103.82C252.344 104.653 252.213 105.63 252.218 106.75C252.223 107.854 252.364 108.829 252.64 109.676C252.932 110.506 253.327 111.153 253.825 111.614C254.323 112.06 254.9 112.281 255.556 112.278C256.212 112.275 256.787 112.048 257.281 111.598C257.775 111.132 258.156 110.482 258.424 109.648C258.708 108.799 258.847 107.822 258.842 106.718C258.837 105.599 258.688 104.623 258.396 103.793C258.12 102.962 257.733 102.324 257.235 101.878C256.737 101.432 256.16 101.211 255.504 101.214ZM267.247 97.6548L267.347 118.847L265.307 118.856L265.207 97.6644L267.247 97.6548ZM266.133 105.7L266.141 107.356L260.117 107.385L260.109 105.729L266.133 105.7ZM87.008 134.648C88.9013 134.639 90.6097 135.004 92.1332 135.744C93.6567 136.483 94.8616 137.517 95.7478 138.847C96.6341 140.176 97.0811 141.667 97.0889 143.32C97.0968 145 96.6639 146.509 95.7902 147.847C94.9165 149.184 93.7215 150.243 92.2051 151.023C90.6887 151.777 88.9971 152.159 87.1305 152.167C85.2372 152.176 83.5154 151.811 81.9652 151.072C80.4416 150.306 79.2367 149.258 78.3504 147.929C77.4908 146.599 77.0571 145.095 77.0491 143.415C77.0414 141.761 77.4743 140.266 78.348 138.929C79.2218 137.591 80.4168 136.545 81.9333 135.792C83.4498 135.038 85.1413 134.657 87.008 134.648ZM87.0321 139.768C86.2588 139.771 85.5794 139.908 84.994 140.177C84.4086 140.447 83.9439 140.862 83.5998 141.424C83.2557 141.959 83.0854 142.613 83.0891 143.386C83.0927 144.16 83.2692 144.825 83.6185 145.384C83.9677 145.916 84.4363 146.327 85.0243 146.617C85.6389 146.881 86.3195 147.011 87.0662 147.008C87.8395 147.004 88.5189 146.867 89.1043 146.598C89.7162 146.302 90.1809 145.886 90.4984 145.351C90.8424 144.79 91.0126 144.122 91.009 143.349C91.0054 142.576 90.8289 141.923 90.4798 141.391C90.1571 140.833 89.6885 140.422 89.0739 140.158C88.486 139.894 87.8054 139.764 87.0321 139.768ZM105.76 132.999L105.853 152.759L99.5735 152.789L99.4805 133.029L105.76 132.999ZM110.314 140.178L110.338 145.258L104.098 145.287L104.074 140.207L110.314 140.178ZM87.8604 154.284L87.8731 156.964L99.6729 156.908L99.6603 154.228L105.86 154.199L105.93 169.039L81.6904 169.153L81.6205 154.313L87.8604 154.284ZM87.9069 164.164L99.7068 164.108L99.6955 161.708L87.8957 161.764L87.9069 164.164ZM142.715 148.586L142.739 153.546L116.819 153.668L116.795 148.708L142.715 148.586ZM146.13 160.25L146.154 165.33L113.234 165.485L113.21 160.405L146.13 160.25ZM132.726 150.913L132.777 161.833L126.497 161.862L126.446 150.942L132.726 150.913ZM142.412 135.067L142.435 140.027L122.995 140.118L123.046 150.838L116.806 150.868L116.732 135.188L142.412 135.067ZM162.218 136.294L162.228 138.254C162.239 140.68 161.903 142.962 161.22 145.098C160.537 147.235 159.425 149.107 157.886 150.714C156.374 152.295 154.419 153.464 152.023 154.222L148.88 149.317C150.877 148.667 152.486 147.766 153.707 146.614C154.955 145.435 155.842 144.137 156.369 142.721C156.895 141.305 157.155 139.824 157.148 138.278L157.138 136.318L162.218 136.294ZM163.498 136.288L163.508 138.248C163.515 139.714 163.774 141.113 164.287 142.444C164.8 143.775 165.646 144.984 166.825 146.072C168.003 147.16 169.554 148.019 171.477 148.65L168.46 153.545C166.136 152.835 164.238 151.724 162.764 150.211C161.29 148.672 160.215 146.89 159.539 144.866C158.862 142.816 158.519 140.618 158.508 138.271L158.498 136.311L163.498 136.288ZM175.44 140.912L175.464 145.951L169.224 145.981L169.2 140.941L175.44 140.912ZM170.09 134.417L170.113 139.337L150.473 139.429L150.45 134.509L170.09 134.417ZM180.03 155.69L180.093 169.05L173.813 169.079L173.773 160.64L154.933 160.728L154.91 155.808L180.03 155.69ZM179.921 132.65L180.023 154.21L173.743 154.24L173.642 132.68L179.921 132.65ZM210.336 165.547L204.256 165.496L204.147 142.376L198.159 144.845L196.174 139.494L204.158 136.136L210.198 136.108L210.336 165.547ZM227.769 133.705C229.609 133.696 231.264 134.035 232.734 134.722C234.23 135.381 235.395 136.309 236.227 137.505C237.059 138.701 237.479 140.073 237.487 141.619C237.494 143.113 237.073 144.475 236.226 145.705C235.405 146.909 234.263 147.861 232.799 148.562C231.336 149.235 229.684 149.576 227.844 149.585C226.004 149.594 224.349 149.268 222.879 148.608C221.409 147.922 220.245 146.981 219.386 145.785C218.553 144.562 218.134 143.204 218.127 141.711C218.119 140.164 218.526 138.789 219.347 137.585C220.195 136.381 221.351 135.442 222.814 134.768C224.277 134.068 225.929 133.714 227.769 133.705ZM227.793 138.745C227.073 138.748 226.433 138.858 225.874 139.074C225.315 139.29 224.877 139.625 224.559 140.08C224.268 140.508 224.124 141.042 224.127 141.682C224.13 142.296 224.279 142.815 224.574 143.24C224.896 143.665 225.338 143.983 225.899 144.194C226.46 144.405 227.1 144.508 227.82 144.505C228.567 144.501 229.206 144.392 229.738 144.176C230.297 143.96 230.736 143.638 231.054 143.21C231.372 142.782 231.529 142.261 231.527 141.647C231.524 141.007 231.361 140.475 231.039 140.05C230.717 139.598 230.275 139.267 229.714 139.056C229.18 138.845 228.54 138.742 227.793 138.745ZM231.14 152.969L231.209 167.689L224.929 167.719L224.86 152.999L231.14 152.969ZM246.843 132.295L247.014 168.695L240.774 168.724L240.603 132.325L246.843 132.295ZM216.332 151.279C220.705 151.259 224.718 151.173 228.371 151.022C232.05 150.845 235.555 150.482 238.886 149.933L239.307 154.491C235.924 155.2 232.459 155.67 228.914 155.9C225.395 156.13 221.435 156.268 217.035 156.316L216.332 151.279ZM261.996 156.064L256.076 156.092L254.887 133.057L262.807 133.02L261.996 156.064ZM259.055 160.238C259.989 160.234 260.75 160.523 261.339 161.107C261.929 161.691 262.226 162.45 262.23 163.383C262.234 164.29 261.945 165.038 261.361 165.627C260.777 166.243 260.018 166.554 259.085 166.558C258.178 166.562 257.417 166.259 256.801 165.649C256.211 165.065 255.915 164.32 255.91 163.413C255.906 162.48 256.196 161.718 256.78 161.129C257.39 160.539 258.149 160.242 259.055 160.238Z" fill="black"/>
<defs>
<linearGradient id="paint0_linear_2011_1888" x1="37.6544" y1="-27.0723" x2="341" y2="214.92" gradientUnits="userSpaceOnUse">
<stop offset="0.110577" stop-color="#EEEEEE"/>
<stop offset="1" stop-color="#B5EBFF"/>
</linearGradient>
</defs>
</svg>
