<svg width="637" height="112" viewBox="0 0 637 112" fill="none" xmlns="http://www.w3.org/2000/svg">
<path d="M5.33984 7.03125L9.75781 14.7188H9.94531L14.3633 7.03125H17.3047L11.1523 17.3438V24H8.5625V17.3438L2.42188 7.03125H5.33984ZM23.3567 24.2578C22.1302 24.2578 21.0559 23.9883 20.1341 23.4492C19.22 22.9102 18.5169 22.1484 18.0247 21.1641C17.5325 20.1797 17.2864 19.0352 17.2864 17.7305C17.2864 16.4258 17.5325 15.2734 18.0247 14.2734C18.5169 13.2656 19.2083 12.4883 20.0989 11.9414C20.9895 11.3867 22.0169 11.1094 23.1809 11.1094C24.2122 11.1094 25.1536 11.332 26.0052 11.7773C26.8567 12.2148 27.5403 12.9141 28.0559 13.875C28.5716 14.8281 28.8294 16.0352 28.8294 17.4961V18.375H18.6927V16.5117H26.3802C26.3802 15.8633 26.2473 15.2891 25.9817 14.7891C25.7239 14.2812 25.3528 13.8828 24.8684 13.5938C24.3841 13.3047 23.8294 13.1602 23.2044 13.1602C22.5247 13.1602 21.927 13.3242 21.4114 13.6523C20.8958 13.9805 20.4934 14.4219 20.2044 14.9766C19.9153 15.5312 19.7708 16.125 19.7708 16.7578V18.2109C19.7708 19.0469 19.9192 19.7656 20.2161 20.3672C20.5208 20.9688 20.9427 21.4258 21.4817 21.7383C22.0286 22.0508 22.6575 22.207 23.3684 22.207C23.8216 22.207 24.2317 22.1445 24.5989 22.0195C24.9661 21.8867 25.2786 21.7227 25.5364 21.5273C25.7942 21.3242 25.9934 21.0859 26.1341 20.8125H28.677C28.4895 21.5 28.1536 22.1016 27.6692 22.6172C27.1848 23.1328 26.5716 23.5352 25.8294 23.8242C25.095 24.1133 24.2708 24.2578 23.3567 24.2578ZM39.6978 18.2344C39.4947 18.2344 38.858 18.2734 37.7877 18.3516L36.522 18.4453C35.6783 18.5078 35.022 18.7031 34.5533 19.0312C34.0923 19.3594 33.8619 19.8281 33.8619 20.4375C33.8619 20.8359 33.9634 21.1719 34.1666 21.4453C34.3697 21.7109 34.6548 21.918 35.022 22.0664C35.3892 22.207 35.8072 22.2773 36.2759 22.2773C36.94 22.2773 37.5142 22.1484 37.9986 21.8906C38.4908 21.625 38.8697 21.2734 39.1353 20.8359C39.4009 20.3906 39.5338 19.9141 39.5338 19.4062L39.522 15.3984C39.522 14.9141 39.4244 14.5039 39.2291 14.168C39.0416 13.8242 38.7525 13.5664 38.3619 13.3945C37.9713 13.2148 37.4947 13.125 36.9322 13.125C36.2213 13.125 35.6392 13.2734 35.1861 13.5703C34.7408 13.8594 34.4517 14.25 34.3189 14.7422H31.8111C31.897 14.0312 32.1627 13.4023 32.608 12.8555C33.0533 12.3086 33.6548 11.8828 34.4127 11.5781C35.1705 11.2656 36.0377 11.1094 37.0142 11.1094C37.8345 11.1094 38.6119 11.2344 39.3463 11.4844C40.0884 11.7266 40.7173 12.1797 41.233 12.8438C41.7486 13.5 42.0064 14.4023 42.0064 15.5508V24H39.5806V22.2539H39.4869C39.315 22.6055 39.065 22.9336 38.7369 23.2383C38.4088 23.543 37.9869 23.793 37.4713 23.9883C36.9634 24.1836 36.3775 24.2812 35.7134 24.2812C34.8931 24.2812 34.1588 24.1289 33.5103 23.8242C32.8619 23.5195 32.3502 23.0742 31.9752 22.4883C31.6002 21.9023 31.4127 21.2109 31.4127 20.4141C31.4127 19.0859 31.858 18.1406 32.7486 17.5781C33.647 17.0156 34.7877 16.6914 36.1705 16.6055C36.358 16.582 37.1002 16.5352 38.397 16.4648L39.6744 16.418L39.6978 18.2344ZM45.7733 11.2734H48.1873V13.3125H48.328C48.5545 12.6094 48.9608 12.0625 49.5467 11.6719C50.1327 11.2734 50.7928 11.0742 51.5272 11.0742C51.9178 11.0742 52.2772 11.0977 52.6053 11.1445V13.5352C52.5037 13.4961 52.3202 13.4609 52.0545 13.4297C51.7889 13.3906 51.535 13.3711 51.2928 13.3711C50.7303 13.3711 50.2186 13.4961 49.7577 13.7461C49.2967 13.9883 48.9334 14.3281 48.6678 14.7656C48.4022 15.2031 48.2694 15.6953 48.2694 16.2422V24H45.7733V11.2734Z" fill="black"/>
<path d="M19.2734 84.4004H12.1953V57.166H12.0078L4.25 62.0879V55.8066L12.6406 50.4629H19.2734V84.4004ZM41.7838 84.8691C38.9556 84.8691 36.5181 84.1895 34.4713 82.8301C32.44 81.4707 30.8775 79.4863 29.7838 76.877C28.7056 74.252 28.1666 71.1035 28.1666 67.4316C28.1666 63.7598 28.7056 60.6191 29.7838 58.0098C30.8775 55.4004 32.4478 53.416 34.4947 52.0566C36.5416 50.6816 38.9713 49.9941 41.7838 49.9941C44.5963 49.9941 47.0259 50.6816 49.0728 52.0566C51.1197 53.416 52.69 55.4082 53.7838 58.0332C54.8775 60.6426 55.4244 63.7754 55.4244 67.4316C55.4244 71.1191 54.8775 74.2676 53.7838 76.877C52.7056 79.4863 51.1431 81.4707 49.0963 82.8301C47.0494 84.1895 44.6119 84.8691 41.7838 84.8691ZM41.7838 79.0566C43.0963 79.0566 44.2369 78.627 45.2056 77.7676C46.19 76.9082 46.94 75.6113 47.4556 73.877C47.9713 72.127 48.2213 69.9785 48.2056 67.4316C48.2056 64.9004 47.9478 62.7676 47.4322 61.0332C46.9166 59.2832 46.1744 57.9707 45.2056 57.0957C44.2369 56.2207 43.0963 55.7832 41.7838 55.7832C40.4713 55.7832 39.3306 56.2207 38.3619 57.0957C37.4088 57.9707 36.6666 59.2832 36.1353 61.0332C35.6041 62.7676 35.3384 64.9004 35.3384 67.4316C35.3384 69.9785 35.5963 72.127 36.1119 73.877C36.6431 75.6113 37.3931 76.9082 38.3619 77.7676C39.3306 78.627 40.4713 79.0566 41.7838 79.0566ZM96.2863 77.4395H90.3331V46.1035H96.2863V77.4395ZM92.3488 55.5488H79.7394V50.8613H92.3488V55.5488ZM97.2941 87.9863H67.9034V83.1582H97.2941V87.9863ZM73.9503 85.5723H67.9034V74.627H73.9503V85.5723ZM68.6769 68.9082H62.7238V48.752H68.6769V68.9082ZM66.1456 67.0332C69.5675 67.0332 72.6847 66.9395 75.4972 66.752C78.3253 66.5488 81.1769 66.1973 84.0519 65.6973L84.6144 70.4785C81.6613 71.041 78.7394 71.4238 75.8488 71.627C72.9738 71.8301 69.7394 71.9238 66.1456 71.9082H62.7238V67.0332H66.1456ZM92.3488 63.5176H79.7394V58.8301H92.3488V63.5176ZM147.94 56.8613H135.283V52.0566H147.94V56.8613ZM147.94 67.1738H135.283V62.3926H147.94V67.1738ZM151.76 77.2988H145.807V46.1035H151.76V77.2988ZM152.791 87.9863H123.448V83.1582H152.791V87.9863ZM129.448 85.6191H123.448V74.1348H129.448V85.6191ZM127.713 48.5645C129.791 48.5645 131.682 49.0488 133.385 50.0176C135.104 50.9707 136.471 52.291 137.487 53.9785C138.502 55.6504 139.01 57.541 139.01 59.6504C139.01 61.7285 138.502 63.6035 137.487 65.2754C136.471 66.9473 135.104 68.2676 133.385 69.2363C131.666 70.1895 129.776 70.666 127.713 70.666C125.573 70.666 123.635 70.1895 121.901 69.2363C120.182 68.2676 118.823 66.9473 117.823 65.2754C116.838 63.6035 116.346 61.7285 116.346 59.6504C116.346 57.541 116.838 55.6426 117.823 53.9551C118.823 52.2676 120.182 50.9473 121.901 49.9941C123.635 49.041 125.573 48.5645 127.713 48.5645ZM127.713 53.8848C126.604 53.8691 125.619 54.0957 124.76 54.5645C123.901 55.0176 123.229 55.6816 122.744 56.5566C122.26 57.4316 122.018 58.4629 122.018 59.6504C122.018 60.8066 122.26 61.8145 122.744 62.6738C123.229 63.5332 123.901 64.1973 124.76 64.666C125.619 65.1191 126.604 65.3535 127.713 65.3691C128.76 65.3535 129.705 65.1191 130.549 64.666C131.408 64.1973 132.08 63.5332 132.565 62.6738C133.049 61.8145 133.291 60.8066 133.291 59.6504C133.291 58.4629 133.049 57.4316 132.565 56.5566C132.08 55.6816 131.408 55.0176 130.549 54.5645C129.705 54.0957 128.76 53.8691 127.713 53.8848ZM197.661 71.5801H158.755V66.7988H197.661V71.5801ZM181.091 68.8613H175.161V61.1738H181.091V68.8613ZM180.153 48.166C180.153 50.791 179.458 53.1816 178.067 55.3379C176.692 57.4785 174.7 59.2754 172.091 60.7285C169.497 62.1816 166.427 63.1738 162.88 63.7051L160.723 59.0176C163.786 58.6426 166.395 57.9082 168.552 56.8145C170.723 55.7051 172.348 54.4004 173.427 52.9004C174.52 51.3848 175.067 49.8066 175.067 48.166V46.7598H180.153V48.166ZM181.161 48.166C181.161 49.8848 181.7 51.4941 182.778 52.9941C183.872 54.4785 185.505 55.7598 187.677 56.8379C189.848 57.916 192.481 58.6426 195.575 59.0176L193.255 63.7051C189.692 63.1738 186.614 62.1895 184.02 60.752C181.442 59.3145 179.466 57.5176 178.091 55.3613C176.731 53.2051 176.052 50.8066 176.052 48.166V46.7598H181.161V48.166ZM192.903 88.7129H186.95V79.2441H163.044V74.6035H192.903V88.7129Z" fill="#00A6FF"/>
<path d="M295.375 7.03125H298.082L301.387 20.1445H301.551L304.973 7.03125H307.656L311.102 20.1562H311.242L314.559 7.03125H317.254L312.543 24H309.941L306.391 11.3086H306.262L302.688 24H300.086L295.375 7.03125ZM324.115 24.2578C322.888 24.2578 321.814 23.9883 320.892 23.4492C319.978 22.9102 319.275 22.1484 318.782 21.1641C318.29 20.1797 318.044 19.0352 318.044 17.7305C318.044 16.4258 318.29 15.2734 318.782 14.2734C319.275 13.2656 319.966 12.4883 320.857 11.9414C321.747 11.3867 322.775 11.1094 323.939 11.1094C324.97 11.1094 325.911 11.332 326.763 11.7773C327.615 12.2148 328.298 12.9141 328.814 13.875C329.329 14.8281 329.587 16.0352 329.587 17.4961V18.375H319.45V16.5117H327.138C327.138 15.8633 327.005 15.2891 326.74 14.7891C326.482 14.2812 326.111 13.8828 325.626 13.5938C325.142 13.3047 324.587 13.1602 323.962 13.1602C323.282 13.1602 322.685 13.3242 322.169 13.6523C321.654 13.9805 321.251 14.4219 320.962 14.9766C320.673 15.5312 320.529 16.125 320.529 16.7578V18.2109C320.529 19.0469 320.677 19.7656 320.974 20.3672C321.279 20.9688 321.7 21.4258 322.24 21.7383C322.786 22.0508 323.415 22.207 324.126 22.207C324.579 22.207 324.99 22.1445 325.357 22.0195C325.724 21.8867 326.036 21.7227 326.294 21.5273C326.552 21.3242 326.751 21.0859 326.892 20.8125H329.435C329.247 21.5 328.911 22.1016 328.427 22.6172C327.943 23.1328 327.329 23.5352 326.587 23.8242C325.853 24.1133 325.029 24.2578 324.115 24.2578ZM338.264 24.2578C337.038 24.2578 335.963 23.9883 335.042 23.4492C334.127 22.9102 333.424 22.1484 332.932 21.1641C332.44 20.1797 332.194 19.0352 332.194 17.7305C332.194 16.4258 332.44 15.2734 332.932 14.2734C333.424 13.2656 334.116 12.4883 335.006 11.9414C335.897 11.3867 336.924 11.1094 338.088 11.1094C339.12 11.1094 340.061 11.332 340.913 11.7773C341.764 12.2148 342.448 12.9141 342.963 13.875C343.479 14.8281 343.737 16.0352 343.737 17.4961V18.375H333.6V16.5117H341.288C341.288 15.8633 341.155 15.2891 340.889 14.7891C340.631 14.2812 340.26 13.8828 339.776 13.5938C339.292 13.3047 338.737 13.1602 338.112 13.1602C337.432 13.1602 336.835 13.3242 336.319 13.6523C335.803 13.9805 335.401 14.4219 335.112 14.9766C334.823 15.5312 334.678 16.125 334.678 16.7578V18.2109C334.678 19.0469 334.827 19.7656 335.124 20.3672C335.428 20.9688 335.85 21.4258 336.389 21.7383C336.936 22.0508 337.565 22.207 338.276 22.207C338.729 22.207 339.139 22.1445 339.506 22.0195C339.874 21.8867 340.186 21.7227 340.444 21.5273C340.702 21.3242 340.901 21.0859 341.042 20.8125H343.585C343.397 21.5 343.061 22.1016 342.577 22.6172C342.092 23.1328 341.479 23.5352 340.737 23.8242C340.002 24.1133 339.178 24.2578 338.264 24.2578ZM349.203 16.6406H349.648L354.699 11.2734H357.687L351.898 17.4141H351.5L349.226 19.6875L349.203 16.6406ZM346.93 7.03125H349.426V24H346.93V7.03125ZM350.422 17.9766L352.133 16.2188L358.027 24H354.969L350.422 17.9766Z" fill="black"/>
<path d="M310.141 84.8691C307.828 84.8691 305.734 84.4395 303.859 83.5801C301.984 82.7207 300.508 81.5254 299.43 79.9941C298.367 78.4629 297.812 76.7441 297.766 74.8379H304.586C304.664 75.7129 304.953 76.4863 305.453 77.1582C305.969 77.8301 306.633 78.3613 307.445 78.752C308.273 79.127 309.172 79.3145 310.141 79.3145C311.297 79.3145 312.328 79.0566 313.234 78.541C314.156 78.0254 314.875 77.3145 315.391 76.4082C315.906 75.4863 316.164 74.4473 316.164 73.291C316.164 72.0879 315.898 71.0332 315.367 70.127C314.852 69.2051 314.125 68.4863 313.188 67.9707C312.266 67.4395 311.211 67.1738 310.023 67.1738C308.758 67.1582 307.688 67.3848 306.812 67.8535C305.938 68.3223 305.242 69.041 304.727 70.0098H298.328L300.18 50.4629H321.062V56.252H305.992L305.055 64.8066H305.312C305.969 63.9473 306.906 63.252 308.125 62.7207C309.344 62.1895 310.68 61.9238 312.133 61.9238C314.18 61.9238 316.031 62.4004 317.688 63.3535C319.359 64.291 320.656 65.6113 321.578 67.3145C322.516 69.0176 322.977 70.9473 322.961 73.1035C322.977 75.3535 322.438 77.377 321.344 79.1738C320.266 80.9551 318.758 82.3535 316.82 83.3691C314.883 84.3691 312.656 84.8691 310.141 84.8691ZM329.159 79.3145L341.37 68.0879C342.573 66.9316 343.51 65.9785 344.182 65.2285C344.854 64.4629 345.362 63.6973 345.706 62.9316C346.065 62.1504 346.245 61.3223 346.245 60.4473C346.245 59.4785 346.01 58.627 345.542 57.8926C345.073 57.1426 344.432 56.5723 343.62 56.1816C342.807 55.791 341.885 55.5957 340.854 55.5957C339.807 55.5957 338.878 55.8066 338.065 56.2285C337.268 56.6504 336.651 57.2676 336.213 58.0801C335.792 58.877 335.581 59.8066 335.581 60.8691H328.878C328.878 58.6973 329.378 56.791 330.378 55.1504C331.393 53.4941 332.807 52.2207 334.62 51.3301C336.448 50.4395 338.549 49.9941 340.924 49.9941C343.315 49.9941 345.424 50.416 347.253 51.2598C349.081 52.1035 350.495 53.2832 351.495 54.7988C352.51 56.3145 353.018 58.0488 353.018 60.002C353.018 61.3301 352.76 62.6113 352.245 63.8457C351.745 65.0801 350.854 66.4473 349.573 67.9473C348.307 69.4473 346.503 71.2598 344.159 73.3848L338.979 78.377V78.6113H353.51V84.4004H329.182L329.159 79.3145ZM373.091 84.8691C370.575 84.8535 368.294 84.2988 366.247 83.2051C364.2 82.1113 362.544 80.3223 361.278 77.8379C360.013 75.3535 359.38 72.1426 359.38 68.2051C359.38 64.4395 359.95 61.1895 361.091 58.4551C362.247 55.7051 363.872 53.6113 365.966 52.1738C368.075 50.7207 370.536 49.9941 373.349 49.9941C375.583 49.9941 377.575 50.4238 379.325 51.2832C381.091 52.1426 382.513 53.3223 383.591 54.8223C384.669 56.3223 385.325 58.0098 385.56 59.8848H378.599C378.411 59.0879 378.075 58.4004 377.591 57.8223C377.122 57.2285 376.528 56.7832 375.81 56.4863C375.091 56.1895 374.271 56.041 373.349 56.041C371.833 56.041 370.552 56.4785 369.505 57.3535C368.474 58.2129 367.685 59.4473 367.138 61.0566C366.591 62.666 366.31 64.5957 366.294 66.8457H366.575C367.107 65.8457 367.81 64.9941 368.685 64.291C369.575 63.5723 370.583 63.0254 371.708 62.6504C372.849 62.2598 374.036 62.0645 375.271 62.0645C377.286 62.0645 379.107 62.5332 380.732 63.4707C382.357 64.4082 383.622 65.7129 384.528 67.3848C385.45 69.041 385.911 70.9238 385.911 73.0332C385.911 75.3145 385.372 77.3535 384.294 79.1504C383.232 80.9473 381.724 82.3535 379.771 83.3691C377.833 84.3691 375.607 84.8691 373.091 84.8691ZM373.044 79.3145C374.185 79.3145 375.208 79.0488 376.114 78.5176C377.036 77.9707 377.755 77.2363 378.271 76.3145C378.802 75.377 379.068 74.3535 379.068 73.2441C379.068 72.1035 378.81 71.0723 378.294 70.1504C377.778 69.2285 377.068 68.5098 376.161 67.9941C375.255 67.4785 374.232 67.2207 373.091 67.2207C371.966 67.2207 370.943 67.4863 370.021 68.0176C369.099 68.5488 368.372 69.2754 367.841 70.1973C367.31 71.1191 367.028 72.1426 366.997 73.2676C367.013 74.3457 367.278 75.3457 367.794 76.2676C368.325 77.1895 369.044 77.9316 369.95 78.4941C370.872 79.041 371.903 79.3145 373.044 79.3145ZM412.078 52.0801C412.078 54.5957 411.39 56.9004 410.015 58.9941C408.656 61.0879 406.695 62.8457 404.132 64.2676C401.57 65.6738 398.523 66.6191 394.992 67.1035L392.765 62.4395C395.75 62.0645 398.304 61.3457 400.429 60.2832C402.57 59.2207 404.179 57.9707 405.257 56.5332C406.336 55.0957 406.875 53.6113 406.875 52.0801V50.791H412.078V52.0801ZM413.789 52.0801C413.789 53.6113 414.32 55.0957 415.382 56.5332C416.461 57.9707 418.07 59.2207 420.211 60.2832C422.351 61.3457 424.929 62.0645 427.945 62.4395L425.789 67.1035C422.242 66.6191 419.172 65.6738 416.578 64.2676C414 62.8613 412.023 61.1113 410.648 59.0176C409.273 56.9082 408.586 54.5957 408.586 52.0801V50.791H413.789V52.0801ZM413.179 88.7363H407.25V73.0098H413.179V88.7363ZM429.797 74.3691H390.89V69.6113H429.797V74.3691ZM426.281 52.9707H394.382V48.3066H426.281V52.9707ZM467.635 76.6191H461.565V46.0098H467.635V76.6191ZM473.401 62.9316H465.901V58.0098H473.401V62.9316ZM455.987 49.2207C455.987 53.0488 455.213 56.4863 453.666 59.5332C452.119 62.5801 449.854 65.1973 446.869 67.3848C443.901 69.5566 440.276 71.252 435.994 72.4707L433.487 67.7363C436.987 66.7676 439.932 65.502 442.322 63.9395C444.729 62.377 446.533 60.5957 447.737 58.5957C448.955 56.5957 449.565 54.4629 449.565 52.1973V49.2207H455.987ZM452.893 54.1191H435.362V49.2207H452.893V54.1191ZM469.088 87.9863H439.885V83.1582H469.088V87.9863ZM445.932 85.3145H439.885V73.502H445.932V85.3145Z" fill="#00A6FF"/>
<path d="M572.734 7.03125H578.781C580.078 7.03125 581.164 7.25391 582.039 7.69922C582.922 8.13672 583.582 8.75781 584.02 9.5625C584.457 10.3672 584.676 11.3008 584.676 12.3633C584.676 13.4102 584.457 14.3281 584.02 15.1172C583.582 15.8984 582.918 16.5078 582.027 16.9453C581.145 17.3828 580.059 17.6016 578.77 17.6016H574.188V15.3633H578.523C579.352 15.3633 580.027 15.2461 580.551 15.0117C581.074 14.7773 581.457 14.4375 581.699 13.9922C581.949 13.5469 582.074 13.0039 582.074 12.3633C582.074 11.6992 581.949 11.1367 581.699 10.6758C581.457 10.207 581.07 9.85156 580.539 9.60938C580.008 9.36719 579.332 9.24609 578.512 9.24609H575.312V24H572.734V7.03125ZM585.309 24H582.367L578.266 16.3477H581.125L585.309 24ZM595.72 18.2344C595.517 18.2344 594.88 18.2734 593.81 18.3516L592.544 18.4453C591.7 18.5078 591.044 18.7031 590.575 19.0312C590.115 19.3594 589.884 19.8281 589.884 20.4375C589.884 20.8359 589.986 21.1719 590.189 21.4453C590.392 21.7109 590.677 21.918 591.044 22.0664C591.411 22.207 591.829 22.2773 592.298 22.2773C592.962 22.2773 593.536 22.1484 594.021 21.8906C594.513 21.625 594.892 21.2734 595.158 20.8359C595.423 20.3906 595.556 19.9141 595.556 19.4062L595.544 15.3984C595.544 14.9141 595.447 14.5039 595.251 14.168C595.064 13.8242 594.775 13.5664 594.384 13.3945C593.993 13.2148 593.517 13.125 592.954 13.125C592.243 13.125 591.661 13.2734 591.208 13.5703C590.763 13.8594 590.474 14.25 590.341 14.7422H587.833C587.919 14.0312 588.185 13.4023 588.63 12.8555C589.075 12.3086 589.677 11.8828 590.435 11.5781C591.193 11.2656 592.06 11.1094 593.036 11.1094C593.857 11.1094 594.634 11.2344 595.368 11.4844C596.111 11.7266 596.74 12.1797 597.255 12.8438C597.771 13.5 598.029 14.4023 598.029 15.5508V24H595.603V22.2539H595.509C595.337 22.6055 595.087 22.9336 594.759 23.2383C594.431 23.543 594.009 23.793 593.493 23.9883C592.986 24.1836 592.4 24.2812 591.736 24.2812C590.915 24.2812 590.181 24.1289 589.533 23.8242C588.884 23.5195 588.372 23.0742 587.997 22.4883C587.622 21.9023 587.435 21.2109 587.435 20.4141C587.435 19.0859 587.88 18.1406 588.771 17.5781C589.669 17.0156 590.81 16.6914 592.193 16.6055C592.38 16.582 593.122 16.5352 594.419 16.4648L595.697 16.418L595.72 18.2344ZM604.292 24H601.795V11.2734H604.186V13.3477H604.35C604.663 12.6367 605.131 12.0859 605.756 11.6953C606.389 11.3047 607.174 11.1094 608.112 11.1094C608.987 11.1094 609.745 11.293 610.385 11.6602C611.034 12.0195 611.534 12.5586 611.885 13.2773C612.245 13.9961 612.424 14.8711 612.424 15.9023V24H609.928V16.1953C609.928 15.5859 609.823 15.0625 609.612 14.625C609.401 14.1875 609.096 13.8555 608.698 13.6289C608.299 13.3945 607.815 13.2773 607.245 13.2773C606.667 13.2773 606.155 13.4023 605.71 13.6523C605.264 13.8945 604.917 14.2578 604.667 14.7422C604.417 15.2188 604.292 15.7891 604.292 16.4531V24ZM618.476 16.6406H618.922L623.972 11.2734H626.961L621.172 17.4141H620.773L618.5 19.6875L618.476 16.6406ZM616.203 7.03125H618.699V24H616.203V7.03125ZM619.695 17.9766L621.406 16.2188L627.301 24H624.242L619.695 17.9766Z" fill="black"/>
<path d="M588.273 84.4004H581.195V57.166H581.008L573.25 62.0879V55.8066L581.641 50.4629H588.273V84.4004ZM610.128 47.8145C612.268 47.7988 614.198 48.1738 615.917 48.9395C617.635 49.7051 618.971 50.7754 619.924 52.1504C620.893 53.5254 621.378 55.1035 621.378 56.8848C621.378 58.6348 620.893 60.1973 619.924 61.5723C618.971 62.9473 617.635 64.0254 615.917 64.8066C614.198 65.5723 612.268 65.9551 610.128 65.9551C607.971 65.9551 606.042 65.5723 604.338 64.8066C602.651 64.0254 601.323 62.9473 600.354 61.5723C599.385 60.1973 598.901 58.6348 598.901 56.8848C598.901 55.1035 599.385 53.5254 600.354 52.1504C601.323 50.7754 602.651 49.7051 604.338 48.9395C606.042 48.1738 607.971 47.7988 610.128 47.8145ZM610.128 52.6191C609.049 52.6035 608.104 52.7676 607.292 53.1113C606.479 53.4395 605.838 53.9238 605.37 54.5645C604.917 55.2051 604.69 55.9785 604.69 56.8848C604.69 57.7598 604.917 58.5098 605.37 59.1348C605.838 59.7598 606.479 60.2441 607.292 60.5879C608.12 60.916 609.065 61.0801 610.128 61.0801C611.237 61.0801 612.206 60.916 613.034 60.5879C613.878 60.2441 614.534 59.7598 615.003 59.1348C615.471 58.5098 615.706 57.7598 615.706 56.8848C615.706 55.9785 615.471 55.2051 615.003 54.5645C614.534 53.9238 613.885 53.4395 613.057 53.1113C612.229 52.7676 611.253 52.6035 610.128 52.6191ZM613.385 87.4707H607.385V70.2441H613.385V87.4707ZM632.159 88.6895H626.206V46.1035H632.159V88.6895ZM596.299 68.5332C601.331 68.5332 606.135 68.4316 610.713 68.2285C615.307 68.0254 619.628 67.6191 623.674 67.0098L624.049 71.3926C620.268 72.1426 616.378 72.6504 612.378 72.916C608.393 73.166 603.94 73.3223 599.018 73.3848C598.487 73.416 597.831 73.4316 597.049 73.4316L596.299 68.5332Z" fill="#00A6FF"/>
<path d="M0 111H637" stroke="#515151" stroke-opacity="0.5" stroke-width="0.8"/>
</svg>
