<svg xmlns="http://www.w3.org/2000/svg" width="250" height="135" viewBox="0 0 250 135" fill="none">
  <g clip-path="url(#clip0_250_9340)">
    <path d="M73.2567 124.439C65.5896 124.743 61.9582 123.39 54.6643 120.894C47.3549 118.405 40.6753 114.634 34.8122 109.688C28.9335 104.758 24.0735 98.8253 20.3722 92.0602C16.663 85.3339 14.2602 78.0556 13.2416 70.4118C12.2151 62.7991 12.6117 55.1397 14.4157 47.6514C16.2275 40.1243 19.3535 33.1259 23.7158 26.8351C28.0937 20.5054 33.5369 15.1089 39.9132 10.801C40.1076 10.6688 40.3643 10.7232 40.4964 10.9176C40.6286 11.112 40.5742 11.3686 40.3798 11.5008C34.0968 15.7543 28.7158 21.0731 24.4001 27.3172C20.1 33.5147 17.0129 40.4275 15.2244 47.8458C13.4437 55.233 13.0549 62.7913 14.0658 70.2951C15.0689 77.8301 17.4406 85.0151 21.1031 91.648C24.7656 98.3198 29.5556 104.175 35.3487 109.043C41.1341 113.918 47.7203 117.635 54.9287 120.093C62.1215 122.558 65.6518 123.895 73.2178 123.592" fill="url(#paint0_linear_250_9340)"/>
    <path d="M22.6591 44.3308C18.7789 44.8363 16.7338 46.2049 15.7852 47.1924C15.9951 46.2515 16.7338 44.5874 18.6545 43.32C19.6498 42.6979 20.9251 42.1847 22.5503 41.9358C24.2143 41.7026 26.2283 41.7414 28.6622 42.1847C25.8706 45.3106 23.3979 47.0136 21.2439 47.7912C19.1133 48.5843 17.3248 48.4288 16.3917 48.1877C17.7369 47.8145 19.8442 46.7336 22.6669 44.3308H22.6591Z" fill="url(#paint1_linear_250_9340)"/>
    <path d="M20.5127 53.9504C18.5765 54.5569 17.1768 55.319 16.1582 56.0654C15.124 56.8119 14.463 57.5429 14.0742 58.1416C14.0898 57.885 14.1209 57.5818 14.1831 57.2396C14.2686 56.8975 14.3853 56.5165 14.5563 56.1199C14.8985 55.319 15.4117 54.4247 16.337 53.6005C18.1022 51.9364 21.267 50.5445 26.4847 50.6222C24.1208 54.3158 21.9669 56.532 19.8362 57.7295C17.7989 58.9503 15.9171 59.1292 14.8985 59.0592C15.5439 58.7326 16.3604 58.2116 17.2935 57.3951C17.7834 56.9908 18.2966 56.5087 18.8331 55.9488C19.3619 55.3889 19.9373 54.7435 20.5672 54.0204C20.5983 53.9893 20.5516 53.9348 20.5127 53.9504Z" fill="url(#paint2_linear_250_9340)"/>
    <path d="M20.6435 64.2373C19.6638 64.7583 18.8162 65.2948 18.093 65.8314C17.3932 66.3679 16.8177 66.8967 16.3356 67.4099C15.3636 68.4363 14.8115 69.3694 14.5238 70.0926C14.4383 69.5483 14.3994 68.7629 14.6094 67.8454C14.796 66.92 15.1692 65.8702 15.9779 64.8049C16.3667 64.2762 16.8488 63.7474 17.4243 63.2342C18.0152 62.721 18.7384 62.2311 19.5627 61.7801C20.3947 61.3291 21.3434 60.9092 22.432 60.5515C23.5284 60.1938 24.7804 59.8905 26.18 59.6572C24.4071 63.9574 22.5642 66.7256 20.558 68.4363C18.6529 70.1471 16.6933 70.7458 15.5969 70.8935C16.2268 70.4037 16.9888 69.6649 17.8208 68.5763C18.7151 67.4877 19.5938 66.0647 20.6435 64.2451V64.2373Z" fill="url(#paint3_linear_250_9340)"/>
    <path d="M22.7049 75.0464C19.0269 78.0868 17.8993 80.855 17.6038 82.4958C17.1917 81.4071 16.7796 79.2143 17.9382 76.6482C18.537 75.3652 19.4701 74.0199 21.0408 72.7136C22.5883 71.415 24.6722 70.1786 27.5182 69.1133C26.554 73.9033 25.2243 77.1848 23.5369 79.4009C21.904 81.6093 19.9911 82.6824 18.8791 83.079C19.9911 81.7882 21.3674 79.261 22.7049 75.0386V75.0464Z" fill="url(#paint4_linear_250_9340)"/>
    <path d="M27.4562 85.8316C25.8777 87.8533 24.929 89.704 24.4002 91.2437C23.9026 92.7755 23.7626 94.043 23.8015 94.9606C23.4516 94.4241 23.0628 93.592 22.7906 92.5423C22.5107 91.4925 22.4796 90.1473 22.7595 88.6698C23.0939 87.169 23.8093 85.4972 25.1467 83.7632C26.5231 82.0136 28.4593 80.2251 31.2431 78.4521C31.2975 81.0571 31.1265 83.3277 30.8154 85.2639C30.4811 87.2157 29.999 88.8487 29.3769 90.2172C28.1327 92.9699 26.4298 94.5485 25.3256 95.2639C25.7455 94.4396 26.1576 93.2965 26.5542 91.718C26.7486 90.9326 26.9041 90.0695 27.0519 89.0897C27.2229 88.0944 27.3473 87.0213 27.4484 85.8316H27.4562Z" fill="url(#paint5_linear_250_9340)"/>
    <path d="M34.7261 95.9712C33.5441 98.475 33.1009 100.543 32.922 102.285C32.7898 103.988 32.992 105.295 33.2486 106.251C32.7665 105.777 32.1367 105.046 31.5923 104.035C31.0791 102.993 30.6437 101.679 30.6048 100.061C30.5814 98.4362 30.8769 96.5699 31.8723 94.4471C32.3622 93.3895 32.9842 92.2931 33.8085 91.1423C34.6483 89.9837 35.6592 88.7862 36.88 87.542C37.1677 88.8795 37.4554 90.0847 37.6187 91.2667C37.8287 92.4175 37.9453 93.514 38.0075 94.5482C38.0931 95.559 38.0931 96.531 38.0386 97.4408C37.9998 98.3351 37.9064 99.1671 37.7587 99.9447C37.4554 101.508 36.9889 102.814 36.4679 103.84C35.9391 104.875 35.3559 105.645 34.8971 106.15C35.1071 105.209 35.2548 103.91 35.2548 102.208C35.2393 100.528 35.0682 98.4517 34.7261 95.9634V95.9712Z" fill="url(#paint6_linear_250_9340)"/>
    <path d="M44.7655 104.378C43.7235 110.085 44.9288 113.6 46.0019 115.334C44.7266 114.696 42.5726 112.978 41.6006 109.704C40.6675 106.376 41.0174 101.563 44.8432 95.1709C45.4653 96.4539 46.0641 97.6048 46.5306 98.7712C47.0438 99.8676 47.4171 101.011 47.7748 102.014C48.4358 104.098 48.8245 105.941 48.9256 107.644C49.1978 110.972 48.3502 113.522 47.6659 114.805C47.627 112.706 46.7872 109.315 44.7733 104.378H44.7655Z" fill="url(#paint7_linear_250_9340)"/>
    <path d="M57.3468 110.155C57.5878 113.281 58.3032 115.613 59.1275 117.417C59.975 119.159 60.9237 120.372 61.7402 121.111C60.9781 120.971 59.9439 120.574 58.8242 119.906C58.2643 119.564 57.7045 119.089 57.1446 118.545C56.5925 118.008 56.0559 117.347 55.5816 116.546C53.6532 113.444 52.72 108.257 54.9284 100.645C58.8786 105.046 61.3047 108.926 62.51 112.301C63.7231 115.683 63.622 118.522 63.2876 120.069C62.9455 118.996 62.3312 117.674 61.3592 115.987C60.3872 114.33 59.0419 112.417 57.339 110.147L57.3468 110.155Z" fill="url(#paint8_linear_250_9340)"/>
    <path d="M25.7618 35.6991C22.1615 35.5747 20.1787 36.5156 19.1289 37.2388C19.5177 36.4534 20.3497 35.0304 22.3248 34.1983C23.2891 33.7707 24.5021 33.4907 26.034 33.5141C27.5659 33.5374 29.3388 33.8406 31.485 34.5871C30.7307 35.2014 30.0309 35.7535 29.3232 36.2045C28.6312 36.6633 28.0013 37.0677 27.3637 37.3865C26.0806 38.0164 24.9842 38.4285 23.9423 38.6151C21.8738 38.9961 20.3342 38.584 19.5177 38.2263C20.132 38.1485 20.9796 37.9697 22.0216 37.5731C23.0558 37.1765 24.2844 36.5622 25.7541 35.6913L25.7618 35.6991Z" fill="url(#paint9_linear_250_9340)"/>
    <path d="M30.0076 28.3511C28.3902 28.0556 27.0683 28.0401 26.0185 28.1645C24.9999 28.3045 24.2456 28.5689 23.7246 28.8332C23.9501 28.4911 24.3078 28.0401 24.8444 27.5969C25.3809 27.1614 26.1352 26.7571 27.0761 26.5004C28.0014 26.2361 29.1756 26.1583 30.5753 26.3916C31.9749 26.6249 33.5535 27.1225 35.4275 28.1101C33.8801 29.0665 32.4726 29.7042 31.244 30.1474C29.9843 30.5673 28.8879 30.7617 27.9314 30.7928C26.003 30.8628 24.6188 30.2407 23.9346 29.7975C25.1321 29.8752 27.0761 29.5642 30.0154 28.3589L30.0076 28.3511Z" fill="url(#paint10_linear_250_9340)"/>
    <path d="M35.638 21.6091C32.6909 20.5982 30.7002 20.7771 29.666 21.127C30.1559 20.5282 31.3223 19.6418 33.1574 19.4318C34.075 19.3307 35.2025 19.4474 36.47 19.8517C37.7375 20.2561 39.1761 20.987 40.7935 22.1768C37.5742 23.522 35.1481 23.8408 33.313 23.592C31.5012 23.3743 30.3036 22.5889 29.7282 22.0679C30.2725 22.1845 31.0268 22.2545 31.991 22.1923C32.9708 22.1379 34.1994 21.9901 35.6458 21.6091H35.638Z" fill="url(#paint11_linear_250_9340)"/>
    <path d="M41.9502 16.0576C39.3375 14.7046 37.4402 14.5724 36.4215 14.759C36.9658 14.2691 38.1944 13.6237 39.9363 13.6704C41.717 13.7792 44.0187 14.6268 46.7169 17.294C43.4899 18.1182 41.1726 18.0871 39.4775 17.5817C37.8134 17.1229 36.8103 16.2131 36.3438 15.6377C36.8336 15.8243 37.5257 15.9954 38.4433 16.0809C39.3764 16.1898 40.5428 16.2053 41.9502 16.0498V16.0576Z" fill="url(#paint12_linear_250_9340)"/>
    <path d="M45.6143 7.84541C44.238 8.1098 43.2193 8.54525 42.4495 8.97293C41.6797 9.39284 41.1587 9.81274 40.8477 10.186C40.9721 9.50948 41.4386 8.37418 42.7761 7.32442C44.1058 6.30577 46.3997 5.46596 49.8678 5.74589C47.7994 8.56081 46.0965 9.8594 44.619 10.4815C43.1727 11.1191 41.9285 10.9714 41.2909 10.8547C41.7341 10.6837 42.3407 10.4348 43.0638 9.96826C43.7792 9.48615 44.6112 8.79409 45.6143 7.83764V7.84541Z" fill="url(#paint13_linear_250_9340)"/>
    <path d="M10.2014 40.0621C12.853 43.2192 13.8405 45.4198 14.2293 46.7961C14.4548 45.8241 14.7348 44.059 13.9649 41.7417C13.615 40.5909 12.9929 39.2845 11.9743 37.8382C10.9945 36.4074 9.62594 34.8289 7.72082 33.1182C6.69438 38.989 7.82968 42.5271 9.19826 44.5489C10.6057 46.5784 12.2776 47.2005 13.2184 47.426C12.2464 46.4385 10.769 44.4089 10.2014 40.0621Z" fill="url(#paint14_linear_250_9340)"/>
    <path d="M7.09181 51.9051C8.68589 53.2737 9.86784 54.4712 10.7154 55.4898C11.5475 56.5085 12.0529 57.3638 12.395 58.0248C12.4106 57.7604 12.4184 57.4494 12.395 57.0839C12.3873 56.7262 12.3484 56.3219 12.2706 55.8786C12.1151 54.9922 11.7574 53.958 11.182 52.8304C9.96115 50.5598 7.67501 47.8616 3.1105 45C3.05606 51.3297 4.99229 54.8211 6.73411 56.6562C8.59258 58.5069 10.4433 58.8257 11.4619 58.8802C10.8632 58.468 10.1011 57.8148 9.29242 56.7262C8.90362 56.1819 8.50704 55.5287 8.11047 54.7511C7.70611 53.9657 7.32509 53.0482 6.9985 51.9751C6.98295 51.9284 7.03738 51.8818 7.07626 51.9129L7.09181 51.9051Z" fill="url(#paint15_linear_250_9340)"/>
    <path d="M5.64434 64.8131C6.67077 65.3963 7.55723 65.9484 8.32706 66.4694C9.12021 66.9904 9.78894 67.4881 10.3566 67.9546C11.4841 68.8878 12.2151 69.6965 12.7283 70.3341C12.6427 69.7742 12.4794 68.9888 12.1373 68.079C11.7796 67.1693 11.1964 66.1428 10.3488 65.0542C9.91336 64.5099 9.39237 63.95 8.77029 63.3901C8.15598 62.8225 7.46392 62.2548 6.63966 61.6794C5.81541 61.104 4.87451 60.5286 3.80142 59.9609C2.73611 59.3933 1.54638 58.8334 0.193359 58.2891C1.39086 65.1397 4.18245 68.4834 6.42971 70.0775C8.79362 71.6638 10.8309 71.5938 11.9273 71.4383C11.1964 71.1272 10.2322 70.5751 9.12798 69.5643C8.086 68.5378 6.79518 67.0526 5.65211 64.8209L5.64434 64.8131Z" fill="url(#paint16_linear_250_9340)"/>
    <path d="M7.13063 78.9262C9.50231 79.7116 11.3763 80.4581 12.7527 81.189C14.1135 81.92 15.1244 82.5887 15.7698 83.1564C15.3499 82.0055 14.4012 80.0382 12.0995 78.1564C10.9642 77.2 9.42455 76.2668 7.48832 75.4037C5.521 74.5483 3.04823 73.7785 0.0078125 73.1953C2.72941 80.2093 6.40746 83.1175 9.14461 84.2839C11.9595 85.427 14.0668 84.8982 15.171 84.4938C13.5225 84.1517 10.6065 83.1097 7.1384 78.934L7.13063 78.9262Z" fill="url(#paint17_linear_250_9340)"/>
    <path d="M11.7724 93.6546C14.5406 93.9112 16.6635 94.3 18.3198 94.7433C20.0072 95.1632 21.1736 95.6686 22.0056 96.1118C21.6479 95.552 21.1113 94.7821 20.2715 94.0045C19.4162 93.2269 18.382 92.3716 16.889 91.6484C15.4504 90.9019 13.6231 90.241 11.3136 89.7822C9.03522 89.3078 6.20475 89.0512 2.80664 89.129C5.10056 92.5893 7.41003 94.8988 9.55621 96.3995C11.6791 97.9159 13.6153 98.6313 15.2482 98.919C16.8656 99.2145 18.2342 99.0589 19.3151 98.7635C20.396 98.468 21.1969 98.0247 21.7334 97.6593C20.8003 97.6981 19.4862 97.6048 17.8454 97.045C17.0212 96.765 16.0803 96.384 15.0694 95.8319C14.0741 95.272 12.9699 94.5644 11.7801 93.6468L11.7724 93.6546Z" fill="url(#paint18_linear_250_9340)"/>
    <path d="M20.5665 107.923C23.4358 107.55 25.7842 107.364 27.5726 107.426C29.4078 107.441 30.753 107.636 31.7095 107.892C31.2118 107.395 30.4498 106.757 29.3845 106.174C28.3502 105.56 27.005 104.992 25.3254 104.595C23.6613 104.175 21.5851 103.973 19.1201 104.035C17.876 104.074 16.4996 104.199 15.0144 104.416C13.537 104.626 11.9273 104.937 10.1777 105.381C11.7563 106.936 13.3503 108.133 14.8045 109.121C16.2974 110.077 17.6816 110.801 18.9724 111.322C20.2788 111.827 21.4685 112.154 22.5416 112.348C23.638 112.519 24.6178 112.55 25.4965 112.496C27.2383 112.387 28.5991 111.889 29.6333 111.306C30.6675 110.723 31.3751 110.062 31.8261 109.556C30.8697 109.844 29.5089 110.07 27.6737 109.914C25.8153 109.774 23.4591 109.253 20.5742 107.923H20.5665Z" fill="url(#paint19_linear_250_9340)"/>
    <path d="M33.3426 120.497C39.1358 118.11 42.705 117.504 44.8667 117.449C43.5214 116.757 41.072 115.692 37.3628 115.793C33.6926 115.832 28.6693 116.967 21.873 120.544C23.9337 121.765 25.9166 122.597 27.6973 123.25C29.5246 123.833 31.1265 124.269 32.635 124.432C35.5977 124.836 37.9383 124.486 39.7034 123.927C43.2804 122.69 44.7656 120.443 45.4343 119.16C44.5401 119.696 43.1948 120.311 41.2431 120.661C40.2711 120.824 39.1435 120.933 37.8216 120.948C36.5308 120.917 35.03 120.808 33.3504 120.497H33.3426Z" fill="url(#paint20_linear_250_9340)"/>
    <path d="M50.1157 130.077C52.7829 128.063 54.999 126.57 56.8186 125.583C58.646 124.525 60.0845 123.981 61.1887 123.631C60.3956 123.475 59.2914 123.25 57.8917 123.304C57.1919 123.32 56.4454 123.343 55.6133 123.475C54.7813 123.607 53.8948 123.802 52.9462 124.066C49.1204 125.225 44.2604 127.698 38.1484 133.32C43.1873 134.68 47.3163 134.782 50.5123 134.377C52.1219 134.144 53.5138 133.778 54.7035 133.359C55.901 132.9 56.9042 132.363 57.744 131.803C61.0954 129.525 61.9663 126.726 62.2774 125.217C61.5075 126.034 60.2945 127.091 58.3816 127.993C56.4609 128.918 53.7937 129.789 50.1235 130.077H50.1157Z" fill="url(#paint21_linear_250_9340)"/>
    <path d="M15.2721 30.0385C17.1539 33.2422 17.7682 35.3884 17.8615 36.6637C18.2659 35.855 18.7091 34.2687 18.4136 32.1069C18.2425 31.0105 17.8693 29.743 17.2006 28.32C16.524 26.897 15.4821 25.2641 14.028 23.4756C13.5925 24.7353 13.3203 25.9095 13.1182 26.9515C12.9315 28.009 12.8849 28.9732 12.8849 29.8208C12.8771 31.516 13.2659 32.8612 13.7169 33.8721C14.6345 35.8861 16.073 36.7181 16.874 37.068C16.4929 36.5393 16.0808 35.7772 15.762 34.6419C15.4354 33.5066 15.1944 31.9981 15.2877 30.0308L15.2721 30.0385Z" fill="url(#paint22_linear_250_9340)"/>
    <path d="M21.1116 21.6401C21.7726 23.2497 22.138 24.5483 22.3402 25.5981C22.558 26.6634 22.5968 27.4721 22.558 28.0709C22.7912 27.7209 23.0712 27.2077 23.2889 26.5157C23.5066 25.8314 23.701 24.9993 23.6932 23.9729C23.6777 22.9387 23.53 21.749 23.1023 20.3493C22.6746 18.9496 21.9359 17.3167 20.8472 15.4971C19.7353 17.6899 19.1521 19.5406 18.9577 21.1113C18.7322 22.6665 18.8566 23.9185 19.1521 24.9138C19.7275 26.8967 20.8861 27.8454 21.5704 28.2886C21.0805 27.2466 20.4351 25.2171 21.1116 21.6401Z" fill="url(#paint23_linear_250_9340)"/>
    <path d="M28.2353 13.9348C29.0129 17.1618 28.8651 19.0591 28.6396 20.1944C29.1528 19.5801 30.0315 18.4526 30.3192 16.5164C30.467 15.5522 30.5136 14.4246 30.3037 13.0327C30.0937 11.6408 29.6583 10.0234 28.8884 8.14941C26.1668 11.913 25.6847 14.7901 25.9102 16.7108C26.1668 18.6703 27.1077 19.7357 27.6909 20.2566C27.5276 19.7201 27.3877 18.9658 27.411 17.9161C27.4421 16.8819 27.6832 15.591 28.2353 13.9348Z" fill="url(#paint24_linear_250_9340)"/>
    <path d="M36.0578 7.76019C36.3455 10.8939 35.9178 12.6357 35.5446 13.6699C36.1122 13.1645 37.1076 12.2469 37.6441 10.4662C38.2195 8.73997 38.3906 6.16611 37.4653 2.44141C34.4171 5.57513 33.5695 8.19565 33.4917 10.0152C33.4528 11.8815 34.1838 13.0245 34.6503 13.5922C34.5726 13.0634 34.5493 12.3325 34.7203 11.3605C34.9147 10.4118 35.3035 9.22208 36.0578 7.76019Z" fill="url(#paint25_linear_250_9340)"/>
    <path d="M176.221 124.439C183.888 124.743 187.519 123.39 194.813 120.894C202.123 118.405 208.802 114.634 214.665 109.688C220.544 104.758 225.404 98.8253 229.105 92.0602C232.814 85.3339 235.217 78.0556 236.236 70.4118C237.262 62.7991 236.866 55.1397 235.062 47.6514C233.25 40.1243 230.124 33.1259 225.762 26.8351C221.384 20.5054 215.941 15.1089 209.564 10.801C209.37 10.6688 209.113 10.7232 208.981 10.9176C208.849 11.112 208.903 11.3686 209.098 11.5008C215.381 15.7543 220.762 21.0731 225.077 27.3172C229.377 33.5147 232.465 40.4275 234.253 47.8458C236.034 55.233 236.422 62.7913 235.412 70.2951C234.409 77.8301 232.037 85.0151 228.374 91.648C224.712 98.3198 219.922 104.175 214.129 109.043C208.343 113.918 201.757 117.635 194.549 120.093C187.356 122.558 183.826 123.895 176.26 123.592" fill="url(#paint26_linear_250_9340)"/>
    <path d="M226.819 44.3308C230.7 44.8363 232.745 46.2049 233.693 47.1924C233.484 46.2515 232.745 44.5874 230.824 43.32C229.829 42.6979 228.554 42.1847 226.928 41.9358C225.264 41.7026 223.25 41.7414 220.816 42.1847C223.608 45.3106 226.081 47.0136 228.235 47.7912C230.365 48.5843 232.154 48.4288 233.087 48.1877C231.742 47.8145 229.634 46.7336 226.812 44.3308H226.819Z" fill="url(#paint27_linear_250_9340)"/>
    <path d="M228.958 53.9504C230.895 54.5569 232.294 55.319 233.313 56.0654C234.347 56.8119 235.008 57.5429 235.397 58.1416C235.381 57.885 235.35 57.5818 235.288 57.2396C235.202 56.8975 235.086 56.5165 234.915 56.1199C234.573 55.319 234.059 54.4247 233.134 53.6005C231.369 51.9364 228.204 50.5445 222.986 50.6222C225.35 54.3158 227.504 56.532 229.635 57.7295C231.672 58.9503 233.554 59.1292 234.573 59.0592C233.927 58.7326 233.111 58.2116 232.178 57.3951C231.688 56.9908 231.174 56.5087 230.638 55.9488C230.109 55.3889 229.534 54.7435 228.904 54.0204C228.873 53.9893 228.919 53.9348 228.958 53.9504Z" fill="url(#paint28_linear_250_9340)"/>
    <path d="M228.826 64.2373C229.805 64.7583 230.653 65.2948 231.376 65.8314C232.076 66.3679 232.651 66.8967 233.133 67.4099C234.105 68.4363 234.658 69.3694 234.945 70.0926C235.031 69.5483 235.07 68.7629 234.86 67.8454C234.673 66.92 234.3 65.8702 233.491 64.8049C233.102 64.2762 232.62 63.7474 232.045 63.2342C231.454 62.721 230.731 62.2311 229.906 61.7801C229.074 61.3291 228.126 60.9092 227.037 60.5515C225.941 60.1938 224.689 59.8905 223.289 59.6572C225.062 63.9574 226.905 66.7256 228.911 68.4363C230.816 70.1471 232.776 70.7458 233.872 70.8935C233.242 70.4037 232.48 69.6649 231.648 68.5763C230.754 67.4877 229.875 66.0647 228.826 64.2451V64.2373Z" fill="url(#paint29_linear_250_9340)"/>
    <path d="M226.772 75.0464C230.45 78.0868 231.578 80.855 231.873 82.4958C232.286 81.4071 232.698 79.2143 231.539 76.6482C230.94 75.3652 230.007 74.0199 228.436 72.7136C226.889 71.415 224.805 70.1786 221.959 69.1133C222.923 73.9033 224.253 77.1848 225.94 79.4009C227.573 81.6093 229.486 82.6824 230.598 83.079C229.486 81.7882 228.11 79.261 226.772 75.0386V75.0464Z" fill="url(#paint30_linear_250_9340)"/>
    <path d="M222.014 85.8316C223.592 87.8533 224.541 89.704 225.07 91.2437C225.567 92.7755 225.707 94.043 225.668 94.9606C226.018 94.4241 226.407 93.592 226.679 92.5423C226.959 91.4925 226.99 90.1473 226.71 88.6698C226.376 87.169 225.661 85.4972 224.323 83.7632C222.947 82.0136 221.011 80.2251 218.227 78.4521C218.172 81.0571 218.343 83.3277 218.654 85.2639C218.989 87.2157 219.471 88.8487 220.093 90.2172C221.337 92.9699 223.04 94.5485 224.144 95.2639C223.724 94.4396 223.312 93.2965 222.916 91.718C222.721 90.9326 222.566 90.0695 222.418 89.0897C222.247 88.0944 222.123 87.0213 222.021 85.8316H222.014Z" fill="url(#paint31_linear_250_9340)"/>
    <path d="M214.743 95.9712C215.925 98.475 216.368 100.543 216.547 102.285C216.679 103.988 216.477 105.295 216.22 106.251C216.702 105.777 217.332 105.046 217.876 104.035C218.39 102.993 218.825 101.679 218.864 100.061C218.887 98.4362 218.592 96.5699 217.597 94.4471C217.107 93.3895 216.485 92.2931 215.66 91.1423C214.821 89.9837 213.81 88.7862 212.589 87.542C212.301 88.8795 212.013 90.0847 211.85 91.2667C211.64 92.4175 211.523 93.514 211.461 94.5482C211.376 95.559 211.376 96.531 211.43 97.4408C211.469 98.3351 211.562 99.1671 211.71 99.9447C212.013 101.508 212.48 102.814 213.001 103.84C213.53 104.875 214.113 105.645 214.572 106.15C214.362 105.209 214.214 103.91 214.214 102.208C214.23 100.528 214.401 98.4517 214.743 95.9634V95.9712Z" fill="url(#paint32_linear_250_9340)"/>
    <path d="M204.705 104.378C205.747 110.085 204.541 113.6 203.468 115.334C204.743 114.696 206.897 112.978 207.869 109.704C208.803 106.376 208.453 101.563 204.627 95.1709C204.005 96.4539 203.406 97.6048 202.939 98.7712C202.426 99.8676 202.053 101.011 201.695 102.014C201.034 104.098 200.645 105.941 200.544 107.644C200.272 110.972 201.12 113.522 201.804 114.805C201.843 112.706 202.683 109.315 204.697 104.378H204.705Z" fill="url(#paint33_linear_250_9340)"/>
    <path d="M192.123 110.155C191.882 113.281 191.166 115.613 190.342 117.417C189.494 119.159 188.546 120.372 187.729 121.111C188.491 120.971 189.525 120.574 190.645 119.906C191.205 119.564 191.765 119.089 192.325 118.545C192.877 118.008 193.413 117.347 193.888 116.546C195.816 113.444 196.749 108.257 194.541 100.645C190.591 105.046 188.165 108.926 186.959 112.301C185.746 115.683 185.847 118.522 186.182 120.069C186.524 118.996 187.138 117.674 188.11 115.987C189.082 114.33 190.427 112.417 192.13 110.147L192.123 110.155Z" fill="url(#paint34_linear_250_9340)"/>
    <path d="M223.709 35.6991C227.31 35.5747 229.293 36.5156 230.342 37.2388C229.954 36.4534 229.122 35.0304 227.146 34.1983C226.182 33.7707 224.969 33.4907 223.437 33.5141C221.905 33.5374 220.133 33.8406 217.986 34.5871C218.741 35.2014 219.44 35.7535 220.148 36.2045C220.84 36.6633 221.47 37.0677 222.108 37.3865C223.391 38.0164 224.487 38.4285 225.529 38.6151C227.597 38.9961 229.137 38.584 229.954 38.2263C229.339 38.1485 228.492 37.9697 227.45 37.5731C226.416 37.1765 225.187 36.5622 223.717 35.6913L223.709 35.6991Z" fill="url(#paint35_linear_250_9340)"/>
    <path d="M219.463 28.3511C221.08 28.0556 222.402 28.0401 223.452 28.1645C224.471 28.3045 225.225 28.5689 225.746 28.8332C225.52 28.4911 225.163 28.0401 224.626 27.5969C224.09 27.1614 223.335 26.7571 222.394 26.5004C221.469 26.2361 220.295 26.1583 218.895 26.3916C217.496 26.6249 215.917 27.1225 214.043 28.1101C215.59 29.0665 216.998 29.7042 218.226 30.1474C219.486 30.5673 220.583 30.7617 221.539 30.7928C223.467 30.8628 224.852 30.2407 225.536 29.7975C224.338 29.8752 222.394 29.5642 219.455 28.3589L219.463 28.3511Z" fill="url(#paint36_linear_250_9340)"/>
    <path d="M213.833 21.6091C216.78 20.5982 218.771 20.7771 219.805 21.127C219.315 20.5282 218.149 19.6418 216.314 19.4318C215.396 19.3307 214.269 19.4474 213.001 19.8517C211.734 20.2561 210.295 20.987 208.678 22.1768C211.897 23.522 214.323 23.8408 216.158 23.592C217.97 23.3743 219.168 22.5889 219.743 22.0679C219.199 22.1845 218.444 22.2545 217.48 22.1923C216.5 22.1379 215.272 21.9901 213.825 21.6091H213.833Z" fill="url(#paint37_linear_250_9340)"/>
    <path d="M207.519 16.0576C210.131 14.7046 212.029 14.5724 213.047 14.759C212.503 14.2691 211.274 13.6237 209.533 13.6704C207.752 13.7792 205.45 14.6268 202.752 17.294C205.979 18.1182 208.296 18.0871 209.991 17.5817C211.655 17.1229 212.659 16.2131 213.125 15.6377C212.635 15.8243 211.943 15.9954 211.026 16.0809C210.093 16.1898 208.926 16.2053 207.519 16.0498V16.0576Z" fill="url(#paint38_linear_250_9340)"/>
    <path d="M203.865 7.84541C205.241 8.1098 206.26 8.54525 207.03 8.97293C207.799 9.39284 208.32 9.81274 208.631 10.186C208.507 9.50948 208.041 8.37418 206.703 7.32442C205.373 6.30577 203.079 5.46596 199.611 5.74589C201.68 8.56081 203.383 9.8594 204.86 10.4815C206.306 11.1191 207.551 10.9714 208.188 10.8547C207.745 10.6837 207.138 10.4348 206.415 9.96826C205.7 9.48615 204.868 8.79409 203.865 7.83764V7.84541Z" fill="url(#paint39_linear_250_9340)"/>
    <path d="M239.269 40.0621C236.617 43.2192 235.63 45.4198 235.241 46.7961C235.016 45.8241 234.736 44.059 235.505 41.7417C235.855 40.5909 236.477 39.2845 237.496 37.8382C238.476 36.4074 239.844 34.8289 241.75 33.1182C242.776 38.989 241.641 42.5271 240.272 44.5489C238.865 46.5784 237.193 47.2005 236.252 47.426C237.224 46.4385 238.701 44.4089 239.269 40.0621Z" fill="url(#paint40_linear_250_9340)"/>
    <path d="M242.379 51.9051C240.784 53.2737 239.602 54.4712 238.755 55.4898C237.923 56.5085 237.417 57.3638 237.075 58.0248C237.06 57.7604 237.052 57.4494 237.075 57.0839C237.083 56.7262 237.122 56.3219 237.2 55.8786C237.355 54.9922 237.713 53.958 238.288 52.8304C239.509 50.5598 241.795 47.8616 246.36 45C246.414 51.3297 244.478 54.8211 242.736 56.6562C240.878 58.5069 239.027 58.8257 238.008 58.8802C238.607 58.468 239.369 57.8148 240.178 56.7262C240.567 56.1819 240.963 55.5287 241.36 54.7511C241.764 53.9657 242.145 53.0482 242.472 51.9751C242.487 51.9284 242.433 51.8818 242.394 51.9129L242.379 51.9051Z" fill="url(#paint41_linear_250_9340)"/>
    <path d="M243.834 64.8131C242.808 65.3963 241.921 65.9484 241.151 66.4694C240.358 66.9904 239.689 67.4881 239.122 67.9546C237.994 68.8878 237.263 69.6965 236.75 70.3341C236.836 69.7742 236.999 68.9888 237.341 68.079C237.699 67.1693 238.282 66.1428 239.129 65.0542C239.565 64.5099 240.086 63.95 240.708 63.3901C241.322 62.8225 242.014 62.2548 242.839 61.6794C243.663 61.104 244.604 60.5286 245.677 59.9609C246.742 59.3933 247.932 58.8334 249.285 58.2891C248.087 65.1397 245.296 68.4834 243.049 70.0775C240.685 71.6638 238.647 71.5938 237.551 71.4383C238.282 71.1272 239.246 70.5751 240.35 69.5643C241.392 68.5378 242.683 67.0526 243.826 64.8209L243.834 64.8131Z" fill="url(#paint42_linear_250_9340)"/>
    <path d="M242.348 78.9262C239.976 79.7116 238.102 80.4581 236.726 81.189C235.365 81.92 234.354 82.5887 233.709 83.1564C234.129 82.0055 235.078 80.0382 237.379 78.1564C238.515 77.2 240.054 76.2668 241.99 75.4037C243.958 74.5483 246.431 73.7785 249.471 73.1953C246.749 80.2093 243.071 83.1175 240.334 84.2839C237.519 85.427 235.412 84.8982 234.308 84.4938C235.956 84.1517 238.872 83.1097 242.34 78.934L242.348 78.9262Z" fill="url(#paint43_linear_250_9340)"/>
    <path d="M237.706 93.6546C234.938 93.9112 232.815 94.3 231.158 94.7433C229.471 95.1632 228.305 95.6686 227.473 96.1118C227.83 95.552 228.367 94.7821 229.207 94.0045C230.062 93.2269 231.096 92.3716 232.589 91.6484C234.028 90.9019 235.855 90.241 238.165 89.7822C240.443 89.3078 243.273 89.0512 246.672 89.129C244.378 92.5893 242.068 94.8988 239.922 96.3995C237.799 97.9159 235.863 98.6313 234.23 98.919C232.613 99.2145 231.244 99.0589 230.163 98.7635C229.082 98.468 228.281 98.0247 227.745 97.6593C228.678 97.6981 229.992 97.6048 231.633 97.045C232.457 96.765 233.398 96.384 234.409 95.8319C235.404 95.272 236.508 94.5644 237.698 93.6468L237.706 93.6546Z" fill="url(#paint44_linear_250_9340)"/>
    <path d="M228.912 107.923C226.043 107.55 223.694 107.364 221.906 107.426C220.071 107.441 218.725 107.636 217.769 107.892C218.267 107.395 219.029 106.757 220.094 106.174C221.128 105.56 222.473 104.992 224.153 104.595C225.817 104.175 227.893 103.973 230.358 104.035C231.602 104.074 232.979 104.199 234.464 104.416C235.941 104.626 237.551 104.937 239.301 105.381C237.722 106.936 236.128 108.133 234.674 109.121C233.181 110.077 231.797 110.801 230.506 111.322C229.2 111.827 228.01 112.154 226.937 112.348C225.84 112.519 224.861 112.55 223.982 112.496C222.24 112.387 220.879 111.889 219.845 111.306C218.811 110.723 218.103 110.062 217.652 109.556C218.609 109.844 219.97 110.07 221.805 109.914C223.663 109.774 226.019 109.253 228.904 107.923H228.912Z" fill="url(#paint45_linear_250_9340)"/>
    <path d="M216.127 120.497C210.334 118.11 206.765 117.504 204.603 117.449C205.948 116.757 208.397 115.692 212.107 115.793C215.777 115.832 220.8 116.967 227.596 120.544C225.536 121.765 223.553 122.597 221.772 123.25C219.945 123.833 218.343 124.269 216.834 124.432C213.872 124.836 211.531 124.486 209.766 123.927C206.189 122.69 204.704 120.443 204.035 119.16C204.929 119.696 206.275 120.311 208.226 120.661C209.198 120.824 210.326 120.933 211.648 120.948C212.939 120.917 214.439 120.808 216.119 120.497H216.127Z" fill="url(#paint46_linear_250_9340)"/>
    <path d="M199.355 130.077C196.688 128.063 194.472 126.57 192.652 125.583C190.825 124.525 189.386 123.981 188.282 123.631C189.075 123.475 190.179 123.25 191.579 123.304C192.279 123.32 193.025 123.343 193.857 123.475C194.689 123.607 195.576 123.802 196.525 124.066C200.35 125.225 205.21 127.698 211.322 133.32C206.283 134.68 202.154 134.782 198.958 134.377C197.349 134.144 195.957 133.778 194.767 133.359C193.57 132.9 192.567 132.363 191.727 131.803C188.375 129.525 187.504 126.726 187.193 125.217C187.963 126.034 189.176 127.091 191.089 127.993C193.01 128.918 195.677 129.789 199.347 130.077H199.355Z" fill="url(#paint47_linear_250_9340)"/>
    <path d="M234.206 30.0385C232.325 33.2422 231.71 35.3884 231.617 36.6637C231.213 35.855 230.769 34.2687 231.065 32.1069C231.236 31.0105 231.609 29.743 232.278 28.32C232.954 26.897 233.996 25.2641 235.451 23.4756C235.886 24.7353 236.158 25.9095 236.36 26.9515C236.547 28.009 236.594 28.9732 236.594 29.8208C236.601 31.516 236.213 32.8612 235.762 33.8721C234.844 35.8861 233.405 36.7181 232.605 37.068C232.986 36.5393 233.398 35.7772 233.716 34.6419C234.043 33.5066 234.284 31.9981 234.191 30.0308L234.206 30.0385Z" fill="url(#paint48_linear_250_9340)"/>
    <path d="M228.359 21.6401C227.698 23.2497 227.333 24.5483 227.131 25.5981C226.913 26.6634 226.874 27.4721 226.913 28.0709C226.68 27.7209 226.4 27.2077 226.182 26.5157C225.964 25.8314 225.77 24.9993 225.778 23.9729C225.793 22.9387 225.941 21.749 226.369 20.3493C226.796 18.9496 227.535 17.3167 228.624 15.4971C229.736 17.6899 230.319 19.5406 230.513 21.1113C230.739 22.6665 230.614 23.9185 230.319 24.9138C229.743 26.8967 228.585 27.8454 227.9 28.2886C228.39 27.2466 229.036 25.2171 228.359 21.6401Z" fill="url(#paint49_linear_250_9340)"/>
    <path d="M221.236 13.9348C220.458 17.1618 220.606 19.0591 220.832 20.1944C220.318 19.5801 219.44 18.4526 219.152 16.5164C219.004 15.5522 218.958 14.4246 219.168 13.0327C219.378 11.6408 219.813 10.0234 220.583 8.14941C223.304 11.913 223.787 14.7901 223.561 16.7108C223.304 18.6703 222.363 19.7357 221.78 20.2566C221.944 19.7201 222.084 18.9658 222.06 17.9161C222.029 16.8819 221.788 15.591 221.236 13.9348Z" fill="url(#paint50_linear_250_9340)"/>
    <path d="M213.413 7.76019C213.125 10.8939 213.553 12.6357 213.926 13.6699C213.359 13.1645 212.363 12.2469 211.827 10.4662C211.251 8.73997 211.08 6.16611 212.006 2.44141C215.054 5.57513 215.902 8.19565 215.979 10.0152C216.018 11.8815 215.287 13.0245 214.821 13.5922C214.898 13.0634 214.922 12.3325 214.751 11.3605C214.556 10.4118 214.167 9.22208 213.413 7.76019Z" fill="url(#paint51_linear_250_9340)"/>
    <path d="M75.7235 107.185V104.618L82.4497 102.27V54.5177H72.5664V51.0729L95.7855 41.8506H98.6082V102.27L105.334 104.618V107.185H75.7235Z" fill="url(#paint52_linear_250_9340)"/>
    <path d="M98.1492 42.3092V102.597L104.875 104.945V106.726H76.1898V104.945L82.9161 102.597V54.0587H73.0328V51.3838L95.8787 42.3092H98.1492ZM99.0668 41.3916H95.6998L95.5365 41.4538L72.6906 50.5284L72.1074 50.7617V54.984H81.9907V101.943L75.8866 104.074L75.2723 104.292V107.651H105.801V104.292L105.187 104.074L99.0824 101.943V41.3916H99.0668Z" fill="white"/>
    <path d="M127.403 111.99C126.641 111.99 125.84 111.967 124.938 111.928C122.932 111.843 121.61 111.337 120.894 110.396C120.311 109.634 120.163 108.592 120.459 107.317L124.409 86.0029H117.815L108.701 86.5395L107.107 80.7775L120.264 81.3996H146.843L150.054 77.5971L150.326 77.6593C153.421 78.328 156.672 80.4898 158.056 82.7992C158.67 83.8334 158.872 84.8288 158.631 85.6764L158.538 86.0107H141.19L137.356 107.216C136.493 111.462 131.594 111.998 127.418 111.998L127.403 111.99ZM164.502 110.754C161.415 110.754 159.852 109.805 159.852 107.931C160.085 83.2269 159.969 61.3764 159.487 41.1277V40.6533H159.945C164.992 40.6533 169.479 41.221 174.059 42.434C175.692 42.8617 176.998 44.1681 176.905 45.2723C176.858 45.9488 176.586 46.4853 176.29 47.0607C176.057 47.5195 175.808 48.0016 175.653 48.6159L175.357 75.3032L175.653 103.577C175.746 109.595 169.953 110.567 164.899 110.746C164.759 110.746 164.634 110.746 164.502 110.746V110.754ZM132.099 76.5707C118.064 76.5707 109.689 70.4743 109.689 60.2722V58.2815C109.689 48.0327 118.064 41.913 132.099 41.913C146.135 41.913 154.51 47.8772 154.51 58.2815V60.2722C154.51 70.4743 146.135 76.5707 132.099 76.5707ZM132.099 46.6564C127.387 46.6564 125.194 50.2334 125.194 57.9083V60.6376C125.194 68.3126 127.387 71.8895 132.099 71.8895C136.812 71.8895 139.005 68.3126 139.005 60.6376V57.9083C139.005 50.2334 136.812 46.6564 132.099 46.6564Z" fill="url(#paint53_linear_250_9340)"/>
    <path d="M159.946 41.1197C164.806 41.1197 169.231 41.6329 173.943 42.8848C175.343 43.2503 176.525 44.3545 176.447 45.241C176.377 46.3452 175.561 47.0839 175.195 48.5535L174.9 75.2952L175.195 103.584C175.265 108.444 171.292 110.069 164.884 110.287C164.752 110.287 164.627 110.287 164.503 110.287C161.665 110.287 160.312 109.478 160.312 107.923C160.53 84.6419 160.46 62.7681 159.946 41.1119M132.1 42.3716C146.027 42.3716 154.052 48.0403 154.052 58.2813V60.272C154.052 70.4352 145.436 76.1117 132.1 76.1117C118.765 76.1117 110.149 70.443 110.149 60.272V58.2813C110.149 48.0403 118.765 42.3716 132.1 42.3716ZM132.1 72.3481C137.186 72.3481 139.464 68.3668 139.464 60.6374V57.9158C139.464 50.1087 137.178 46.2052 132.1 46.2052C127.023 46.2052 124.737 50.1087 124.737 57.9158V60.6374C124.737 68.3746 127.023 72.3481 132.1 72.3481ZM150.219 78.0946C154.635 79.051 158.912 82.9546 158.173 85.5362H140.786L136.883 107.122C136.183 110.575 132.536 111.531 127.396 111.531C126.611 111.531 125.794 111.508 124.947 111.469C121.634 111.321 120.304 109.999 120.895 107.418L124.947 85.5362H117.8L109.037 86.0494L107.707 81.2594L120.227 81.8504H147.038L150.203 78.0946M159.946 40.1943H159.005L159.029 41.1352C159.511 61.3839 159.628 83.2267 159.394 107.916C159.394 109.424 160.281 111.205 164.503 111.205C164.635 111.205 164.767 111.205 164.907 111.205C169.775 111.034 176.214 110.062 176.12 103.569L175.825 75.2874L176.12 48.678C176.268 48.1336 176.494 47.6982 176.711 47.2705C177.015 46.6795 177.326 46.073 177.372 45.3032C177.497 43.818 175.817 42.426 174.184 41.9984C169.565 40.7698 165.04 40.2021 159.954 40.2021L159.946 40.1943ZM132.1 41.4463C117.777 41.4463 109.231 47.7371 109.231 58.2813V60.272C109.231 70.7696 117.785 77.0293 132.1 77.0293C146.416 77.0293 154.97 70.7618 154.97 60.272V58.2813C154.97 47.5815 146.634 41.4463 132.1 41.4463ZM132.1 71.4305C129.332 71.4305 125.654 70.3108 125.654 60.6374V57.9158C125.654 48.2425 129.332 47.1228 132.1 47.1228C134.869 47.1228 138.547 48.2425 138.547 57.9158V60.6374C138.547 70.3108 134.869 71.4305 132.1 71.4305ZM149.869 77.0759L149.511 77.5036L146.618 80.9328H120.258L107.754 80.3418L106.486 80.2796L106.828 81.5082L108.158 86.2982L108.36 87.0136L109.107 86.967L117.847 86.4538H123.858L120.009 107.247C119.69 108.631 119.869 109.797 120.538 110.676C121.338 111.734 122.777 112.293 124.923 112.387C125.833 112.426 126.649 112.449 127.412 112.449C131.758 112.449 136.867 111.866 137.8 107.301L141.572 86.4538H158.881L159.075 85.785C159.355 84.813 159.138 83.6933 158.453 82.5502C156.984 80.1008 153.687 77.9002 150.429 77.1925L149.884 77.0759H149.869Z" fill="white"/>
    <path d="M74.5267 23.4296H72.8316V16.96H79.2312V18.3596H74.5267V21.5167C74.8766 21.1979 75.5454 20.7702 76.4941 20.7702C78.2825 20.7702 79.3012 21.7033 79.3012 23.5929V26.5322C79.3012 28.2974 77.7771 29.2849 75.9886 29.2849C74.2001 29.2849 72.7305 28.2974 72.7305 26.5322V25.5602H74.4256V26.5322C74.4256 27.3331 75.1177 27.8852 75.9886 27.8852C76.8595 27.8852 77.5671 27.3409 77.5671 26.5322V23.5151C77.5671 22.6053 76.9528 22.0999 76.0819 22.0999C75.2654 22.0999 74.5423 22.6209 74.5345 23.2663V23.4374L74.5267 23.4296Z" fill="#252D38"/>
    <path d="M85.1481 19.4246C85.1481 18.6237 84.6271 18.0716 83.6939 18.0716C82.7608 18.0716 82.2787 18.6159 82.2787 19.4246V20.3033H80.568V19.4246C80.568 17.6594 81.851 16.6719 83.6939 16.6719C85.5369 16.6719 86.8899 17.6594 86.8899 19.4246V20.0389C86.8899 21.5785 86.1434 22.325 84.4871 23.9424C82.8852 25.5054 82.2709 26.0031 82.2709 26.8584V27.5816H86.9599V28.9813H80.4902V26.8584C80.4902 25.7465 80.9024 24.9844 83.0563 23.0637C84.697 21.6096 85.1558 21.0187 85.1558 20.0467V19.4324L85.1481 19.4246Z" fill="#252D38"/>
    <path d="M94.6047 20.0544H92.9095V19.3313C92.9095 18.5459 92.2797 18.0249 91.401 18.0249C90.5223 18.0249 89.8924 18.5459 89.8924 19.3313V22.2006C90.2657 21.8429 90.9111 21.4386 91.8442 21.4386C93.6482 21.4386 94.6202 22.4106 94.6202 24.1913V26.5318C94.6202 28.297 93.205 29.2845 91.4165 29.2845C89.628 29.2845 88.1973 28.297 88.1973 26.5318V19.4246C88.1973 17.6594 89.6125 16.6719 91.401 16.6719C93.1895 16.6719 94.6047 17.6594 94.6047 19.4246V20.0544ZM89.8924 26.6096C89.8924 27.395 90.5378 27.9315 91.4165 27.9315C92.2952 27.9315 92.9251 27.395 92.9251 26.6096V24.098C92.9251 23.3126 92.3263 22.7605 91.4399 22.7605C90.5534 22.7605 89.9002 23.2815 89.8924 24.0591V26.6096Z" fill="#252D38"/>
    <path d="M101.081 29.2616V25.5758H95.9336V23.9972H108.119V25.5758H102.971V29.2616H101.074H101.081ZM96.3924 21.5245C99.1451 21.4856 100.91 19.8837 101.019 18.7485H96.5323V17.1699H107.543V18.7485H103.041C103.173 19.8837 104.923 21.4856 107.675 21.5245V23.0719C104.923 23.033 102.784 21.8122 102.038 20.2959C101.291 21.82 99.1529 23.033 96.4002 23.0719V21.5245H96.3924Z" fill="#252D38"/>
    <path d="M109.604 22.5659C112.947 22.4882 114.883 20.9874 114.883 18.6235H109.673V17.0994H116.687V18.1258C116.687 22.3715 113.429 24.0045 109.604 24.0978V22.5581V22.5659ZM110.288 29.1211V24.8443H112.17V27.5737H120.84V29.1211H110.288ZM118.701 25.8629V16.8428H120.575V20.2253H122.286V21.8583H120.575V25.8629H118.701Z" fill="#252D38"/>
    <path d="M125.32 24.0126V19.7513H129.372V18.616H125.32V17.1697H131.067V21.1121H127.031V22.4107L131.533 22.1152V23.6004L125.32 24.0126ZM128.244 24.6658H134.48C135.927 24.6658 137.062 25.5989 137.062 26.9675C137.062 28.336 135.927 29.2691 134.48 29.2691H128.244C126.813 29.2691 125.678 28.3049 125.678 26.9675C125.678 25.63 126.813 24.6658 128.244 24.6658ZM134.107 27.7917C134.721 27.7917 135.188 27.4962 135.188 26.9597C135.188 26.3998 134.721 26.1199 134.107 26.1199H128.602C128.011 26.1199 127.56 26.3998 127.56 26.9597C127.56 27.5195 128.011 27.7917 128.602 27.7917H134.107ZM132.171 24.277V16.9131H133.843V19.5025H135.235V16.9131H136.922V24.277H135.235V21.0966H133.843V24.277H132.171Z" fill="#252D38"/>
    <path d="M138.648 19.0515V17.4107H146.167V18.7093C146.167 24.6113 143.244 27.9006 138.539 28.8337V27.0996C140.934 26.4853 142.614 25.2023 143.539 23.235H138.811V21.6564H144.076C144.262 20.8711 144.356 20.0002 144.356 19.0515H138.648ZM148.181 16.9131H150.079V29.1914H148.181V16.9131Z" fill="#252D38"/>
    <path d="M152.146 23.9971V17.1697H158.772V18.6627H154.013V22.2552L159.72 21.7109V23.235L152.146 23.9971ZM152.434 27.6051C155.358 27.6051 157.061 26.4309 157.061 25.1479V24.5336H158.958V25.1479C158.958 26.4309 160.653 27.6051 163.585 27.6051V29.1914C160.568 29.1914 158.772 28.1728 158.017 27.0375C157.255 28.1728 155.451 29.1914 152.442 29.1914V27.6051H152.434ZM161.066 25.0157V16.9209H162.94V19.9302H164.65V21.5321H162.94V25.0157H161.066Z" fill="#252D38"/>
    <path d="M174.883 16.9131H176.757V23.997H174.883V21.2288H171.625C170.396 22.9239 168.071 23.6704 165.334 23.7948V22.3952C167.177 22.3252 168.701 21.8742 169.665 21.0344H165.536V19.6347H170.614C170.723 19.3003 170.777 18.9504 170.777 18.5694H165.404V17.1775H172.55V18.1106C172.55 18.6705 172.48 19.1759 172.363 19.6502H174.891V16.9286L174.883 16.9131ZM166.011 29.1992V24.4558H176.749V29.1992H174.875V28.8104L166.003 29.1992H166.011ZM167.892 25.9255V27.6206L174.883 27.3563V25.9255H167.892Z" fill="#252D38"/>
    <path d="M81.1973 5.20237C82.457 5.0002 83.7167 4.0904 83.7167 2.37968V1.43879H81.3061V0.544548H87.2003V1.43879H84.7898V2.37968C84.7898 4.0904 86.0495 4.99242 87.3092 5.20237V6.18215C85.9406 5.94887 84.6109 5.24903 84.2532 3.98154C83.8878 5.24903 82.5581 5.94887 81.1973 6.18215V5.20237ZM82.0137 10.0002V6.80423H83.0791V9.09815H90.4896V9.99239H82.006L82.0137 10.0002ZM86.6949 3.56941V2.67517H89.2221V0.256836H90.2874V7.48852H89.2221V3.56941H86.6949Z" fill="#232C37"/>
    <path d="M91.7656 9.75111V8.85687L94.7127 8.65469V6.85066H95.778V8.58471L98.9817 8.37475V9.26899L91.7578 9.75888L91.7656 9.75111ZM91.9989 2.02954V1.1353H94.7127V0H95.778V1.1353H98.4918V2.02954H91.9989ZM93.7407 2.71382H96.7733C97.5976 2.71382 98.313 3.52253 98.313 4.54118C98.313 5.55984 97.5976 6.36854 96.7733 6.36854H93.7407C92.9164 6.36854 92.201 5.55984 92.201 4.54118C92.201 3.52253 92.9164 2.71382 93.7407 2.71382ZM96.369 5.46653C96.9055 5.46653 97.2477 5.00774 97.2477 4.53341C97.2477 4.05907 96.9055 3.60029 96.369 3.60029H94.145C93.6085 3.60029 93.2664 4.05907 93.2664 4.53341C93.2664 5.00774 93.6085 5.46653 94.145 5.46653H96.369ZM99.5183 9.99994V0.256608H100.584V4.25347H102.014V5.14771H100.584V9.99994H99.5183Z" fill="#232C37"/>
    <path d="M102.721 3.3672V2.50406C102.721 1.01885 103.949 0.249023 105.442 0.249023C106.477 0.249023 107.394 0.622271 107.853 1.34544H110.644V0.256799H111.71V5.97994H110.644V4.47139H107.876C107.425 5.23344 106.508 5.61446 105.442 5.61446C103.949 5.61446 102.721 4.86019 102.721 3.35942V3.3672ZM109.797 6.34541C110.971 6.34541 111.889 7.0919 111.889 8.19609C111.889 9.30029 110.971 10.0546 109.797 10.0546H105.139C103.973 10.0546 103.055 9.29251 103.055 8.19609C103.055 7.09968 103.973 6.34541 105.139 6.34541H109.797ZM103.786 3.32054C103.786 4.25366 104.501 4.72022 105.45 4.72022C106.399 4.72022 107.099 4.25366 107.099 3.32054V2.55072C107.099 1.6176 106.383 1.14326 105.45 1.14326C104.517 1.14326 103.786 1.62538 103.786 2.55072V3.32054ZM109.735 9.15254C110.357 9.15254 110.823 8.77929 110.823 8.18832C110.823 7.59734 110.357 7.23965 109.735 7.23965H105.209C104.602 7.23965 104.128 7.6129 104.128 8.18832C104.128 8.76374 104.595 9.15254 105.209 9.15254H109.735ZM110.644 2.23968H108.156C108.164 2.32522 108.164 2.41075 108.164 2.49629V3.35942C108.164 3.43718 108.164 3.49939 108.156 3.56938H110.644V2.2319V2.23968Z" fill="#232C37"/>
    <path d="M121.307 0.256836H122.372V10.0002H121.307V5.27236H118.795V7.20858C118.795 8.70157 117.644 9.72023 116.097 9.72023C114.549 9.72023 113.398 8.70157 113.398 7.20858V2.8618C113.398 1.3688 114.549 0.350148 116.097 0.350148C117.644 0.350148 118.795 1.3688 118.795 2.8618V4.37034H121.307V0.256836ZM117.73 2.80736C117.73 1.87424 117.061 1.24439 116.097 1.24439C115.132 1.24439 114.464 1.87424 114.464 2.80736V7.24746C114.464 8.19613 115.14 8.81044 116.097 8.81044C117.053 8.81044 117.73 8.20391 117.73 7.24746V2.80736Z" fill="#232C37"/>
    <path d="M126.99 9.75111V8.85687L129.937 8.65469V6.85066H131.003V8.58471L134.206 8.37475V9.26899L126.99 9.75888V9.75111ZM127.224 2.02954V1.1353H129.937V0H131.003V1.1353H133.716V2.02954H127.224ZM128.965 2.71382H131.998C132.822 2.71382 133.538 3.52253 133.538 4.54118C133.538 5.55984 132.822 6.36854 131.998 6.36854H128.965C128.141 6.36854 127.426 5.55984 127.426 4.54118C127.426 3.52253 128.141 2.71382 128.965 2.71382ZM131.594 5.46653C132.13 5.46653 132.472 5.00774 132.472 4.53341C132.472 4.05907 132.13 3.60029 131.594 3.60029H129.37C128.833 3.60029 128.491 4.05907 128.491 4.53341C128.491 5.00774 128.833 5.46653 129.37 5.46653H131.594ZM134.743 9.99994V0.256608H135.808V4.25347H137.239V5.14771H135.808V9.99994H134.743Z" fill="#232C37"/>
    <path d="M137.775 4.60362C139.082 4.17594 140.357 3.0562 140.357 1.5632V0.373476H141.422V1.55543C141.422 2.99399 142.705 4.07485 144.004 4.49476V5.47453C142.659 5.10906 141.267 4.18372 140.886 3.07175C140.497 4.23815 139.089 5.1946 137.768 5.5834V4.60362H137.775ZM140.365 6.40765H144.743C145.917 6.40765 146.834 7.14637 146.834 8.22724C146.834 9.3081 145.917 10.0546 144.743 10.0546H140.365C139.198 10.0546 138.281 9.3081 138.281 8.22724C138.281 7.14637 139.198 6.40765 140.365 6.40765ZM144.68 9.15258C145.303 9.15258 145.769 8.78711 145.769 8.21946C145.769 7.65181 145.303 7.30189 144.68 7.30189H140.427C139.82 7.30189 139.346 7.66736 139.346 8.21946C139.346 8.77156 139.813 9.15258 140.427 9.15258H144.68ZM145.481 6.0033V0.256836H146.547V2.39524H147.915V3.28948H146.547V6.0033H145.481Z" fill="#232C37"/>
    <path d="M148.615 3.3672V2.50406C148.615 1.01885 149.844 0.249023 151.337 0.249023C152.371 0.249023 153.289 0.622272 153.747 1.34544H156.539V0.256799H157.604V5.97994H156.539V4.47139H153.771C153.32 5.23344 152.402 5.61446 151.337 5.61446C149.844 5.61446 148.615 4.86019 148.615 3.35942V3.3672ZM155.699 6.34541C156.873 6.34541 157.791 7.0919 157.791 8.1961C157.791 9.30029 156.873 10.0546 155.699 10.0546H151.041C149.875 10.0546 148.957 9.29251 148.957 8.1961C148.957 7.09968 149.875 6.34541 151.041 6.34541H155.699ZM149.688 3.32054C149.688 4.25366 150.404 4.72022 151.352 4.72022C152.301 4.72022 153.001 4.25366 153.001 3.32054V2.55072C153.001 1.6176 152.286 1.14326 151.352 1.14326C150.419 1.14326 149.688 1.62538 149.688 2.55072V3.32054ZM155.637 9.15254C156.259 9.15254 156.726 8.77929 156.726 8.18832C156.726 7.59734 156.259 7.23965 155.637 7.23965H151.111C150.505 7.23965 150.03 7.6129 150.03 8.18832C150.03 8.76374 150.497 9.15254 151.111 9.15254H155.637ZM156.539 2.23968H154.051C154.058 2.32522 154.058 2.41075 154.058 2.49629V3.35942C154.058 3.43718 154.058 3.49939 154.051 3.56938H156.539V2.2319V2.23968Z" fill="#232C37"/>
    <path d="M167.207 0.256836H168.272V10.0002H167.207V5.27236H164.695V7.20858C164.695 8.70157 163.545 9.72023 161.997 9.72023C160.45 9.72023 159.299 8.70157 159.299 7.20858V2.8618C159.299 1.3688 160.45 0.350148 161.997 0.350148C163.545 0.350148 164.695 1.3688 164.695 2.8618V4.37034H167.207V0.256836ZM163.63 2.80736C163.63 1.87424 162.961 1.24439 161.997 1.24439C161.033 1.24439 160.364 1.87424 160.364 2.80736V7.24746C160.364 8.19613 161.041 8.81044 161.997 8.81044C162.954 8.81044 163.63 8.20391 163.63 7.24746V2.80736Z" fill="#232C37"/>
  </g>
  <defs>
    <linearGradient id="paint0_linear_250_9340" x1="69.9466" y1="135.07" x2="11.167" y2="10.9343" gradientUnits="userSpaceOnUse">
      <stop stop-color="#232C39"/>
      <stop offset="0.26" stop-color="#4A719B"/>
      <stop offset="0.4" stop-color="#699DCA"/>
      <stop offset="0.5" stop-color="#7EBAEA"/>
      <stop offset="0.76" stop-color="#456688"/>
      <stop offset="1" stop-color="#202B37"/>
    </linearGradient>
    <linearGradient id="paint1_linear_250_9340" x1="66.5995" y1="138.397" x2="7.08052" y2="12.7011" gradientUnits="userSpaceOnUse">
      <stop stop-color="#232C39"/>
      <stop offset="0.26" stop-color="#4A719B"/>
      <stop offset="0.4" stop-color="#699DCA"/>
      <stop offset="0.5" stop-color="#7EBAEA"/>
      <stop offset="0.76" stop-color="#456688"/>
      <stop offset="1" stop-color="#202B37"/>
    </linearGradient>
    <linearGradient id="paint2_linear_250_9340" x1="61.2642" y1="140.928" x2="1.75296" y2="15.2311" gradientUnits="userSpaceOnUse">
      <stop stop-color="#232C39"/>
      <stop offset="0.26" stop-color="#4A719B"/>
      <stop offset="0.4" stop-color="#699DCA"/>
      <stop offset="0.5" stop-color="#7EBAEA"/>
      <stop offset="0.76" stop-color="#456688"/>
      <stop offset="1" stop-color="#202B37"/>
    </linearGradient>
    <linearGradient id="paint3_linear_250_9340" x1="57.2685" y1="142.82" x2="-2.25038" y2="17.1245" gradientUnits="userSpaceOnUse">
      <stop stop-color="#232C39"/>
      <stop offset="0.26" stop-color="#4A719B"/>
      <stop offset="0.4" stop-color="#699DCA"/>
      <stop offset="0.5" stop-color="#7EBAEA"/>
      <stop offset="0.76" stop-color="#456688"/>
      <stop offset="1" stop-color="#202B37"/>
    </linearGradient>
    <linearGradient id="paint4_linear_250_9340" x1="54.8334" y1="143.966" x2="-4.67784" y2="18.2693" gradientUnits="userSpaceOnUse">
      <stop stop-color="#232C39"/>
      <stop offset="0.26" stop-color="#4A719B"/>
      <stop offset="0.4" stop-color="#699DCA"/>
      <stop offset="0.5" stop-color="#7EBAEA"/>
      <stop offset="0.76" stop-color="#456688"/>
      <stop offset="1" stop-color="#202B37"/>
    </linearGradient>
    <linearGradient id="paint5_linear_250_9340" x1="54.6515" y1="144.053" x2="-4.85975" y2="18.3564" gradientUnits="userSpaceOnUse">
      <stop stop-color="#232C39"/>
      <stop offset="0.26" stop-color="#4A719B"/>
      <stop offset="0.4" stop-color="#699DCA"/>
      <stop offset="0.5" stop-color="#7EBAEA"/>
      <stop offset="0.76" stop-color="#456688"/>
      <stop offset="1" stop-color="#202B37"/>
    </linearGradient>
    <linearGradient id="paint6_linear_250_9340" x1="56.6486" y1="143.111" x2="-2.87032" y2="17.4149" gradientUnits="userSpaceOnUse">
      <stop stop-color="#232C39"/>
      <stop offset="0.26" stop-color="#4A719B"/>
      <stop offset="0.4" stop-color="#699DCA"/>
      <stop offset="0.5" stop-color="#7EBAEA"/>
      <stop offset="0.76" stop-color="#456688"/>
      <stop offset="1" stop-color="#202B37"/>
    </linearGradient>
    <linearGradient id="paint7_linear_250_9340" x1="61.3718" y1="140.87" x2="1.86045" y2="15.1725" gradientUnits="userSpaceOnUse">
      <stop stop-color="#232C39"/>
      <stop offset="0.26" stop-color="#4A719B"/>
      <stop offset="0.4" stop-color="#699DCA"/>
      <stop offset="0.5" stop-color="#7EBAEA"/>
      <stop offset="0.76" stop-color="#456688"/>
      <stop offset="1" stop-color="#202B37"/>
    </linearGradient>
    <linearGradient id="paint8_linear_250_9340" x1="69.7332" y1="136.915" x2="10.2142" y2="11.2195" gradientUnits="userSpaceOnUse">
      <stop stop-color="#232C39"/>
      <stop offset="0.26" stop-color="#4A719B"/>
      <stop offset="0.4" stop-color="#699DCA"/>
      <stop offset="0.5" stop-color="#7EBAEA"/>
      <stop offset="0.76" stop-color="#456688"/>
      <stop offset="1" stop-color="#202B37"/>
    </linearGradient>
    <linearGradient id="paint9_linear_250_9340" x1="72.4821" y1="135.612" x2="12.9631" y2="9.91616" gradientUnits="userSpaceOnUse">
      <stop stop-color="#232C39"/>
      <stop offset="0.26" stop-color="#4A719B"/>
      <stop offset="0.4" stop-color="#699DCA"/>
      <stop offset="0.5" stop-color="#7EBAEA"/>
      <stop offset="0.76" stop-color="#456688"/>
      <stop offset="1" stop-color="#202B37"/>
    </linearGradient>
    <linearGradient id="paint10_linear_250_9340" x1="78.7798" y1="132.629" x2="19.2609" y2="6.93277" gradientUnits="userSpaceOnUse">
      <stop stop-color="#232C39"/>
      <stop offset="0.26" stop-color="#4A719B"/>
      <stop offset="0.4" stop-color="#699DCA"/>
      <stop offset="0.5" stop-color="#7EBAEA"/>
      <stop offset="0.76" stop-color="#456688"/>
      <stop offset="1" stop-color="#202B37"/>
    </linearGradient>
    <linearGradient id="paint11_linear_250_9340" x1="85.9757" y1="129.227" x2="26.4567" y2="3.53082" gradientUnits="userSpaceOnUse">
      <stop stop-color="#232C39"/>
      <stop offset="0.26" stop-color="#4A719B"/>
      <stop offset="0.4" stop-color="#699DCA"/>
      <stop offset="0.5" stop-color="#7EBAEA"/>
      <stop offset="0.76" stop-color="#456688"/>
      <stop offset="1" stop-color="#202B37"/>
    </linearGradient>
    <linearGradient id="paint12_linear_250_9340" x1="93.285" y1="125.766" x2="33.7661" y2="0.0698274" gradientUnits="userSpaceOnUse">
      <stop stop-color="#232C39"/>
      <stop offset="0.26" stop-color="#4A719B"/>
      <stop offset="0.4" stop-color="#699DCA"/>
      <stop offset="0.5" stop-color="#7EBAEA"/>
      <stop offset="0.76" stop-color="#456688"/>
      <stop offset="1" stop-color="#202B37"/>
    </linearGradient>
    <linearGradient id="paint13_linear_250_9340" x1="99.6938" y1="122.73" x2="40.1825" y2="-2.96676" gradientUnits="userSpaceOnUse">
      <stop stop-color="#232C39"/>
      <stop offset="0.26" stop-color="#4A719B"/>
      <stop offset="0.4" stop-color="#699DCA"/>
      <stop offset="0.5" stop-color="#7EBAEA"/>
      <stop offset="0.76" stop-color="#456688"/>
      <stop offset="1" stop-color="#202B37"/>
    </linearGradient>
    <linearGradient id="paint14_linear_250_9340" x1="58.5084" y1="142.232" x2="-1.00286" y2="16.5352" gradientUnits="userSpaceOnUse">
      <stop stop-color="#232C39"/>
      <stop offset="0.26" stop-color="#4A719B"/>
      <stop offset="0.4" stop-color="#699DCA"/>
      <stop offset="0.5" stop-color="#7EBAEA"/>
      <stop offset="0.76" stop-color="#456688"/>
      <stop offset="1" stop-color="#202B37"/>
    </linearGradient>
    <linearGradient id="paint15_linear_250_9340" x1="51.6425" y1="145.482" x2="-7.87648" y2="19.786" gradientUnits="userSpaceOnUse">
      <stop stop-color="#232C39"/>
      <stop offset="0.26" stop-color="#4A719B"/>
      <stop offset="0.4" stop-color="#699DCA"/>
      <stop offset="0.5" stop-color="#7EBAEA"/>
      <stop offset="0.76" stop-color="#456688"/>
      <stop offset="1" stop-color="#202B37"/>
    </linearGradient>
    <linearGradient id="paint16_linear_250_9340" x1="45.8899" y1="148.204" x2="-13.6214" y2="22.5066" gradientUnits="userSpaceOnUse">
      <stop stop-color="#232C39"/>
      <stop offset="0.26" stop-color="#4A719B"/>
      <stop offset="0.4" stop-color="#699DCA"/>
      <stop offset="0.5" stop-color="#7EBAEA"/>
      <stop offset="0.76" stop-color="#456688"/>
      <stop offset="1" stop-color="#202B37"/>
    </linearGradient>
    <linearGradient id="paint17_linear_250_9340" x1="41.9107" y1="150.086" x2="-17.6006" y2="24.3888" gradientUnits="userSpaceOnUse">
      <stop stop-color="#232C39"/>
      <stop offset="0.26" stop-color="#4A719B"/>
      <stop offset="0.4" stop-color="#699DCA"/>
      <stop offset="0.5" stop-color="#7EBAEA"/>
      <stop offset="0.76" stop-color="#456688"/>
      <stop offset="1" stop-color="#202B37"/>
    </linearGradient>
    <linearGradient id="paint18_linear_250_9340" x1="40.0448" y1="150.974" x2="-19.4741" y2="25.2785" gradientUnits="userSpaceOnUse">
      <stop stop-color="#232C39"/>
      <stop offset="0.26" stop-color="#4A719B"/>
      <stop offset="0.4" stop-color="#699DCA"/>
      <stop offset="0.5" stop-color="#7EBAEA"/>
      <stop offset="0.76" stop-color="#456688"/>
      <stop offset="1" stop-color="#202B37"/>
    </linearGradient>
    <linearGradient id="paint19_linear_250_9340" x1="41.5964" y1="150.236" x2="-17.9226" y2="24.5403" gradientUnits="userSpaceOnUse">
      <stop stop-color="#232C39"/>
      <stop offset="0.26" stop-color="#4A719B"/>
      <stop offset="0.4" stop-color="#699DCA"/>
      <stop offset="0.5" stop-color="#7EBAEA"/>
      <stop offset="0.76" stop-color="#456688"/>
      <stop offset="1" stop-color="#202B37"/>
    </linearGradient>
    <linearGradient id="paint20_linear_250_9340" x1="46.9685" y1="147.691" x2="-12.5504" y2="21.9954" gradientUnits="userSpaceOnUse">
      <stop stop-color="#232C39"/>
      <stop offset="0.26" stop-color="#4A719B"/>
      <stop offset="0.4" stop-color="#699DCA"/>
      <stop offset="0.5" stop-color="#7EBAEA"/>
      <stop offset="0.76" stop-color="#456688"/>
      <stop offset="1" stop-color="#202B37"/>
    </linearGradient>
    <linearGradient id="paint21_linear_250_9340" x1="56.7591" y1="143.06" x2="-2.7598" y2="17.3645" gradientUnits="userSpaceOnUse">
      <stop stop-color="#232C39"/>
      <stop offset="0.26" stop-color="#4A719B"/>
      <stop offset="0.4" stop-color="#699DCA"/>
      <stop offset="0.5" stop-color="#7EBAEA"/>
      <stop offset="0.76" stop-color="#456688"/>
      <stop offset="1" stop-color="#202B37"/>
    </linearGradient>
    <linearGradient id="paint22_linear_250_9340" x1="66.3157" y1="138.533" x2="6.79679" y2="12.8377" gradientUnits="userSpaceOnUse">
      <stop stop-color="#232C39"/>
      <stop offset="0.26" stop-color="#4A719B"/>
      <stop offset="0.4" stop-color="#699DCA"/>
      <stop offset="0.5" stop-color="#7EBAEA"/>
      <stop offset="0.76" stop-color="#456688"/>
      <stop offset="1" stop-color="#202B37"/>
    </linearGradient>
    <linearGradient id="paint23_linear_250_9340" x1="74.276" y1="134.768" x2="14.7557" y2="9.06483" gradientUnits="userSpaceOnUse">
      <stop stop-color="#232C39"/>
      <stop offset="0.26" stop-color="#4A719B"/>
      <stop offset="0.4" stop-color="#699DCA"/>
      <stop offset="0.5" stop-color="#7EBAEA"/>
      <stop offset="0.76" stop-color="#456688"/>
      <stop offset="1" stop-color="#202B37"/>
    </linearGradient>
    <linearGradient id="paint24_linear_250_9340" x1="83.1618" y1="130.558" x2="23.6429" y2="4.86184" gradientUnits="userSpaceOnUse">
      <stop stop-color="#232C39"/>
      <stop offset="0.26" stop-color="#4A719B"/>
      <stop offset="0.4" stop-color="#699DCA"/>
      <stop offset="0.5" stop-color="#7EBAEA"/>
      <stop offset="0.76" stop-color="#456688"/>
      <stop offset="1" stop-color="#202B37"/>
    </linearGradient>
    <linearGradient id="paint25_linear_250_9340" x1="92.0186" y1="126.367" x2="32.4997" y2="0.670825" gradientUnits="userSpaceOnUse">
      <stop stop-color="#232C39"/>
      <stop offset="0.26" stop-color="#4A719B"/>
      <stop offset="0.4" stop-color="#699DCA"/>
      <stop offset="0.5" stop-color="#7EBAEA"/>
      <stop offset="0.76" stop-color="#456688"/>
      <stop offset="1" stop-color="#202B37"/>
    </linearGradient>
    <linearGradient id="paint26_linear_250_9340" x1="179.526" y1="135.063" x2="238.304" y2="10.9349" gradientUnits="userSpaceOnUse">
      <stop stop-color="#232C39"/>
      <stop offset="0.26" stop-color="#4A719B"/>
      <stop offset="0.4" stop-color="#699DCA"/>
      <stop offset="0.5" stop-color="#7EBAEA"/>
      <stop offset="0.76" stop-color="#456688"/>
      <stop offset="1" stop-color="#202B37"/>
    </linearGradient>
    <linearGradient id="paint27_linear_250_9340" x1="182.873" y1="138.397" x2="242.392" y2="12.7017" gradientUnits="userSpaceOnUse">
      <stop stop-color="#232C39"/>
      <stop offset="0.26" stop-color="#4A719B"/>
      <stop offset="0.4" stop-color="#699DCA"/>
      <stop offset="0.5" stop-color="#7EBAEA"/>
      <stop offset="0.76" stop-color="#456688"/>
      <stop offset="1" stop-color="#202B37"/>
    </linearGradient>
    <linearGradient id="paint28_linear_250_9340" x1="188.202" y1="140.92" x2="247.721" y2="15.224" gradientUnits="userSpaceOnUse">
      <stop stop-color="#232C39"/>
      <stop offset="0.26" stop-color="#4A719B"/>
      <stop offset="0.4" stop-color="#699DCA"/>
      <stop offset="0.5" stop-color="#7EBAEA"/>
      <stop offset="0.76" stop-color="#456688"/>
      <stop offset="1" stop-color="#202B37"/>
    </linearGradient>
    <linearGradient id="paint29_linear_250_9340" x1="192.203" y1="142.813" x2="251.714" y2="17.116" gradientUnits="userSpaceOnUse">
      <stop stop-color="#232C39"/>
      <stop offset="0.26" stop-color="#4A719B"/>
      <stop offset="0.4" stop-color="#699DCA"/>
      <stop offset="0.5" stop-color="#7EBAEA"/>
      <stop offset="0.76" stop-color="#456688"/>
      <stop offset="1" stop-color="#202B37"/>
    </linearGradient>
    <linearGradient id="paint30_linear_250_9340" x1="194.63" y1="143.966" x2="254.149" y2="18.2699" gradientUnits="userSpaceOnUse">
      <stop stop-color="#232C39"/>
      <stop offset="0.26" stop-color="#4A719B"/>
      <stop offset="0.4" stop-color="#699DCA"/>
      <stop offset="0.5" stop-color="#7EBAEA"/>
      <stop offset="0.76" stop-color="#456688"/>
      <stop offset="1" stop-color="#202B37"/>
    </linearGradient>
    <linearGradient id="paint31_linear_250_9340" x1="194.812" y1="144.053" x2="254.333" y2="18.3494" gradientUnits="userSpaceOnUse">
      <stop stop-color="#232C39"/>
      <stop offset="0.26" stop-color="#4A719B"/>
      <stop offset="0.4" stop-color="#699DCA"/>
      <stop offset="0.5" stop-color="#7EBAEA"/>
      <stop offset="0.76" stop-color="#456688"/>
      <stop offset="1" stop-color="#202B37"/>
    </linearGradient>
    <linearGradient id="paint32_linear_250_9340" x1="192.815" y1="143.102" x2="252.334" y2="17.4065" gradientUnits="userSpaceOnUse">
      <stop stop-color="#232C39"/>
      <stop offset="0.26" stop-color="#4A719B"/>
      <stop offset="0.4" stop-color="#699DCA"/>
      <stop offset="0.5" stop-color="#7EBAEA"/>
      <stop offset="0.76" stop-color="#456688"/>
      <stop offset="1" stop-color="#202B37"/>
    </linearGradient>
    <linearGradient id="paint33_linear_250_9340" x1="188.092" y1="140.869" x2="247.611" y2="15.1731" gradientUnits="userSpaceOnUse">
      <stop stop-color="#232C39"/>
      <stop offset="0.26" stop-color="#4A719B"/>
      <stop offset="0.4" stop-color="#699DCA"/>
      <stop offset="0.5" stop-color="#7EBAEA"/>
      <stop offset="0.76" stop-color="#456688"/>
      <stop offset="1" stop-color="#202B37"/>
    </linearGradient>
    <linearGradient id="paint34_linear_250_9340" x1="179.739" y1="136.908" x2="239.25" y2="11.2111" gradientUnits="userSpaceOnUse">
      <stop stop-color="#232C39"/>
      <stop offset="0.26" stop-color="#4A719B"/>
      <stop offset="0.4" stop-color="#699DCA"/>
      <stop offset="0.5" stop-color="#7EBAEA"/>
      <stop offset="0.76" stop-color="#456688"/>
      <stop offset="1" stop-color="#202B37"/>
    </linearGradient>
    <linearGradient id="paint35_linear_250_9340" x1="176.984" y1="135.604" x2="236.503" y2="9.9077" gradientUnits="userSpaceOnUse">
      <stop stop-color="#232C39"/>
      <stop offset="0.26" stop-color="#4A719B"/>
      <stop offset="0.4" stop-color="#699DCA"/>
      <stop offset="0.5" stop-color="#7EBAEA"/>
      <stop offset="0.76" stop-color="#456688"/>
      <stop offset="1" stop-color="#202B37"/>
    </linearGradient>
    <linearGradient id="paint36_linear_250_9340" x1="170.692" y1="132.629" x2="230.203" y2="6.93206" gradientUnits="userSpaceOnUse">
      <stop stop-color="#232C39"/>
      <stop offset="0.26" stop-color="#4A719B"/>
      <stop offset="0.4" stop-color="#699DCA"/>
      <stop offset="0.5" stop-color="#7EBAEA"/>
      <stop offset="0.76" stop-color="#456688"/>
      <stop offset="1" stop-color="#202B37"/>
    </linearGradient>
    <linearGradient id="paint37_linear_250_9340" x1="163.498" y1="129.219" x2="223.009" y2="3.5223" gradientUnits="userSpaceOnUse">
      <stop stop-color="#232C39"/>
      <stop offset="0.26" stop-color="#4A719B"/>
      <stop offset="0.4" stop-color="#699DCA"/>
      <stop offset="0.5" stop-color="#7EBAEA"/>
      <stop offset="0.76" stop-color="#456688"/>
      <stop offset="1" stop-color="#202B37"/>
    </linearGradient>
    <linearGradient id="paint38_linear_250_9340" x1="156.187" y1="125.759" x2="215.706" y2="0.0627704" gradientUnits="userSpaceOnUse">
      <stop stop-color="#232C39"/>
      <stop offset="0.26" stop-color="#4A719B"/>
      <stop offset="0.4" stop-color="#699DCA"/>
      <stop offset="0.5" stop-color="#7EBAEA"/>
      <stop offset="0.76" stop-color="#456688"/>
      <stop offset="1" stop-color="#202B37"/>
    </linearGradient>
    <linearGradient id="paint39_linear_250_9340" x1="149.773" y1="122.722" x2="209.292" y2="-2.97373" gradientUnits="userSpaceOnUse">
      <stop stop-color="#232C39"/>
      <stop offset="0.26" stop-color="#4A719B"/>
      <stop offset="0.4" stop-color="#699DCA"/>
      <stop offset="0.5" stop-color="#7EBAEA"/>
      <stop offset="0.76" stop-color="#456688"/>
      <stop offset="1" stop-color="#202B37"/>
    </linearGradient>
    <linearGradient id="paint40_linear_250_9340" x1="190.957" y1="142.224" x2="250.476" y2="16.528" gradientUnits="userSpaceOnUse">
      <stop stop-color="#232C39"/>
      <stop offset="0.26" stop-color="#4A719B"/>
      <stop offset="0.4" stop-color="#699DCA"/>
      <stop offset="0.5" stop-color="#7EBAEA"/>
      <stop offset="0.76" stop-color="#456688"/>
      <stop offset="1" stop-color="#202B37"/>
    </linearGradient>
    <linearGradient id="paint41_linear_250_9340" x1="197.831" y1="145.475" x2="257.35" y2="19.7789" gradientUnits="userSpaceOnUse">
      <stop stop-color="#232C39"/>
      <stop offset="0.26" stop-color="#4A719B"/>
      <stop offset="0.4" stop-color="#699DCA"/>
      <stop offset="0.5" stop-color="#7EBAEA"/>
      <stop offset="0.76" stop-color="#456688"/>
      <stop offset="1" stop-color="#202B37"/>
    </linearGradient>
    <linearGradient id="paint42_linear_250_9340" x1="203.576" y1="148.195" x2="263.095" y2="22.4996" gradientUnits="userSpaceOnUse">
      <stop stop-color="#232C39"/>
      <stop offset="0.26" stop-color="#4A719B"/>
      <stop offset="0.4" stop-color="#699DCA"/>
      <stop offset="0.5" stop-color="#7EBAEA"/>
      <stop offset="0.76" stop-color="#456688"/>
      <stop offset="1" stop-color="#202B37"/>
    </linearGradient>
    <linearGradient id="paint43_linear_250_9340" x1="207.554" y1="150.085" x2="267.074" y2="24.3816" gradientUnits="userSpaceOnUse">
      <stop stop-color="#232C39"/>
      <stop offset="0.26" stop-color="#4A719B"/>
      <stop offset="0.4" stop-color="#699DCA"/>
      <stop offset="0.5" stop-color="#7EBAEA"/>
      <stop offset="0.76" stop-color="#456688"/>
      <stop offset="1" stop-color="#202B37"/>
    </linearGradient>
    <linearGradient id="paint44_linear_250_9340" x1="209.428" y1="150.967" x2="268.947" y2="25.2714" gradientUnits="userSpaceOnUse">
      <stop stop-color="#232C39"/>
      <stop offset="0.26" stop-color="#4A719B"/>
      <stop offset="0.4" stop-color="#699DCA"/>
      <stop offset="0.5" stop-color="#7EBAEA"/>
      <stop offset="0.76" stop-color="#456688"/>
      <stop offset="1" stop-color="#202B37"/>
    </linearGradient>
    <linearGradient id="paint45_linear_250_9340" x1="207.877" y1="150.229" x2="267.388" y2="24.5319" gradientUnits="userSpaceOnUse">
      <stop stop-color="#232C39"/>
      <stop offset="0.26" stop-color="#4A719B"/>
      <stop offset="0.4" stop-color="#699DCA"/>
      <stop offset="0.5" stop-color="#7EBAEA"/>
      <stop offset="0.76" stop-color="#456688"/>
      <stop offset="1" stop-color="#202B37"/>
    </linearGradient>
    <linearGradient id="paint46_linear_250_9340" x1="202.502" y1="147.692" x2="262.014" y2="21.9946" gradientUnits="userSpaceOnUse">
      <stop stop-color="#232C39"/>
      <stop offset="0.26" stop-color="#4A719B"/>
      <stop offset="0.4" stop-color="#699DCA"/>
      <stop offset="0.5" stop-color="#7EBAEA"/>
      <stop offset="0.76" stop-color="#456688"/>
      <stop offset="1" stop-color="#202B37"/>
    </linearGradient>
    <linearGradient id="paint47_linear_250_9340" x1="192.714" y1="143.053" x2="252.233" y2="17.3574" gradientUnits="userSpaceOnUse">
      <stop stop-color="#232C39"/>
      <stop offset="0.26" stop-color="#4A719B"/>
      <stop offset="0.4" stop-color="#699DCA"/>
      <stop offset="0.5" stop-color="#7EBAEA"/>
      <stop offset="0.76" stop-color="#456688"/>
      <stop offset="1" stop-color="#202B37"/>
    </linearGradient>
    <linearGradient id="paint48_linear_250_9340" x1="183.15" y1="138.525" x2="242.669" y2="12.8292" gradientUnits="userSpaceOnUse">
      <stop stop-color="#232C39"/>
      <stop offset="0.26" stop-color="#4A719B"/>
      <stop offset="0.4" stop-color="#699DCA"/>
      <stop offset="0.5" stop-color="#7EBAEA"/>
      <stop offset="0.76" stop-color="#456688"/>
      <stop offset="1" stop-color="#202B37"/>
    </linearGradient>
    <linearGradient id="paint49_linear_250_9340" x1="175.198" y1="134.761" x2="234.709" y2="9.0641" gradientUnits="userSpaceOnUse">
      <stop stop-color="#232C39"/>
      <stop offset="0.26" stop-color="#4A719B"/>
      <stop offset="0.4" stop-color="#699DCA"/>
      <stop offset="0.5" stop-color="#7EBAEA"/>
      <stop offset="0.76" stop-color="#456688"/>
      <stop offset="1" stop-color="#202B37"/>
    </linearGradient>
    <linearGradient id="paint50_linear_250_9340" x1="166.312" y1="130.551" x2="225.831" y2="4.85476" gradientUnits="userSpaceOnUse">
      <stop stop-color="#232C39"/>
      <stop offset="0.26" stop-color="#4A719B"/>
      <stop offset="0.4" stop-color="#699DCA"/>
      <stop offset="0.5" stop-color="#7EBAEA"/>
      <stop offset="0.76" stop-color="#456688"/>
      <stop offset="1" stop-color="#202B37"/>
    </linearGradient>
    <linearGradient id="paint51_linear_250_9340" x1="157.455" y1="126.36" x2="216.974" y2="0.663827" gradientUnits="userSpaceOnUse">
      <stop stop-color="#232C39"/>
      <stop offset="0.26" stop-color="#4A719B"/>
      <stop offset="0.4" stop-color="#699DCA"/>
      <stop offset="0.5" stop-color="#7EBAEA"/>
      <stop offset="0.76" stop-color="#456688"/>
      <stop offset="1" stop-color="#202B37"/>
    </linearGradient>
    <linearGradient id="paint52_linear_250_9340" x1="60.4436" y1="57.7525" x2="165.194" y2="123.475" gradientUnits="userSpaceOnUse">
      <stop stop-color="#232C39"/>
      <stop offset="0.26" stop-color="#4A719B"/>
      <stop offset="0.4" stop-color="#699DCA"/>
      <stop offset="0.5" stop-color="#7EBAEA"/>
      <stop offset="0.76" stop-color="#456688"/>
      <stop offset="1" stop-color="#202B37"/>
    </linearGradient>
    <linearGradient id="paint53_linear_250_9340" x1="76.4389" y1="31.8353" x2="180.194" y2="96.9282" gradientUnits="userSpaceOnUse">
      <stop stop-color="#232C39"/>
      <stop offset="0.26" stop-color="#4A719B"/>
      <stop offset="0.4" stop-color="#699DCA"/>
      <stop offset="0.5" stop-color="#7EBAEA"/>
      <stop offset="0.76" stop-color="#456688"/>
      <stop offset="1" stop-color="#202B37"/>
    </linearGradient>
    <clipPath id="clip0_250_9340">
      <rect width="249.47" height="134.587" fill="white"/>
    </clipPath>
  </defs>
</svg>