<svg width="300" height="112" viewBox="0 0 300 112" fill="none" xmlns="http://www.w3.org/2000/svg">
<rect width="300" height="112" rx="16" fill="url(#paint0_linear_2008_1754)" fill-opacity="0.8"/>
<path d="M33.2 20.34L39.32 20.84L34.56 24.58L36.14 30.78L31.02 27.36L25.88 30.78L27.46 24.58L22.7 20.84L28.82 20.34L31.02 14.64L33.2 20.34ZM52.6 20.34L58.72 20.84L53.96 24.58L55.54 30.78L50.42 27.36L45.28 30.78L46.86 24.58L42.1 20.84L48.22 20.34L50.42 14.64L52.6 20.34ZM72 20.34L78.12 20.84L73.36 24.58L74.94 30.78L69.82 27.36L64.68 30.78L66.26 24.58L61.5 20.84L67.62 20.34L69.82 14.64L72 20.34ZM91.4 20.34L97.52 20.84L92.76 24.58L94.34 30.78L89.22 27.36L84.08 30.78L85.66 24.58L80.9 20.84L87.02 20.34L89.22 14.64L91.4 20.34ZM110.8 20.34L116.92 20.84L112.16 24.58L113.74 30.78L108.62 27.36L103.48 30.78L105.06 24.58L100.3 20.84L106.42 20.34L108.62 14.64L110.8 20.34Z" fill="#FCCF16"/>
<path d="M132.328 19.72V21.256C132.328 22.0667 132.157 22.8293 131.816 23.544C131.475 24.2587 131.005 24.8827 130.408 25.416C129.821 25.9493 129.16 26.3547 128.424 26.632L127.912 25.864C128.584 25.6187 129.192 25.2667 129.736 24.808C130.291 24.3387 130.723 23.8 131.032 23.192C131.352 22.5733 131.512 21.928 131.512 21.256V19.72H132.328ZM132.504 19.72V21.256C132.504 21.896 132.664 22.504 132.984 23.08C133.304 23.656 133.736 24.1627 134.28 24.6C134.835 25.0267 135.448 25.352 136.12 25.576L135.608 26.36C134.872 26.0933 134.205 25.7093 133.608 25.208C133.021 24.7067 132.557 24.12 132.216 23.448C131.875 22.7653 131.704 22.0347 131.704 21.256V19.72H132.504ZM135.816 19.432V20.248H128.184V19.432H135.816ZM139 18.232V28.456H138.024V18.232H139ZM139.464 30.968V31.784H130.216V30.968H139.464ZM131.16 27.48V31.288H130.216V27.48H131.16ZM145.256 24.44L147.64 23.672L147.944 24.6L145.56 25.384L147.064 27.464L146.28 28.088L144.776 25.96L143.256 28.088L142.504 27.464L144.008 25.384L141.592 24.6L141.896 23.672L144.296 24.44V21.864H145.256V24.44ZM153.308 24.44L155.692 23.672L155.996 24.6L153.612 25.384L155.116 27.464L154.332 28.088L152.828 25.96L151.308 28.088L150.556 27.464L152.06 25.384L149.644 24.6L149.948 23.672L152.348 24.44V21.864H153.308V24.44ZM168.591 18.216V26.12H167.631V18.216H168.591ZM159.151 19.016V24.648H158.191V19.016H159.151ZM159.279 24.088C160.484 24.088 161.62 24.04 162.687 23.944C163.764 23.8373 164.852 23.6667 165.951 23.432L166.127 24.264C164.954 24.4987 163.823 24.6693 162.735 24.776C161.647 24.872 160.495 24.92 159.279 24.92H158.191V24.088H159.279ZM168.591 26.824V31.896H159.743V26.824H168.591ZM160.687 27.624V31.096H167.647V27.624H160.687Z" fill="#EEEEEE"/>
<path d="M32.704 43.04V57.28H31.04V43.04H32.704ZM31.616 48.56V49.984H29.12V48.56H31.616ZM29.552 43.312V56.608H27.904V43.312H29.552ZM26.528 44.576V53.632H20.992V44.576H26.528ZM22.624 45.952V52.256H24.896V45.952H22.624ZM45.5204 49.712V51.12H35.6004V49.712H45.5204ZM46.9444 54.048V55.488H34.0484V54.048H46.9444ZM45.3924 44.256V45.696H37.3444V50.304H35.6004V44.256H45.3924ZM60.4488 54.176V55.616H47.5528V54.176H60.4488ZM54.8328 50.768V54.832H53.0888V50.768H54.8328ZM59.3288 44.288V45.696H48.5928V44.288H59.3288ZM59.2968 49.968V51.376H48.6568V49.968H59.2968ZM52.4008 45.44V50.16H50.6408V45.44H52.4008ZM57.2968 45.44V50.16H55.5528V45.44H57.2968ZM68.0331 43.92V44.976C68.0331 45.9893 67.7825 46.944 67.2811 47.84C66.7798 48.7253 66.0865 49.4773 65.2011 50.096C64.3158 50.7147 63.3185 51.136 62.2091 51.36L61.4571 49.904C62.4065 49.7333 63.2651 49.3973 64.0331 48.896C64.8118 48.3947 65.4198 47.7973 65.8571 47.104C66.2945 46.4107 66.5131 45.7013 66.5131 44.976V43.92H68.0331ZM68.3691 43.92V44.976C68.3691 45.712 68.5878 46.4267 69.0251 47.12C69.4625 47.8133 70.0651 48.4107 70.8331 48.912C71.6118 49.4027 72.4811 49.7333 73.4411 49.904L72.6731 51.36C71.5638 51.136 70.5665 50.72 69.6811 50.112C68.7958 49.4933 68.1025 48.7413 67.6011 47.856C67.0998 46.96 66.8491 46 66.8491 44.976V43.92H68.3691ZM73.9531 54.032V55.472H61.0571V54.032H73.9531ZM86.4175 43.024V57.312H84.6735V43.024H86.4175ZM84.8815 48.208V49.616H82.0175V48.208H84.8815ZM76.3215 52.592C77.6975 52.592 78.8442 52.5707 79.7615 52.528C80.6788 52.4747 81.6015 52.368 82.5295 52.208L82.7055 53.616C81.7348 53.776 80.7695 53.8827 79.8095 53.936C78.8602 53.9893 77.6975 54.016 76.3215 54.016H75.2015V52.592H76.3215ZM81.7775 44.272V45.712H76.9455V53.04H75.2015V44.272H81.7775ZM81.2495 48.24V49.632H76.5295V48.24H81.2495ZM99.8099 43.04V57.328H98.0499V43.04H99.8099ZM90.1459 52.4C91.7245 52.4 92.9939 52.3733 93.9539 52.32C94.9139 52.256 95.8685 52.1333 96.8179 51.952L96.9779 53.408C96.0179 53.6 95.0419 53.728 94.0499 53.792C93.0685 53.8453 91.7672 53.872 90.1459 53.872H88.9459V52.4H90.1459ZM95.7619 44.352V45.776H90.6899V52.96H88.9459V44.352H95.7619ZM106.634 49.664C108.127 49.664 109.295 49.6373 110.138 49.584C110.991 49.5307 111.828 49.4187 112.65 49.248L112.826 50.64C111.994 50.8213 111.14 50.944 110.266 51.008C109.391 51.0613 108.18 51.088 106.634 51.088H105.53V49.664H106.634ZM111.978 44.016V45.424H107.274V50.08H105.53V44.016H111.978ZM116.602 52.272V57.296H114.842V53.68H106.97V52.272H116.602ZM116.602 43.04V51.616H114.842V43.04H116.602ZM115.306 46.656V48.048H111.242V46.656H115.306ZM126.474 48.4V49.824H123.994V48.4H126.474ZM130.442 43.04V57.28H128.778V43.04H130.442ZM127.546 43.312V56.608H125.898V43.312H127.546ZM121.466 44.112C122.085 44.112 122.623 44.32 123.082 44.736C123.551 45.1413 123.914 45.728 124.17 46.496C124.426 47.264 124.554 48.1653 124.554 49.2C124.554 50.2453 124.426 51.152 124.17 51.92C123.914 52.688 123.551 53.28 123.082 53.696C122.623 54.1013 122.085 54.304 121.466 54.304C120.847 54.304 120.309 54.1013 119.85 53.696C119.391 53.28 119.034 52.688 118.778 51.92C118.533 51.152 118.41 50.2453 118.41 49.2C118.41 48.1653 118.533 47.264 118.778 46.496C119.034 45.728 119.391 45.1413 119.85 44.736C120.309 44.32 120.847 44.112 121.466 44.112ZM121.466 45.776C121.157 45.776 120.895 45.9093 120.682 46.176C120.469 46.432 120.303 46.816 120.186 47.328C120.069 47.84 120.01 48.464 120.01 49.2C120.01 49.936 120.069 50.5653 120.186 51.088C120.303 51.6 120.469 51.9893 120.682 52.256C120.895 52.5227 121.157 52.656 121.466 52.656C121.775 52.656 122.037 52.5227 122.25 52.256C122.474 51.9893 122.645 51.6 122.762 51.088C122.879 50.5653 122.938 49.936 122.938 49.2C122.938 48.464 122.879 47.84 122.762 47.328C122.645 46.816 122.474 46.432 122.25 46.176C122.037 45.9093 121.775 45.776 121.466 45.776ZM139.303 44.064C140.007 44.064 140.631 44.272 141.175 44.688C141.729 45.0933 142.161 45.68 142.471 46.448C142.78 47.2053 142.935 48.0907 142.935 49.104C142.935 50.1173 142.78 51.008 142.471 51.776C142.161 52.544 141.729 53.136 141.175 53.552C140.631 53.9573 140.007 54.16 139.303 54.16C138.609 54.16 137.985 53.9573 137.431 53.552C136.887 53.136 136.46 52.544 136.151 51.776C135.841 51.008 135.687 50.1173 135.687 49.104C135.687 48.0907 135.841 47.2053 136.151 46.448C136.46 45.68 136.887 45.0933 137.431 44.688C137.985 44.272 138.609 44.064 139.303 44.064ZM139.303 45.664C138.919 45.664 138.577 45.8027 138.279 46.08C137.991 46.3467 137.761 46.7413 137.591 47.264C137.431 47.776 137.351 48.3893 137.351 49.104C137.351 49.8187 137.431 50.4373 137.591 50.96C137.761 51.4827 137.991 51.8827 138.279 52.16C138.577 52.4373 138.919 52.576 139.303 52.576C139.697 52.576 140.044 52.4373 140.343 52.16C140.641 51.8827 140.871 51.4827 141.031 50.96C141.191 50.4373 141.271 49.8187 141.271 49.104C141.271 48.3893 141.191 47.776 141.031 47.264C140.871 46.7413 140.641 46.3467 140.343 46.08C140.044 45.8027 139.697 45.664 139.303 45.664ZM147.303 43.024V57.312H145.559V43.024H147.303ZM146.311 48.288V49.696H142.391V48.288H146.311ZM157.367 44.384V45.792H148.983V44.384H157.367ZM153.175 46.336C153.847 46.336 154.444 46.448 154.967 46.672C155.5 46.8853 155.911 47.1947 156.199 47.6C156.498 47.9947 156.647 48.448 156.647 48.96C156.647 49.472 156.498 49.9253 156.199 50.32C155.911 50.704 155.5 51.008 154.967 51.232C154.444 51.4453 153.847 51.552 153.175 51.552C152.503 51.552 151.9 51.4453 151.367 51.232C150.844 51.008 150.439 50.704 150.151 50.32C149.863 49.9253 149.719 49.472 149.719 48.96C149.719 48.448 149.863 47.9947 150.151 47.6C150.439 47.1947 150.844 46.8853 151.367 46.672C151.9 46.448 152.503 46.336 153.175 46.336ZM153.175 47.68C152.642 47.68 152.21 47.792 151.879 48.016C151.559 48.24 151.399 48.5547 151.399 48.96C151.399 49.344 151.559 49.6533 151.879 49.888C152.21 50.112 152.642 50.224 153.175 50.224C153.708 50.224 154.135 50.112 154.455 49.888C154.786 49.6533 154.951 49.344 154.951 48.96C154.951 48.5547 154.786 48.24 154.455 48.016C154.135 47.792 153.708 47.68 153.175 47.68ZM160.103 43.056V51.968H158.343V43.056H160.103ZM162.087 46.816V48.256H159.623V46.816H162.087ZM160.103 52.624V57.296H158.343V54.032H150.711V52.624H160.103ZM154.055 42.96V45.184H152.295V42.96H154.055ZM173.192 45.12V46.528H168.952V45.12H173.192ZM173.192 48.56V49.968H168.952V48.56H173.192ZM174.296 43.056V53.504H172.536V43.056H174.296ZM174.648 55.6V57.008H165V55.6H174.648ZM166.776 52.448V56.304H165V52.448H166.776ZM166.376 43.92C167.069 43.92 167.698 44.0747 168.264 44.384C168.84 44.6933 169.288 45.1253 169.608 45.68C169.938 46.2347 170.104 46.864 170.104 47.568C170.104 48.2613 169.938 48.8853 169.608 49.44C169.277 49.984 168.829 50.4107 168.264 50.72C167.698 51.0293 167.069 51.184 166.376 51.184C165.682 51.184 165.048 51.0293 164.472 50.72C163.906 50.4107 163.458 49.984 163.128 49.44C162.808 48.8853 162.648 48.256 162.648 47.552C162.648 46.8587 162.808 46.2347 163.128 45.68C163.458 45.1253 163.906 44.6933 164.472 44.384C165.048 44.0747 165.682 43.92 166.376 43.92ZM166.376 45.472C165.981 45.472 165.624 45.5573 165.304 45.728C164.994 45.8987 164.749 46.144 164.568 46.464C164.397 46.784 164.312 47.152 164.312 47.568C164.312 47.984 164.397 48.352 164.568 48.672C164.749 48.992 164.994 49.2373 165.304 49.408C165.624 49.5787 165.981 49.664 166.376 49.664C166.76 49.664 167.106 49.5787 167.416 49.408C167.736 49.2373 167.981 48.992 168.152 48.672C168.333 48.352 168.424 47.984 168.424 47.568C168.424 47.152 168.333 46.784 168.152 46.464C167.981 46.144 167.736 45.8987 167.416 45.728C167.106 45.5573 166.76 45.472 166.376 45.472ZM183.032 43.504V44.224C183.032 45.12 182.787 45.952 182.296 46.72C181.805 47.4773 181.117 48.112 180.232 48.624C179.357 49.136 178.349 49.4773 177.208 49.648L176.52 48.256C177.491 48.1173 178.355 47.8453 179.112 47.44C179.869 47.0347 180.456 46.5493 180.872 45.984C181.288 45.4187 181.496 44.832 181.496 44.224V43.504H183.032ZM183.352 43.504V44.224C183.352 44.8213 183.56 45.4027 183.976 45.968C184.392 46.5333 184.979 47.024 185.736 47.44C186.493 47.8453 187.357 48.1173 188.328 48.256L187.64 49.648C186.509 49.4773 185.501 49.136 184.616 48.624C183.731 48.1013 183.043 47.4613 182.552 46.704C182.061 45.936 181.816 45.1093 181.816 44.224V43.504H183.352ZM183.256 52V57.296H181.496V52H183.256ZM188.856 50.896V52.336H175.976V50.896H188.856ZM195.92 51.392V52.928H197.744V51.392H199.376V57.12H194.272V51.392H195.92ZM195.92 55.792H197.744V54.224H195.92V55.792ZM203.136 51.296V52.4C203.136 53.4773 202.885 54.4587 202.384 55.344C201.893 56.2187 201.157 56.8533 200.176 57.248L199.328 55.936C199.872 55.712 200.325 55.4133 200.688 55.04C201.061 54.656 201.338 54.24 201.52 53.792C201.701 53.3333 201.792 52.8693 201.792 52.4V51.296H203.136ZM203.52 51.296V52.4C203.52 52.912 203.61 53.4027 203.792 53.872C203.973 54.3307 204.25 54.7413 204.624 55.104C204.997 55.4667 205.461 55.744 206.016 55.936L205.136 57.248C204.133 56.864 203.392 56.2453 202.912 55.392C202.432 54.5387 202.192 53.5413 202.192 52.4V51.296H203.52ZM203.536 46.208V47.632H199.872V46.208H203.536ZM196.608 43.616C197.312 43.616 197.946 43.76 198.512 44.048C199.077 44.3253 199.52 44.72 199.84 45.232C200.17 45.7333 200.336 46.304 200.336 46.944C200.336 47.584 200.17 48.16 199.84 48.672C199.52 49.1733 199.077 49.568 198.512 49.856C197.946 50.1333 197.312 50.272 196.608 50.272C195.904 50.272 195.264 50.1333 194.688 49.856C194.122 49.568 193.68 49.1733 193.36 48.672C193.04 48.16 192.88 47.584 192.88 46.944C192.88 46.2933 193.04 45.7173 193.36 45.216C193.68 44.7147 194.122 44.3253 194.688 44.048C195.264 43.76 195.904 43.616 196.608 43.616ZM196.608 45.072C196.213 45.072 195.861 45.152 195.552 45.312C195.242 45.4613 195.002 45.68 194.832 45.968C194.661 46.2453 194.576 46.5707 194.576 46.944C194.576 47.3173 194.661 47.648 194.832 47.936C195.002 48.224 195.242 48.448 195.552 48.608C195.861 48.7573 196.213 48.832 196.608 48.832C197.002 48.832 197.354 48.7573 197.664 48.608C197.973 48.448 198.213 48.224 198.384 47.936C198.565 47.648 198.656 47.3173 198.656 46.944C198.656 46.5707 198.565 46.2453 198.384 45.968C198.213 45.68 197.973 45.4613 197.664 45.312C197.354 45.152 197.002 45.072 196.608 45.072ZM204.528 43.056V50.576H202.768V43.056H204.528ZM217.936 43.024V57.312H216.16V43.024H217.936ZM210.32 44.064C211.035 44.064 211.669 44.272 212.224 44.688C212.789 45.0933 213.227 45.68 213.536 46.448C213.856 47.2053 214.016 48.0907 214.016 49.104C214.016 50.1173 213.856 51.008 213.536 51.776C213.227 52.544 212.789 53.136 212.224 53.552C211.669 53.9573 211.035 54.16 210.32 54.16C209.605 54.16 208.965 53.9573 208.4 53.552C207.845 53.136 207.408 52.544 207.088 51.776C206.779 51.008 206.624 50.1173 206.624 49.104C206.624 48.0907 206.779 47.2053 207.088 46.448C207.408 45.68 207.845 45.0933 208.4 44.688C208.965 44.272 209.605 44.064 210.32 44.064ZM210.32 45.664C209.925 45.664 209.573 45.8027 209.264 46.08C208.965 46.3467 208.731 46.7413 208.56 47.264C208.4 47.776 208.32 48.3893 208.32 49.104C208.32 49.8187 208.4 50.4373 208.56 50.96C208.731 51.4827 208.965 51.8827 209.264 52.16C209.573 52.4373 209.925 52.576 210.32 52.576C210.715 52.576 211.061 52.4373 211.36 52.16C211.669 51.8827 211.904 51.4827 212.064 50.96C212.235 50.4373 212.32 49.8187 212.32 49.104C212.32 48.3893 212.235 47.776 212.064 47.264C211.904 46.7413 211.669 46.3467 211.36 46.08C211.061 45.8027 210.715 45.664 210.32 45.664ZM231.168 49.504V50.912H221.248V49.504H231.168ZM232.592 54.16V55.6H219.696V54.16H232.592ZM226.992 50.128V54.656H225.248V50.128H226.992ZM231.04 44.08V45.488H223.008V50.128H221.248V44.08H231.04ZM240.392 43.504C241.107 43.504 241.752 43.6427 242.328 43.92C242.904 44.1867 243.352 44.5653 243.672 45.056C244.003 45.5467 244.168 46.1013 244.168 46.72C244.168 47.3387 244.003 47.8933 243.672 48.384C243.352 48.864 242.904 49.2427 242.328 49.52C241.752 49.7867 241.112 49.92 240.408 49.92C239.694 49.92 239.048 49.7867 238.472 49.52C237.907 49.2427 237.459 48.864 237.128 48.384C236.808 47.8933 236.648 47.3387 236.648 46.72C236.648 46.1013 236.808 45.5467 237.128 45.056C237.459 44.5653 237.907 44.1867 238.472 43.92C239.048 43.6427 239.688 43.504 240.392 43.504ZM240.392 44.928C239.998 44.928 239.646 45.0027 239.336 45.152C239.027 45.2907 238.782 45.4987 238.6 45.776C238.43 46.0427 238.344 46.3573 238.344 46.72C238.344 47.0827 238.43 47.3973 238.6 47.664C238.782 47.9307 239.027 48.1387 239.336 48.288C239.646 48.4267 239.998 48.496 240.392 48.496C240.798 48.496 241.155 48.4267 241.464 48.288C241.774 48.1387 242.014 47.9307 242.184 47.664C242.366 47.3973 242.456 47.0827 242.456 46.72C242.456 46.3573 242.366 46.0427 242.184 45.776C242.014 45.4987 241.768 45.2907 241.448 45.152C241.139 45.0027 240.787 44.928 240.392 44.928ZM248.168 43.056V50.24H246.408V43.056H248.168ZM248.168 50.864V54.592H240.536V56.48H238.824V53.312H246.424V52.224H238.792V50.864H248.168ZM248.568 55.744V57.12H238.824V55.744H248.568ZM254.601 43.808V45.152C254.601 46.0907 254.451 46.9707 254.153 47.792C253.854 48.6027 253.411 49.312 252.825 49.92C252.238 50.5173 251.523 50.9707 250.681 51.28L249.737 49.888C250.483 49.632 251.113 49.264 251.625 48.784C252.147 48.2933 252.537 47.7387 252.793 47.12C253.049 46.4907 253.177 45.8347 253.177 45.152V43.808H254.601ZM254.921 43.808V45.296C254.921 45.904 255.043 46.4853 255.289 47.04C255.545 47.5947 255.918 48.0907 256.409 48.528C256.91 48.9547 257.513 49.28 258.217 49.504L257.305 50.864C256.505 50.5867 255.817 50.176 255.241 49.632C254.675 49.0773 254.243 48.432 253.945 47.696C253.657 46.9493 253.513 46.1493 253.513 45.296V43.808H254.921ZM261.049 43.056V51.552H259.289V43.056H261.049ZM263.033 46.496V47.952H260.569V46.496H263.033ZM256.457 51.904C257.939 51.904 259.102 52.144 259.945 52.624C260.787 53.0933 261.209 53.7493 261.209 54.592C261.209 55.1573 261.017 55.6373 260.633 56.032C260.249 56.4373 259.699 56.7467 258.985 56.96C258.281 57.1733 257.438 57.28 256.457 57.28C255.475 57.28 254.627 57.1733 253.913 56.96C253.198 56.7467 252.649 56.4373 252.265 56.032C251.881 55.6267 251.689 55.1467 251.689 54.592C251.689 54.0373 251.881 53.5573 252.265 53.152C252.649 52.7467 253.198 52.4373 253.913 52.224C254.627 52.0107 255.475 51.904 256.457 51.904ZM256.457 53.264C255.486 53.264 254.734 53.3813 254.201 53.616C253.678 53.84 253.417 54.1653 253.417 54.592C253.417 55.0187 253.678 55.3493 254.201 55.584C254.734 55.808 255.486 55.92 256.457 55.92C257.427 55.92 258.174 55.808 258.697 55.584C259.219 55.3493 259.481 55.0187 259.481 54.592C259.481 54.1653 259.219 53.84 258.697 53.616C258.174 53.3813 257.427 53.264 256.457 53.264ZM271.609 48.4V49.824H269.129V48.4H271.609ZM275.577 43.04V57.28H273.913V43.04H275.577ZM272.681 43.312V56.608H271.033V43.312H272.681ZM266.601 44.112C267.22 44.112 267.758 44.32 268.217 44.736C268.686 45.1413 269.049 45.728 269.305 46.496C269.561 47.264 269.689 48.1653 269.689 49.2C269.689 50.2453 269.561 51.152 269.305 51.92C269.049 52.688 268.686 53.28 268.217 53.696C267.758 54.1013 267.22 54.304 266.601 54.304C265.982 54.304 265.444 54.1013 264.985 53.696C264.526 53.28 264.169 52.688 263.913 51.92C263.668 51.152 263.545 50.2453 263.545 49.2C263.545 48.1653 263.668 47.264 263.913 46.496C264.169 45.728 264.526 45.1413 264.985 44.736C265.444 44.32 265.982 44.112 266.601 44.112ZM266.601 45.776C266.292 45.776 266.03 45.9093 265.817 46.176C265.604 46.432 265.438 46.816 265.321 47.328C265.204 47.84 265.145 48.464 265.145 49.2C265.145 49.936 265.204 50.5653 265.321 51.088C265.438 51.6 265.604 51.9893 265.817 52.256C266.03 52.5227 266.292 52.656 266.601 52.656C266.91 52.656 267.172 52.5227 267.385 52.256C267.609 51.9893 267.78 51.6 267.897 51.088C268.014 50.5653 268.073 49.936 268.073 49.2C268.073 48.464 268.014 47.84 267.897 47.328C267.78 46.816 267.609 46.432 267.385 46.176C267.172 45.9093 266.91 45.776 266.601 45.776ZM287.898 47.648V49.072H284.058V47.648H287.898ZM281.786 44.192V46.448C281.786 47.6 281.631 48.704 281.322 49.76C281.012 50.8053 280.564 51.7333 279.978 52.544C279.391 53.344 278.687 53.952 277.866 54.368L276.778 52.96C277.514 52.608 278.154 52.0907 278.698 51.408C279.242 50.7253 279.652 49.952 279.93 49.088C280.218 48.224 280.362 47.344 280.362 46.448V44.192H281.786ZM282.122 44.192V46.448C282.122 47.344 282.255 48.208 282.522 49.04C282.799 49.872 283.199 50.6133 283.722 51.264C284.244 51.904 284.874 52.3893 285.61 52.72L284.57 54.128C283.748 53.7227 283.044 53.136 282.458 52.368C281.882 51.5893 281.444 50.6933 281.146 49.68C280.847 48.656 280.698 47.5787 280.698 46.448V44.192H282.122ZM288.762 43.024V57.312H287.018V43.024H288.762ZM31.152 63.992V65.4H26.896V63.992H31.152ZM31.152 67.192V68.616H26.896V67.192H31.152ZM24.448 62.84C25.1413 62.84 25.7707 62.9893 26.336 63.288C26.9013 63.5867 27.344 63.9973 27.664 64.52C27.9947 65.0427 28.16 65.6347 28.16 66.296C28.16 66.9467 27.9947 67.5387 27.664 68.072C27.344 68.5947 26.9013 69.0053 26.336 69.304C25.7707 69.592 25.1413 69.736 24.448 69.736C23.744 69.736 23.1093 69.592 22.544 69.304C21.9787 69.0053 21.5307 68.5947 21.2 68.072C20.88 67.5493 20.72 66.9573 20.72 66.296C20.72 65.6347 20.88 65.0427 21.2 64.52C21.5307 63.9867 21.9787 63.576 22.544 63.288C23.1093 62.9893 23.744 62.84 24.448 62.84ZM24.448 64.328C24.0533 64.328 23.696 64.408 23.376 64.568C23.0667 64.728 22.8213 64.9573 22.64 65.256C22.4693 65.5547 22.384 65.896 22.384 66.28C22.384 66.6747 22.4693 67.0213 22.64 67.32C22.8213 67.6187 23.0667 67.848 23.376 68.008C23.696 68.168 24.0533 68.248 24.448 68.248C24.8427 68.248 25.1947 68.168 25.504 68.008C25.8133 67.848 26.0533 67.6187 26.224 67.32C26.3947 67.0213 26.48 66.68 26.48 66.296C26.48 65.9013 26.3947 65.5547 26.224 65.256C26.0533 64.9573 25.8133 64.728 25.504 64.568C25.1947 64.408 24.8427 64.328 24.448 64.328ZM32.368 62.056V70.424H30.608V62.056H32.368ZM27.6 70.728C29.0933 70.728 30.2667 70.9733 31.12 71.464C31.984 71.9547 32.416 72.6373 32.416 73.512C32.416 74.376 31.984 75.0533 31.12 75.544C30.2667 76.0347 29.0933 76.28 27.6 76.28C26.1067 76.28 24.928 76.0347 24.064 75.544C23.2 75.0533 22.768 74.376 22.768 73.512C22.768 72.6373 23.2 71.9547 24.064 71.464C24.928 70.9733 26.1067 70.728 27.6 70.728ZM27.6 72.088C26.9387 72.088 26.3733 72.1413 25.904 72.248C25.4453 72.3547 25.0933 72.5147 24.848 72.728C24.6133 72.9413 24.496 73.1973 24.496 73.496C24.496 73.8053 24.6133 74.0667 24.848 74.28C25.0933 74.4933 25.4453 74.6533 25.904 74.76C26.3733 74.8667 26.9387 74.92 27.6 74.92C28.2613 74.92 28.8213 74.8667 29.28 74.76C29.7387 74.6533 30.0853 74.4933 30.32 74.28C30.5653 74.0667 30.688 73.8053 30.688 73.496C30.688 73.1973 30.5653 72.9413 30.32 72.728C30.0853 72.5147 29.7387 72.3547 29.28 72.248C28.8213 72.1413 28.2613 72.088 27.6 72.088ZM37.8884 63.064C38.5924 63.064 39.2164 63.272 39.7604 63.688C40.315 64.0933 40.747 64.68 41.0564 65.448C41.3657 66.2053 41.5204 67.0907 41.5204 68.104C41.5204 69.1173 41.3657 70.008 41.0564 70.776C40.747 71.544 40.315 72.136 39.7604 72.552C39.2164 72.9573 38.5924 73.16 37.8884 73.16C37.195 73.16 36.571 72.9573 36.0164 72.552C35.4724 72.136 35.0457 71.544 34.7364 70.776C34.427 70.008 34.2724 69.1173 34.2724 68.104C34.2724 67.0907 34.427 66.2053 34.7364 65.448C35.0457 64.68 35.4724 64.0933 36.0164 63.688C36.571 63.272 37.195 63.064 37.8884 63.064ZM37.8884 64.664C37.5044 64.664 37.163 64.8027 36.8644 65.08C36.5764 65.3467 36.347 65.7413 36.1764 66.264C36.0164 66.776 35.9364 67.3893 35.9364 68.104C35.9364 68.8187 36.0164 69.4373 36.1764 69.96C36.347 70.4827 36.5764 70.8827 36.8644 71.16C37.163 71.4373 37.5044 71.576 37.8884 71.576C38.283 71.576 38.6297 71.4373 38.9284 71.16C39.227 70.8827 39.4564 70.4827 39.6164 69.96C39.7764 69.4373 39.8564 68.8187 39.8564 68.104C39.8564 67.3893 39.7764 66.776 39.6164 66.264C39.4564 65.7413 39.227 65.3467 38.9284 65.08C38.6297 64.8027 38.283 64.664 37.8884 64.664ZM45.8884 62.024V76.312H44.1444V62.024H45.8884ZM44.8964 67.288V68.696H40.9764V67.288H44.8964ZM60.4488 68.536V69.816H47.5528V68.536H60.4488ZM58.8808 70.696V73.944H50.8008V75.336H49.0568V72.808H57.1528V71.912H49.0248V70.696H58.8808ZM59.2968 74.936V76.152H49.0568V74.936H59.2968ZM58.8328 62.36V65.576H50.8968V66.888H49.1848V64.44H57.1048V63.576H49.1528V62.36H58.8328ZM59.1048 66.488V67.72H49.1848V66.488H59.1048ZM75.4166 62.056V69.176H73.6566V62.056H75.4166ZM77.3846 65.112V66.552H74.6966V65.112H77.3846ZM71.4486 62.952V68.84H64.7606V62.952H71.4486ZM66.4886 64.328V67.464H69.7206V64.328H66.4886ZM66.3766 74.504C67.0166 74.504 67.614 74.472 68.1686 74.408C68.734 74.3333 69.2673 74.2053 69.7686 74.024L70.0406 75.432C69.4646 75.624 68.8833 75.752 68.2966 75.816C67.71 75.8907 67.07 75.928 66.3766 75.928H65.6246V74.504H66.3766ZM67.3206 70.456V74.872H65.6246V70.456H67.3206ZM76.6486 70.584V71.848H69.5286V70.584H76.6486ZM73.0966 72.28C73.8966 72.28 74.5473 72.4613 75.0486 72.824C75.55 73.1867 75.8006 73.672 75.8006 74.28C75.8006 74.888 75.55 75.3733 75.0486 75.736C74.5473 76.1093 73.8913 76.296 73.0806 76.296C72.2806 76.296 71.63 76.1093 71.1286 75.736C70.638 75.3733 70.3926 74.888 70.3926 74.28C70.3926 73.672 70.6433 73.1867 71.1446 72.824C71.646 72.4613 72.2966 72.28 73.0966 72.28ZM73.0966 73.496C72.7553 73.496 72.478 73.5653 72.2646 73.704C72.0513 73.8427 71.9446 74.0347 71.9446 74.28C71.9446 74.5253 72.0513 74.7227 72.2646 74.872C72.478 75.0107 72.7553 75.08 73.0966 75.08C73.438 75.08 73.7153 75.0107 73.9286 74.872C74.142 74.7227 74.2486 74.5253 74.2486 74.28C74.2486 74.0347 74.142 73.8427 73.9286 73.704C73.7153 73.5653 73.438 73.496 73.0966 73.496ZM73.9606 69.48V71.512H72.2486V69.48H73.9606ZM89.513 62.024V76.312H87.737V62.024H89.513ZM81.897 63.064C82.6117 63.064 83.2463 63.272 83.801 63.688C84.3663 64.0933 84.8037 64.68 85.113 65.448C85.433 66.2053 85.593 67.0907 85.593 68.104C85.593 69.1173 85.433 70.008 85.113 70.776C84.8037 71.544 84.3663 72.136 83.801 72.552C83.2463 72.9573 82.6117 73.16 81.897 73.16C81.1823 73.16 80.5423 72.9573 79.977 72.552C79.4223 72.136 78.985 71.544 78.665 70.776C78.3557 70.008 78.201 69.1173 78.201 68.104C78.201 67.0907 78.3557 66.2053 78.665 65.448C78.985 64.68 79.4223 64.0933 79.977 63.688C80.5423 63.272 81.1823 63.064 81.897 63.064ZM81.897 64.664C81.5023 64.664 81.1503 64.8027 80.841 65.08C80.5423 65.3467 80.3077 65.7413 80.137 66.264C79.977 66.776 79.897 67.3893 79.897 68.104C79.897 68.8187 79.977 69.4373 80.137 69.96C80.3077 70.4827 80.5423 70.8827 80.841 71.16C81.1503 71.4373 81.5023 71.576 81.897 71.576C82.2917 71.576 82.6383 71.4373 82.937 71.16C83.2463 70.8827 83.481 70.4827 83.641 69.96C83.8117 69.4373 83.897 68.8187 83.897 68.104C83.897 67.3893 83.8117 66.776 83.641 66.264C83.481 65.7413 83.2463 65.3467 82.937 65.08C82.6383 64.8027 82.2917 64.664 81.897 64.664ZM105.478 65.336V66.76H102.582V65.336H105.478ZM106.758 62.056V69.816H104.998V62.056H106.758ZM99.1896 70.424V71.896H105.03V70.424H106.758V76.12H97.4456V70.424H99.1896ZM99.1896 74.696H105.03V73.272H99.1896V74.696ZM99.7816 63.16V64.152C99.7816 65.048 99.627 65.8907 99.3176 66.68C99.0083 67.4693 98.555 68.1627 97.9576 68.76C97.3603 69.3467 96.6403 69.784 95.7976 70.072L94.9016 68.68C95.6376 68.424 96.2616 68.0613 96.7736 67.592C97.2963 67.1227 97.6856 66.5947 97.9416 66.008C98.2083 65.4107 98.3416 64.792 98.3416 64.152V63.16H99.7816ZM100.118 63.16V64.136C100.118 64.7333 100.246 65.3147 100.502 65.88C100.758 66.4347 101.136 66.936 101.638 67.384C102.139 67.8213 102.742 68.1573 103.446 68.392L102.566 69.768C101.744 69.4907 101.046 69.0693 100.47 68.504C99.8936 67.9387 99.4563 67.2827 99.1576 66.536C98.8696 65.7787 98.7256 64.9787 98.7256 64.136V63.16H100.118ZM103.046 62.776V64.168H95.3976V62.776H103.046ZM119.59 62.024V69.768H117.83V62.024H119.59ZM121.574 65.208V66.648H118.886V65.208H121.574ZM119.59 70.408V73.848H112.102V75.304H110.374V72.632H117.862V71.704H110.342V70.408H119.59ZM120.054 74.856V76.168H110.374V74.856H120.054ZM116.854 63.176V64.52H108.47V63.176H116.854ZM112.662 64.968C113.707 64.968 114.545 65.1813 115.174 65.608C115.814 66.024 116.134 66.5893 116.134 67.304C116.134 68.0187 115.814 68.584 115.174 69C114.545 69.416 113.702 69.624 112.646 69.624C111.601 69.624 110.763 69.416 110.134 69C109.515 68.584 109.206 68.0187 109.206 67.304C109.206 66.5893 109.515 66.024 110.134 65.608C110.763 65.1813 111.606 64.968 112.662 64.968ZM112.662 66.232C112.107 66.232 111.67 66.328 111.35 66.52C111.041 66.7013 110.886 66.9627 110.886 67.304C110.886 67.6453 111.041 67.912 111.35 68.104C111.67 68.2853 112.107 68.376 112.662 68.376C113.217 68.376 113.649 68.2853 113.958 68.104C114.278 67.912 114.438 67.6453 114.438 67.304C114.438 66.9627 114.278 66.7013 113.958 66.52C113.649 66.328 113.217 66.232 112.662 66.232ZM113.542 61.912V64.12H111.782V61.912H113.542ZM132.222 62.504V63.224C132.222 64.12 131.977 64.952 131.486 65.72C130.995 66.4773 130.307 67.112 129.422 67.624C128.547 68.136 127.539 68.4773 126.398 68.648L125.71 67.256C126.681 67.1173 127.545 66.8453 128.302 66.44C129.059 66.0347 129.646 65.5493 130.062 64.984C130.478 64.4187 130.686 63.832 130.686 63.224V62.504H132.222ZM132.542 62.504V63.224C132.542 63.8213 132.75 64.4027 133.166 64.968C133.582 65.5333 134.169 66.024 134.926 66.44C135.683 66.8453 136.547 67.1173 137.518 67.256L136.83 68.648C135.699 68.4773 134.691 68.136 133.806 67.624C132.921 67.1013 132.233 66.4613 131.742 65.704C131.251 64.936 131.006 64.1093 131.006 63.224V62.504H132.542ZM132.446 71V76.296H130.686V71H132.446ZM138.046 69.896V71.336H125.166V69.896H138.046ZM146.55 70.744V71.32C146.55 72.0133 146.427 72.6747 146.182 73.304C145.947 73.9333 145.59 74.4933 145.11 74.984C144.63 75.464 144.043 75.832 143.35 76.088L142.486 74.792C143.083 74.5893 143.584 74.3067 143.99 73.944C144.406 73.5707 144.715 73.16 144.918 72.712C145.12 72.2533 145.222 71.7893 145.222 71.32V70.744H146.55ZM146.902 70.744V71.32C146.902 72.0773 147.11 72.7867 147.526 73.448C147.942 74.0987 148.566 74.5893 149.398 74.92L148.694 76.232C147.659 75.8373 146.891 75.1973 146.39 74.312C145.888 73.416 145.638 72.4187 145.638 71.32V70.744H146.902ZM151.702 70.744V71.32C151.702 71.9707 151.595 72.6213 151.382 73.272C151.168 73.912 150.832 74.4933 150.374 75.016C149.926 75.5493 149.366 75.9547 148.694 76.232L147.958 74.92C148.502 74.6747 148.96 74.3547 149.334 73.96C149.707 73.5547 149.984 73.1227 150.166 72.664C150.347 72.2053 150.438 71.7573 150.438 71.32V70.744H151.702ZM152.15 70.744V71.32C152.15 71.8213 152.251 72.3013 152.454 72.76C152.656 73.2187 152.96 73.624 153.366 73.976C153.782 74.328 154.288 74.6 154.886 74.792L154.038 76.088C152.982 75.7253 152.182 75.1227 151.638 74.28C151.094 73.4267 150.822 72.44 150.822 71.32V70.744H152.15ZM153.654 62.056V70.136H151.878V62.056H153.654ZM145.942 62.824C146.667 62.824 147.318 62.968 147.894 63.256C148.47 63.544 148.923 63.944 149.254 64.456C149.584 64.968 149.75 65.5493 149.75 66.2C149.75 66.8507 149.584 67.432 149.254 67.944C148.923 68.456 148.47 68.856 147.894 69.144C147.318 69.4213 146.667 69.56 145.942 69.56C145.216 69.56 144.566 69.4213 143.99 69.144C143.414 68.856 142.96 68.456 142.63 67.944C142.299 67.432 142.134 66.8507 142.134 66.2C142.134 65.5493 142.299 64.968 142.63 64.456C142.96 63.944 143.414 63.544 143.99 63.256C144.566 62.968 145.216 62.824 145.942 62.824ZM145.942 64.28C145.547 64.28 145.19 64.36 144.87 64.52C144.55 64.68 144.299 64.904 144.118 65.192C143.936 65.48 143.846 65.816 143.846 66.2C143.846 66.584 143.936 66.9253 144.118 67.224C144.299 67.512 144.544 67.736 144.854 67.896C145.174 68.0453 145.536 68.12 145.942 68.12C146.347 68.12 146.704 68.0453 147.014 67.896C147.334 67.736 147.584 67.512 147.766 67.224C147.947 66.9253 148.038 66.584 148.038 66.2C148.038 65.816 147.947 65.48 147.766 65.192C147.584 64.904 147.334 64.68 147.014 64.52C146.704 64.36 146.347 64.28 145.942 64.28ZM167.574 62.04V76.28H165.894V62.04H167.574ZM163.286 67.64V69.048H160.054V67.64H163.286ZM164.55 62.376V75.608H162.902V62.376H164.55ZM161.526 63.768C161.526 65.1333 161.355 66.392 161.014 67.544C160.673 68.6853 160.113 69.7413 159.334 70.712C158.555 71.6827 157.531 72.5413 156.262 73.288L155.254 72.04C156.331 71.4 157.206 70.6853 157.878 69.896C158.55 69.1067 159.041 68.2373 159.35 67.288C159.659 66.3387 159.814 65.2827 159.814 64.12V63.768H161.526ZM160.406 63.768V65.192H155.974V63.768H160.406ZM176.638 67.016V70.024H175.006V67.016H176.638ZM172.03 69.064C175.134 69.064 177.486 68.952 179.086 68.728L179.166 69.944C178.195 70.136 177.134 70.264 175.982 70.328C174.841 70.392 173.587 70.4293 172.222 70.44L172.03 69.064ZM184.286 62.04V70.776H182.606V62.04H184.286ZM183.15 65.848V67.256H180.862V65.848H183.15ZM181.326 62.328V70.696H179.694V62.328H181.326ZM178.75 66.216V67.624H172.846V66.216H178.75ZM178.718 62.904V64.296H174.542V66.84H172.846V62.904H178.718ZM176.798 71.32V71.688C176.798 72.712 176.521 73.6293 175.966 74.44C175.411 75.2507 174.606 75.8267 173.55 76.168L172.734 74.872C173.331 74.7013 173.833 74.4507 174.238 74.12C174.654 73.7893 174.963 73.416 175.166 73C175.379 72.5733 175.486 72.136 175.486 71.688V71.32H176.798ZM177.182 71.32V71.688C177.182 72.1253 177.273 72.5573 177.454 72.984C177.635 73.4107 177.907 73.8053 178.27 74.168C178.643 74.52 179.097 74.7973 179.63 75L178.942 76.28C177.929 75.9173 177.171 75.3147 176.67 74.472C176.179 73.6293 175.934 72.7013 175.934 71.688V71.32H177.182ZM181.95 71.32V71.688C181.95 72.68 181.699 73.6027 181.198 74.456C180.697 75.3093 179.945 75.9173 178.942 76.28L178.238 75C178.782 74.7867 179.235 74.4987 179.598 74.136C179.971 73.7733 180.243 73.384 180.414 72.968C180.595 72.5413 180.686 72.1147 180.686 71.688V71.32H181.95ZM182.414 71.32V71.688C182.414 72.1573 182.515 72.6053 182.718 73.032C182.921 73.448 183.23 73.8213 183.646 74.152C184.062 74.472 184.569 74.712 185.166 74.872L184.334 76.168C183.267 75.8373 182.457 75.272 181.902 74.472C181.358 73.672 181.086 72.744 181.086 71.688V71.32H182.414ZM189.438 63.064C190.142 63.064 190.766 63.272 191.31 63.688C191.865 64.0933 192.297 64.68 192.606 65.448C192.916 66.2053 193.07 67.0907 193.07 68.104C193.07 69.1173 192.916 70.008 192.606 70.776C192.297 71.544 191.865 72.136 191.31 72.552C190.766 72.9573 190.142 73.16 189.438 73.16C188.745 73.16 188.121 72.9573 187.566 72.552C187.022 72.136 186.596 71.544 186.286 70.776C185.977 70.008 185.822 69.1173 185.822 68.104C185.822 67.0907 185.977 66.2053 186.286 65.448C186.596 64.68 187.022 64.0933 187.566 63.688C188.121 63.272 188.745 63.064 189.438 63.064ZM189.438 64.664C189.054 64.664 188.713 64.8027 188.414 65.08C188.126 65.3467 187.897 65.7413 187.726 66.264C187.566 66.776 187.486 67.3893 187.486 68.104C187.486 68.8187 187.566 69.4373 187.726 69.96C187.897 70.4827 188.126 70.8827 188.414 71.16C188.713 71.4373 189.054 71.576 189.438 71.576C189.833 71.576 190.18 71.4373 190.478 71.16C190.777 70.8827 191.006 70.4827 191.166 69.96C191.326 69.4373 191.406 68.8187 191.406 68.104C191.406 67.3893 191.326 66.776 191.166 66.264C191.006 65.7413 190.777 65.3467 190.478 65.08C190.18 64.8027 189.833 64.664 189.438 64.664ZM197.438 62.024V76.312H195.694V62.024H197.438ZM196.446 67.288V68.696H192.526V67.288H196.446ZM203.823 69.304V73.4H202.063V69.304H203.823ZM209.023 69.304V73.4H207.263V69.304H209.023ZM211.999 73.128V74.552H199.103V73.128H211.999ZM205.535 62.808C206.548 62.808 207.455 62.9627 208.255 63.272C209.055 63.5813 209.679 64.024 210.127 64.6C210.575 65.1653 210.799 65.8213 210.799 66.568C210.799 67.3147 210.575 67.976 210.127 68.552C209.679 69.1173 209.055 69.5547 208.255 69.864C207.455 70.1733 206.548 70.328 205.535 70.328C204.521 70.328 203.615 70.1733 202.815 69.864C202.025 69.5547 201.401 69.1173 200.943 68.552C200.495 67.976 200.271 67.3147 200.271 66.568C200.271 65.8213 200.495 65.1653 200.943 64.6C201.401 64.024 202.025 63.5813 202.815 63.272C203.615 62.9627 204.521 62.808 205.535 62.808ZM205.535 64.184C204.841 64.184 204.228 64.28 203.695 64.472C203.161 64.664 202.745 64.9413 202.447 65.304C202.148 65.6667 201.999 66.088 201.999 66.568C201.999 67.0587 202.143 67.4853 202.431 67.848C202.729 68.2 203.145 68.472 203.679 68.664C204.223 68.856 204.841 68.952 205.535 68.952C206.228 68.952 206.841 68.856 207.375 68.664C207.919 68.472 208.335 68.2 208.623 67.848C208.921 67.4853 209.071 67.0587 209.071 66.568C209.071 66.088 208.921 65.6667 208.623 65.304C208.324 64.9413 207.908 64.664 207.375 64.472C206.841 64.28 206.228 64.184 205.535 64.184ZM215.647 71.88H214.015L213.711 62.92H215.903L215.647 71.88ZM214.847 73.384C215.135 73.384 215.37 73.4747 215.551 73.656C215.732 73.8373 215.823 74.0773 215.823 74.376C215.823 74.6747 215.732 74.9147 215.551 75.096C215.37 75.288 215.135 75.384 214.847 75.384C214.548 75.384 214.303 75.288 214.111 75.096C213.93 74.9147 213.839 74.6747 213.839 74.376C213.839 74.0773 213.93 73.8373 214.111 73.656C214.303 73.4747 214.548 73.384 214.847 73.384ZM30.976 82.416V83.824H21.888V82.416H30.976ZM33.424 91.904V93.344H20.544V91.904H33.424ZM31.776 82.416V84.016C31.776 85.3067 31.744 86.448 31.68 87.44C31.6267 88.4213 31.488 89.5733 31.264 90.896L29.504 90.736C29.7387 89.4987 29.8827 88.3893 29.936 87.408C30 86.4267 30.032 85.296 30.032 84.016V82.416H31.776ZM41.2324 82.256V89.04H34.5444V82.256H41.2324ZM36.2724 83.648V87.616H39.5044V83.648H36.2724ZM45.2004 81.04V91.44H43.4404V81.04H45.2004ZM47.1684 85.232V86.688H44.6884V85.232H47.1684ZM45.7604 93.6V95.008H36.1444V93.6H45.7604ZM37.9044 90.432V94.272H36.1444V90.432H37.9044ZM58.2408 81.584V82.992H49.1688V81.584H58.2408ZM60.4328 87.456V88.864H47.5528V87.456H60.4328ZM58.8648 81.584V82.816C58.8648 83.7653 58.8381 84.6133 58.7848 85.36C58.7421 86.096 58.6194 86.944 58.4168 87.904L56.6888 87.728C56.8914 86.8107 57.0194 85.9947 57.0728 85.28C57.1261 84.5547 57.1528 83.7333 57.1528 82.816V81.584H58.8648ZM57.6648 85.616L48.9928 85.984L48.7688 84.56L57.6648 84.32V85.616ZM58.8488 90.192V95.136H49.0888V90.192H58.8488ZM50.8168 91.6V93.728H57.1368V91.6H50.8168ZM76.0086 81.056V88.304H74.2486V81.056H76.0086ZM76.0086 88.976V92.656H68.3926V94.304H66.6646V91.392H74.2806V90.336H66.6326V88.976H76.0086ZM76.4246 93.792V95.168H66.6646V93.792H76.4246ZM69.1766 81.408V82.48C69.1766 83.3653 69.0166 84.1973 68.6966 84.976C68.3873 85.744 67.9233 86.4213 67.3046 87.008C66.6966 87.584 65.9606 88.016 65.0966 88.304L64.2486 86.896C64.9846 86.6613 65.614 86.32 66.1366 85.872C66.67 85.4133 67.07 84.8907 67.3366 84.304C67.6033 83.7173 67.7366 83.1093 67.7366 82.48V81.408H69.1766ZM69.5126 81.408V82.48C69.5126 83.088 69.646 83.6693 69.9126 84.224C70.1793 84.7787 70.5686 85.2693 71.0806 85.696C71.5926 86.1227 72.2113 86.448 72.9366 86.672L72.0886 88.032C71.246 87.7653 70.5206 87.36 69.9126 86.816C69.3153 86.272 68.862 85.632 68.5526 84.896C68.2433 84.1493 68.0886 83.344 68.0886 82.48V81.408H69.5126ZM79.369 87.936C80.809 87.936 81.929 87.9147 82.729 87.872C83.529 87.8293 84.329 87.7387 85.129 87.6L85.305 88.992C84.4943 89.1413 83.673 89.2373 82.841 89.28C82.009 89.3227 80.8517 89.344 79.369 89.344H78.313V87.936H79.369ZM84.505 81.872V86.192H80.073V88.848H78.313V84.864H82.777V83.296H78.281V81.872H84.505ZM89.593 81.056V89.824H87.833V81.056H89.593ZM88.185 83.072V84.496H85.369V83.072H88.185ZM88.185 86.08V87.472H85.369V86.08H88.185ZM89.593 90.512V95.312H87.833V91.92H79.929V90.512H89.593ZM102.745 87.504V88.912H92.8254V87.504H102.745ZM104.169 92.16V93.6H91.2734V92.16H104.169ZM98.5694 88.128V92.656H96.8254V88.128H98.5694ZM102.617 82.08V83.488H94.5854V88.128H92.8254V82.08H102.617ZM119.617 81.056V88.464H117.889V81.056H119.617ZM121.121 83.936V85.376H118.433V83.936H121.121ZM109.665 81.68V83.408H110.801V81.68H112.241V87.888H108.225V81.68H109.665ZM109.665 86.512H110.801V84.752H109.665V86.512ZM114.369 81.68V83.408H115.505V81.68H116.945V87.888H112.929V81.68H114.369ZM114.369 86.512H115.505V84.752H114.369V86.512ZM119.617 89.008V92.672H111.825V94.496H110.097V91.392H117.873V90.368H110.049V89.008H119.617ZM120.081 93.792V95.168H110.097V93.792H120.081ZM133.266 81.024V95.312H131.506V81.024H133.266ZM123.506 90.496C124.871 90.496 126.082 90.464 127.138 90.4C128.194 90.336 129.276 90.208 130.386 90.016L130.562 91.44C129.431 91.632 128.322 91.7653 127.234 91.84C126.156 91.904 124.914 91.936 123.506 91.936H122.274V90.496H123.506ZM128.914 82.304V87.648H124.05V91.056H122.274V86.24H127.138V83.712H122.242V82.304H128.914ZM149.61 84.096V85.504H139.85V84.096H149.61ZM151.098 86.608V88.016H138.202V86.608H151.098ZM141.578 81.232V84.816H139.85V81.232H141.578ZM149.53 89.024V92.64H141.498V94.128H139.738V91.376H147.77V90.368H139.706V89.024H149.53ZM149.962 93.776V95.12H139.738V93.776H149.962ZM155.546 82.064C156.25 82.064 156.874 82.272 157.418 82.688C157.973 83.0933 158.405 83.68 158.714 84.448C159.023 85.2053 159.178 86.0907 159.178 87.104C159.178 88.1173 159.023 89.008 158.714 89.776C158.405 90.544 157.973 91.136 157.418 91.552C156.874 91.9573 156.25 92.16 155.546 92.16C154.853 92.16 154.229 91.9573 153.674 91.552C153.13 91.136 152.703 90.544 152.394 89.776C152.085 89.008 151.93 88.1173 151.93 87.104C151.93 86.0907 152.085 85.2053 152.394 84.448C152.703 83.68 153.13 83.0933 153.674 82.688C154.229 82.272 154.853 82.064 155.546 82.064ZM155.546 83.664C155.162 83.664 154.821 83.8027 154.522 84.08C154.234 84.3467 154.005 84.7413 153.834 85.264C153.674 85.776 153.594 86.3893 153.594 87.104C153.594 87.8187 153.674 88.4373 153.834 88.96C154.005 89.4827 154.234 89.8827 154.522 90.16C154.821 90.4373 155.162 90.576 155.546 90.576C155.941 90.576 156.287 90.4373 156.586 90.16C156.885 89.8827 157.114 89.4827 157.274 88.96C157.434 88.4373 157.514 87.8187 157.514 87.104C157.514 86.3893 157.434 85.776 157.274 85.264C157.114 84.7413 156.885 84.3467 156.586 84.08C156.287 83.8027 155.941 83.664 155.546 83.664ZM163.546 81.024V95.312H161.802V81.024H163.546ZM162.554 86.288V87.696H158.634V86.288H162.554ZM176.186 85.648V87.072H172.346V85.648H176.186ZM170.074 82.192V84.448C170.074 85.6 169.92 86.704 169.61 87.76C169.301 88.8053 168.853 89.7333 168.266 90.544C167.68 91.344 166.976 91.952 166.154 92.368L165.066 90.96C165.802 90.608 166.442 90.0907 166.986 89.408C167.53 88.7253 167.941 87.952 168.218 87.088C168.506 86.224 168.65 85.344 168.65 84.448V82.192H170.074ZM170.41 82.192V84.448C170.41 85.344 170.544 86.208 170.81 87.04C171.088 87.872 171.488 88.6133 172.01 89.264C172.533 89.904 173.162 90.3893 173.898 90.72L172.858 92.128C172.037 91.7227 171.333 91.136 170.746 90.368C170.17 89.5893 169.733 88.6933 169.434 87.68C169.136 86.656 168.986 85.5787 168.986 84.448V82.192H170.41ZM177.05 81.024V95.312H175.306V81.024H177.05ZM189.218 85.296V87.344H187.458V85.296H189.218ZM188.69 82.016V82.416C188.69 83.0773 188.455 83.6747 187.986 84.208C187.527 84.7307 186.871 85.1627 186.018 85.504C185.175 85.8347 184.189 86.0373 183.058 86.112L182.514 84.8C183.453 84.736 184.274 84.592 184.978 84.368C185.682 84.1333 186.221 83.8453 186.594 83.504C186.967 83.1627 187.154 82.8 187.154 82.416V82.016H188.69ZM189.554 82.016V82.416C189.554 82.8 189.741 83.1627 190.114 83.504C190.487 83.8453 191.021 84.1333 191.714 84.368C192.418 84.592 193.245 84.736 194.194 84.8L193.65 86.112C192.519 86.0373 191.527 85.8347 190.674 85.504C189.831 85.1733 189.175 84.7413 188.706 84.208C188.247 83.6747 188.018 83.0773 188.018 82.416V82.016H189.554ZM193.634 81.44V82.784H183.09V81.44H193.634ZM193.602 89.744V91.072H183.09V89.744H193.602ZM194.818 86.736V88.128H181.922V86.736H194.818ZM188.338 91.6C189.725 91.6 190.786 91.76 191.522 92.08C192.269 92.4 192.642 92.864 192.642 93.472C192.642 94.08 192.269 94.544 191.522 94.864C190.786 95.184 189.725 95.344 188.338 95.344C186.951 95.344 185.885 95.184 185.138 94.864C184.391 94.544 184.018 94.08 184.018 93.472C184.018 92.864 184.391 92.4 185.138 92.08C185.885 91.76 186.951 91.6 188.338 91.6ZM188.338 92.768C187.495 92.768 186.866 92.8267 186.45 92.944C186.045 93.0507 185.842 93.2267 185.842 93.472C185.842 93.7067 186.05 93.8827 186.466 94C186.882 94.1173 187.506 94.176 188.338 94.176C189.17 94.176 189.794 94.1173 190.21 94C190.626 93.8827 190.834 93.7067 190.834 93.472C190.834 93.2267 190.626 93.0507 190.21 92.944C189.805 92.8267 189.181 92.768 188.338 92.768ZM189.218 88.608V90.56H187.458V88.608H189.218ZM199.235 82.064C199.939 82.064 200.568 82.272 201.123 82.688C201.677 83.0933 202.109 83.68 202.419 84.448C202.739 85.2053 202.899 86.0907 202.899 87.104C202.899 88.1173 202.739 89.008 202.419 89.776C202.109 90.544 201.677 91.136 201.123 91.552C200.568 91.9573 199.939 92.16 199.235 92.16C198.52 92.16 197.885 91.9573 197.331 91.552C196.776 91.136 196.339 90.544 196.019 89.776C195.709 89.008 195.555 88.1173 195.555 87.104C195.555 86.0907 195.709 85.2053 196.019 84.448C196.339 83.68 196.776 83.0933 197.331 82.688C197.885 82.272 198.52 82.064 199.235 82.064ZM199.235 83.664C198.84 83.664 198.488 83.8027 198.179 84.08C197.88 84.3467 197.645 84.7413 197.475 85.264C197.315 85.776 197.235 86.3893 197.235 87.104C197.235 87.8187 197.315 88.4373 197.475 88.96C197.645 89.4827 197.88 89.8827 198.179 90.16C198.488 90.4373 198.84 90.576 199.235 90.576C199.629 90.576 199.976 90.4373 200.275 90.16C200.573 89.8827 200.803 89.4827 200.963 88.96C201.133 88.4373 201.219 87.8187 201.219 87.104C201.219 86.3893 201.133 85.776 200.963 85.264C200.803 84.7413 200.573 84.3467 200.275 84.08C199.976 83.8027 199.629 83.664 199.235 83.664ZM206.515 81.056V95.296H204.739V81.056H206.515ZM208.675 86.544V88H206.115V86.544H208.675ZM213.651 88.304V92.4H211.891V88.304H213.651ZM218.851 88.304V92.4H217.091V88.304H218.851ZM221.827 92.128V93.552H208.931V92.128H221.827ZM215.363 81.808C216.376 81.808 217.283 81.9627 218.083 82.272C218.883 82.5813 219.507 83.024 219.955 83.6C220.403 84.1653 220.627 84.8213 220.627 85.568C220.627 86.3147 220.403 86.976 219.955 87.552C219.507 88.1173 218.883 88.5547 218.083 88.864C217.283 89.1733 216.376 89.328 215.363 89.328C214.35 89.328 213.443 89.1733 212.643 88.864C211.854 88.5547 211.23 88.1173 210.771 87.552C210.323 86.976 210.099 86.3147 210.099 85.568C210.099 84.8213 210.323 84.1653 210.771 83.6C211.23 83.024 211.854 82.5813 212.643 82.272C213.443 81.9627 214.35 81.808 215.363 81.808ZM215.363 83.184C214.67 83.184 214.056 83.28 213.523 83.472C212.99 83.664 212.574 83.9413 212.275 84.304C211.976 84.6667 211.827 85.088 211.827 85.568C211.827 86.0587 211.971 86.4853 212.259 86.848C212.558 87.2 212.974 87.472 213.507 87.664C214.051 87.856 214.67 87.952 215.363 87.952C216.056 87.952 216.67 87.856 217.203 87.664C217.747 87.472 218.163 87.2 218.451 86.848C218.75 86.4853 218.899 86.0587 218.899 85.568C218.899 85.088 218.75 84.6667 218.451 84.304C218.152 83.9413 217.736 83.664 217.203 83.472C216.67 83.28 216.056 83.184 215.363 83.184Z" fill="#EEEEEE"/>
<defs>
<linearGradient id="paint0_linear_2008_1754" x1="172.083" y1="165.2" x2="179.605" y2="-31.7919" gradientUnits="userSpaceOnUse">
<stop stop-color="#002A62"/>
<stop offset="1" stop-color="#EDEDED"/>
</linearGradient>
</defs>
</svg>
