<svg width="1097" height="75" viewBox="0 0 1097 75" fill="none" xmlns="http://www.w3.org/2000/svg">
<path d="M515.2 19.92C515.2 18.88 515.52 18.0533 516.16 17.44C516.8 16.8 517.653 16.48 518.72 16.48C519.787 16.48 520.627 16.8 521.24 17.44C521.88 18.0533 522.2 18.88 522.2 19.92V54.04H515.2V37.64H513.2V54.04H506.2V19.92C506.2 18.88 506.52 18.0533 507.16 17.44C507.8 16.8 508.653 16.48 509.72 16.48C510.787 16.48 511.627 16.8 512.24 17.44C512.88 18.0533 513.2 18.88 513.2 19.92V31H515.2V19.92ZM491.84 52.32C490.293 52.32 489.107 52.12 488.28 51.72C487.453 51.3467 486.867 50.7333 486.52 49.88C486.2 49.0267 486.04 47.84 486.04 46.32V21.56C486.04 20.36 486.347 19.44 486.96 18.8C487.6 18.1333 488.493 17.8 489.64 17.8C490.76 17.8 491.6 18.1333 492.16 18.8C492.747 19.44 493.04 20.36 493.04 21.56V27.88H496.88L496.92 21.56C496.92 20.36 497.213 19.44 497.8 18.8C498.413 18.1333 499.28 17.8 500.4 17.8C501.547 17.8 502.4 18.1333 502.96 18.8C503.547 19.44 503.84 20.36 503.84 21.56V52.32H491.84ZM493.04 45.08C493.04 45.5333 493.107 45.8267 493.24 45.96C493.373 46.0667 493.68 46.12 494.16 46.12H496.76L496.84 34H493.04V45.08ZM558.56 38.48C559.68 38.48 560.52 38.8 561.08 39.44C561.64 40.08 561.92 40.8533 561.92 41.76C561.92 42.6933 561.64 43.48 561.08 44.12C560.52 44.7333 559.68 45.04 558.56 45.04H547.28V54.24H539.12V45.04H527.84C526.72 45.04 525.88 44.7333 525.32 44.12C524.76 43.48 524.48 42.6933 524.48 41.76C524.48 40.8533 524.76 40.08 525.32 39.44C525.88 38.8 526.72 38.48 527.84 38.48H558.56ZM525.72 26.24C525.72 24.56 526.093 23.04 526.84 21.68C527.613 20.32 528.72 19.2533 530.16 18.48C531.627 17.68 533.347 17.28 535.32 17.28H551.04C553.013 17.28 554.72 17.68 556.16 18.48C557.627 19.2533 558.747 20.32 559.52 21.68C560.293 23.04 560.68 24.56 560.68 26.24V26.92C560.68 28.6 560.293 30.12 559.52 31.48C558.747 32.84 557.627 33.92 556.16 34.72C554.72 35.4933 553.013 35.88 551.04 35.88H535.32C533.347 35.88 531.627 35.4933 530.16 34.72C528.72 33.92 527.613 32.84 526.84 31.48C526.093 30.12 525.72 28.6 525.72 26.92V26.24ZM552.44 26.2C552.44 25.3467 552.12 24.6533 551.48 24.12C550.867 23.56 550.04 23.28 549 23.28H537.4C536.36 23.28 535.52 23.56 534.88 24.12C534.267 24.6533 533.96 25.3467 533.96 26.2V26.96C533.96 27.8133 534.267 28.52 534.88 29.08C535.52 29.6133 536.36 29.88 537.4 29.88H549C550.04 29.88 550.867 29.6133 551.48 29.08C552.12 28.52 552.44 27.8133 552.44 26.96V26.2ZM589.64 39.48C590.707 36.6 591.24 32.76 591.24 27.96V25.56C591.24 25.2667 591.147 25.0267 590.96 24.84C590.8 24.6533 590.56 24.56 590.24 24.56H568.52C567.4 24.56 566.533 24.2133 565.92 23.52C565.307 22.8267 565 22.0267 565 21.12C565 20.2133 565.307 19.4133 565.92 18.72C566.533 18.0267 567.4 17.68 568.52 17.68H592.96C595.253 17.68 596.853 18.1333 597.76 19.04C598.667 19.92 599.12 21.3733 599.12 23.4V27.8C599.12 30.76 598.947 33.4133 598.6 35.76C598.253 38.1067 597.8 39.9467 597.24 41.28C596.84 42.1333 596.253 42.8 595.48 43.28C594.733 43.7333 593.92 43.96 593.04 43.96C592.347 43.96 591.733 43.8267 591.2 43.56C590 42.92 589.4 41.9867 589.4 40.76C589.4 40.3333 589.48 39.9067 589.64 39.48ZM597.76 46.68C598.88 46.68 599.72 47 600.28 47.64C600.84 48.28 601.12 49.0533 601.12 49.96C601.12 50.8933 600.84 51.6667 600.28 52.28C599.72 52.92 598.88 53.24 597.76 53.24H567.04C565.92 53.24 565.08 52.92 564.52 52.28C563.96 51.6667 563.68 50.8933 563.68 49.96C563.68 49.0533 563.96 48.28 564.52 47.64C565.08 47 565.92 46.68 567.04 46.68H575.32V34.56C575.32 33.36 575.693 32.4933 576.44 31.96C577.213 31.4267 578.2 31.16 579.4 31.16C580.573 31.16 581.547 31.4267 582.32 31.96C583.093 32.4933 583.48 33.36 583.48 34.56V46.68H597.76ZM605.4 55.8C605.853 55.56 606.2 55.2133 606.44 54.76C606.707 54.3067 606.84 53.8 606.84 53.24V53.2C605.693 53.0933 604.787 52.6933 604.12 52C603.48 51.3333 603.16 50.44 603.16 49.32C603.16 48.12 603.547 47.16 604.32 46.44C605.093 45.72 606.12 45.36 607.4 45.36C608.653 45.36 609.667 45.76 610.44 46.56C611.24 47.3333 611.64 48.32 611.64 49.52V49.88C611.64 52.12 611.213 53.9733 610.36 55.44C609.507 56.9067 608.347 57.92 606.88 58.48C606.213 58.72 605.653 58.84 605.2 58.84C604.747 58.84 604.333 58.72 603.96 58.48C603.613 58.2667 603.44 57.9067 603.44 57.4C603.44 56.68 603.813 56.24 604.56 56.08C604.987 55.9467 605.267 55.8533 605.4 55.8ZM651.613 20.32C651.613 19.12 651.986 18.1867 652.733 17.52C653.479 16.8267 654.413 16.48 655.533 16.48C656.653 16.48 657.573 16.8267 658.293 17.52C659.039 18.1867 659.413 19.12 659.413 20.32V25.08H660.653C661.773 25.08 662.573 25.4267 663.053 26.12C663.559 26.7867 663.813 27.6 663.813 28.56C663.813 29.52 663.559 30.3467 663.053 31.04C662.546 31.7067 661.746 32.04 660.653 32.04H659.413V41.04H651.613V20.32ZM647.053 34.28C648.093 34.28 648.879 34.56 649.413 35.12C649.946 35.68 650.213 36.4 650.213 37.28C650.213 38.16 649.946 38.88 649.413 39.44C648.879 39.9733 648.093 40.24 647.053 40.24H627.253C626.213 40.24 625.426 39.9733 624.893 39.44C624.359 38.88 624.093 38.16 624.093 37.28C624.093 36.4 624.359 35.68 624.893 35.12C625.426 34.56 626.213 34.28 627.253 34.28H632.853V32.56H632.812C630.493 32.56 628.719 31.9333 627.493 30.68C626.266 29.4267 625.653 27.84 625.653 25.92C625.653 25.3867 625.759 24.8267 625.973 24.24C625.359 24.0533 624.893 23.7467 624.573 23.32C624.253 22.8933 624.093 22.36 624.093 21.72C624.093 20.8667 624.373 20.1867 624.933 19.68C625.493 19.1733 626.266 18.92 627.253 18.92H632.893C632.999 17.96 633.399 17.24 634.093 16.76C634.786 16.2533 635.706 16 636.853 16C637.999 16 638.919 16.2533 639.613 16.76C640.306 17.24 640.706 17.96 640.813 18.92H646.413C647.399 18.92 648.173 19.1733 648.733 19.68C649.293 20.1867 649.573 20.8667 649.573 21.72C649.573 22.36 649.413 22.8933 649.093 23.32C648.773 23.7467 648.306 24.0533 647.693 24.24C647.906 24.8267 648.013 25.3867 648.013 25.92C648.013 27.84 647.399 29.4267 646.173 30.68C644.946 31.9333 643.173 32.56 640.853 32.56H640.413V34.28H647.053ZM629.773 48.16C628.733 48.16 627.919 47.9067 627.333 47.4C626.773 46.8933 626.493 46.1733 626.493 45.24C626.493 44.3067 626.786 43.5867 627.373 43.08C627.959 42.5467 628.759 42.28 629.773 42.28H653.933C655.613 42.28 656.866 42.4667 657.693 42.84C658.519 43.1867 659.079 43.7867 659.373 44.64C659.693 45.4933 659.853 46.76 659.853 48.44V54.04H651.773V49.12C651.773 48.48 651.453 48.16 650.813 48.16H629.773ZM634.733 24C634.119 24 633.653 24.1733 633.333 24.52C633.013 24.84 632.853 25.2667 632.853 25.8C632.853 26.3067 633.013 26.7333 633.333 27.08C633.679 27.4267 634.146 27.6 634.733 27.6H638.933C639.519 27.6 639.973 27.4267 640.293 27.08C640.639 26.7333 640.813 26.3067 640.813 25.8C640.813 25.2667 640.653 24.84 640.333 24.52C640.013 24.1733 639.546 24 638.933 24H634.733ZM691.612 20.44C691.612 19.1867 691.999 18.2133 692.772 17.52C693.546 16.8267 694.492 16.48 695.612 16.48C696.732 16.48 697.679 16.8267 698.452 17.52C699.226 18.2133 699.612 19.1867 699.612 20.44V44.84H691.612V20.44ZM672.092 54.04C670.599 54.04 669.439 53.8533 668.612 53.48C667.812 53.1067 667.239 52.4933 666.892 51.64C666.572 50.8133 666.412 49.6667 666.412 48.2V44C666.412 42.7467 666.799 41.8 667.572 41.16C668.346 40.4933 669.332 40.16 670.532 40.16C671.706 40.16 672.666 40.4933 673.412 41.16C674.159 41.8267 674.532 42.7733 674.532 44V46.96C674.532 47.3333 674.599 47.5867 674.732 47.72C674.866 47.8267 675.119 47.88 675.492 47.88H697.372C698.492 47.88 699.319 48.1733 699.852 48.76C700.412 49.32 700.692 50.04 700.692 50.92C700.692 51.8267 700.412 52.5733 699.852 53.16C699.319 53.7467 698.492 54.04 697.372 54.04H672.092ZM664.332 26.2C664.332 23.2933 665.372 21.0533 667.452 19.48C669.559 17.9067 672.306 17.12 675.692 17.12C679.106 17.12 681.852 17.9067 683.932 19.48C686.039 21.0533 687.092 23.2933 687.092 26.2V29.6C687.092 32.5067 686.039 34.7467 683.932 36.32C681.852 37.8933 679.119 38.68 675.732 38.68C672.319 38.68 669.559 37.8933 667.452 36.32C665.372 34.7467 664.332 32.5067 664.332 29.6V26.2ZM672.132 29.56C672.132 30.52 672.466 31.2933 673.132 31.88C673.826 32.44 674.679 32.72 675.692 32.72C676.706 32.72 677.559 32.44 678.252 31.88C678.972 31.2933 679.332 30.52 679.332 29.56V26.24C679.332 25.28 678.986 24.52 678.292 23.96C677.599 23.3733 676.759 23.08 675.772 23.08C674.732 23.08 673.866 23.3733 673.172 23.96C672.479 24.52 672.132 25.28 672.132 26.24V29.56ZM729.612 20.44C729.612 19.1867 729.999 18.2133 730.772 17.52C731.546 16.8267 732.492 16.48 733.612 16.48C734.732 16.48 735.679 16.8267 736.452 17.52C737.226 18.2133 737.612 19.1867 737.612 20.44V30.48H739.052C740.172 30.48 740.972 30.8267 741.452 31.52C741.959 32.1867 742.212 33 742.212 33.96C742.212 34.92 741.959 35.7467 741.452 36.44C740.946 37.1067 740.146 37.44 739.052 37.44H737.612V54.04H729.612V20.44ZM725.052 43.08C725.052 46.44 724.106 48.9867 722.212 50.72C720.346 52.4267 717.812 53.28 714.612 53.28C711.439 53.28 708.906 52.4267 707.012 50.72C705.119 48.9867 704.172 46.44 704.172 43.08V30.4C704.172 29.2 704.386 28.0667 704.812 27C703.932 26.9733 703.239 26.6533 702.732 26.04C702.226 25.4267 701.972 24.6933 701.972 23.84C701.972 22.96 702.226 22.2267 702.732 21.64C703.266 21.0267 703.999 20.72 704.932 20.72H710.572V20.32C710.572 19.0933 710.932 18.1333 711.652 17.44C712.372 16.72 713.359 16.36 714.612 16.36C715.866 16.36 716.852 16.72 717.572 17.44C718.292 18.1333 718.652 19.0933 718.652 20.32V20.72H724.292C725.226 20.72 725.959 21.0267 726.492 21.64C727.026 22.2267 727.292 22.96 727.292 23.84C727.292 24.6933 727.026 25.4267 726.492 26.04C725.986 26.6533 725.292 26.9733 724.412 27C724.839 28.0667 725.052 29.2 725.052 30.4V43.08ZM714.612 46.84C715.546 46.84 716.279 46.52 716.812 45.88C717.372 45.24 717.652 44.4 717.652 43.36V29.96C717.652 28.92 717.386 28.1067 716.852 27.52C716.319 26.9333 715.572 26.64 714.612 26.64C713.652 26.64 712.906 26.9333 712.372 27.52C711.839 28.1067 711.572 28.92 711.572 29.96V43.36C711.572 44.4 711.839 45.24 712.372 45.88C712.932 46.52 713.679 46.84 714.612 46.84ZM767.653 39.48C768.719 36.6 769.253 32.76 769.253 27.96V25.56C769.253 25.2667 769.159 25.0267 768.973 24.84C768.813 24.6533 768.573 24.56 768.253 24.56H746.533C745.413 24.56 744.546 24.2133 743.933 23.52C743.319 22.8267 743.013 22.0267 743.013 21.12C743.013 20.2133 743.319 19.4133 743.933 18.72C744.546 18.0267 745.413 17.68 746.533 17.68H770.973C773.266 17.68 774.866 18.1333 775.773 19.04C776.679 19.92 777.133 21.3733 777.133 23.4V27.8C777.133 30.76 776.959 33.4133 776.613 35.76C776.266 38.1067 775.813 39.9467 775.253 41.28C774.853 42.1333 774.266 42.8 773.493 43.28C772.746 43.7333 771.933 43.96 771.053 43.96C770.359 43.96 769.746 43.8267 769.213 43.56C768.013 42.92 767.413 41.9867 767.413 40.76C767.413 40.3333 767.493 39.9067 767.653 39.48ZM775.773 46.68C776.893 46.68 777.733 47 778.293 47.64C778.853 48.28 779.133 49.0533 779.133 49.96C779.133 50.8933 778.853 51.6667 778.293 52.28C777.733 52.92 776.893 53.24 775.773 53.24H745.053C743.933 53.24 743.093 52.92 742.533 52.28C741.973 51.6667 741.693 50.8933 741.693 49.96C741.693 49.0533 741.973 48.28 742.533 47.64C743.093 47 743.933 46.68 745.053 46.68H753.333V34.56C753.333 33.36 753.706 32.4933 754.453 31.96C755.226 31.4267 756.213 31.16 757.413 31.16C758.586 31.16 759.559 31.4267 760.333 31.96C761.106 32.4933 761.493 33.36 761.493 34.56V46.68H775.773ZM783.412 55.8C783.866 55.56 784.212 55.2133 784.452 54.76C784.719 54.3067 784.852 53.8 784.852 53.24V53.2C783.706 53.0933 782.799 52.6933 782.132 52C781.492 51.3333 781.172 50.44 781.172 49.32C781.172 48.12 781.559 47.16 782.332 46.44C783.106 45.72 784.132 45.36 785.412 45.36C786.666 45.36 787.679 45.76 788.452 46.56C789.252 47.3333 789.652 48.32 789.652 49.52V49.88C789.652 52.12 789.226 53.9733 788.372 55.44C787.519 56.9067 786.359 57.92 784.892 58.48C784.226 58.72 783.666 58.84 783.212 58.84C782.759 58.84 782.346 58.72 781.972 58.48C781.626 58.2667 781.452 57.9067 781.452 57.4C781.452 56.68 781.826 56.24 782.572 56.08C782.999 55.9467 783.279 55.8533 783.412 55.8ZM829.625 20.32C829.625 19.12 829.998 18.1867 830.745 17.52C831.492 16.8267 832.425 16.48 833.545 16.48C834.665 16.48 835.585 16.8267 836.305 17.52C837.052 18.1867 837.425 19.12 837.425 20.32V26.48H838.665C839.785 26.48 840.585 26.8267 841.065 27.52C841.572 28.1867 841.825 29 841.825 29.96C841.825 30.92 841.572 31.7467 841.065 32.44C840.558 33.1067 839.758 33.44 838.665 33.44H837.425V44.84H829.625V20.32ZM824.985 34.76C826.052 34.76 826.852 35.0667 827.385 35.68C827.945 36.2667 828.225 37 828.225 37.88C828.225 38.7867 827.945 39.52 827.385 40.08C826.852 40.64 826.052 40.92 824.985 40.92H805.345C804.278 40.92 803.465 40.64 802.905 40.08C802.372 39.52 802.105 38.7867 802.105 37.88C802.105 37 802.372 36.2667 802.905 35.68C803.465 35.0667 804.278 34.76 805.345 34.76H810.865V32.28H810.625C808.198 32.28 806.305 31.5867 804.945 30.2C803.612 28.8133 802.945 27.04 802.945 24.88V24.76C802.945 22.6 803.612 20.8267 804.945 19.44C806.305 18.0533 808.198 17.36 810.625 17.36H819.185C821.585 17.36 823.438 18.0533 824.745 19.44C826.078 20.8267 826.745 22.6 826.745 24.76V24.88C826.745 27.04 826.078 28.8133 824.745 30.2C823.438 31.5867 821.585 32.28 819.185 32.28H818.425V34.76H824.985ZM810.905 54.04C809.412 54.04 808.252 53.8533 807.425 53.48C806.625 53.1067 806.052 52.4933 805.705 51.64C805.385 50.8133 805.225 49.6667 805.225 48.2V45.76C805.225 44.6133 805.612 43.7333 806.385 43.12C807.185 42.48 808.172 42.16 809.345 42.16C810.518 42.16 811.478 42.48 812.225 43.12C812.972 43.76 813.345 44.64 813.345 45.76V47.24C813.345 47.5067 813.385 47.6933 813.465 47.8C813.572 47.88 813.772 47.92 814.065 47.92H835.465C836.558 47.92 837.372 48.2133 837.905 48.8C838.438 49.36 838.705 50.08 838.705 50.96C838.705 51.84 838.425 52.5733 837.865 53.16C837.332 53.7467 836.532 54.04 835.465 54.04H810.905ZM810.465 24.88C810.465 25.52 810.652 26.0133 811.025 26.36C811.425 26.7067 811.985 26.88 812.705 26.88H817.065C817.758 26.88 818.292 26.7067 818.665 26.36C819.038 26.0133 819.225 25.52 819.225 24.88V24.76C819.225 24.12 819.038 23.6267 818.665 23.28C818.292 22.9067 817.758 22.72 817.065 22.72H812.705C811.985 22.72 811.425 22.9067 811.025 23.28C810.652 23.6267 810.465 24.12 810.465 24.76V24.88ZM869.625 20.44C869.625 19.1867 870.012 18.2133 870.785 17.52C871.558 16.8267 872.505 16.48 873.625 16.48C874.745 16.48 875.692 16.8267 876.465 17.52C877.238 18.2133 877.625 19.1867 877.625 20.44V44.84H869.625V30.96H867.665C866.625 30.96 865.798 30.68 865.185 30.12C864.572 29.5333 864.265 28.7467 864.265 27.76C864.265 26.8 864.572 26.0267 865.185 25.44C865.798 24.8267 866.625 24.52 867.665 24.52H869.625V20.44ZM850.105 54.04C848.612 54.04 847.452 53.8533 846.625 53.48C845.825 53.1067 845.252 52.4933 844.905 51.64C844.585 50.8133 844.425 49.6667 844.425 48.2V44.2C844.425 42.9467 844.812 42 845.585 41.36C846.358 40.6933 847.345 40.36 848.545 40.36C849.718 40.36 850.678 40.6933 851.425 41.36C852.172 42.0267 852.545 42.9733 852.545 44.2V47C852.545 47.3733 852.598 47.6133 852.705 47.72C852.838 47.8267 853.105 47.88 853.505 47.88H875.385C876.505 47.88 877.332 48.1733 877.865 48.76C878.425 49.32 878.705 50.04 878.705 50.92C878.705 51.8267 878.425 52.5733 877.865 53.16C877.332 53.7467 876.505 54.04 875.385 54.04H850.105ZM844.025 32.96C845.812 32.5867 847.198 31.76 848.185 30.48C849.198 29.2 849.705 27.6533 849.705 25.84V24.24H844.785C843.905 24.24 843.198 23.9067 842.665 23.24C842.132 22.5733 841.865 21.84 841.865 21.04C841.865 20.2133 842.118 19.4667 842.625 18.8C843.132 18.1067 843.852 17.76 844.785 17.76H862.705C863.638 17.76 864.358 18.1067 864.865 18.8C865.372 19.4667 865.625 20.2133 865.625 21.04C865.625 21.84 865.358 22.5733 864.825 23.24C864.292 23.9067 863.585 24.24 862.705 24.24H857.265V25.84C857.265 26.2133 857.238 26.7467 857.185 27.44C860.172 27.68 862.398 28.7333 863.865 30.6C865.332 32.4667 866.012 35.2133 865.905 38.84H858.465C858.492 38.6267 858.505 38.3333 858.505 37.96C858.505 36.6267 858.198 35.52 857.585 34.64C856.998 33.76 856.212 33.28 855.225 33.2C854.078 35.0667 852.585 36.5333 850.745 37.6C848.932 38.6667 847.092 39.2 845.225 39.2C844.212 39.2 843.358 38.92 842.665 38.36C841.972 37.7733 841.625 36.9733 841.625 35.96C841.625 35.16 841.825 34.5067 842.225 34C842.652 33.4667 843.252 33.12 844.025 32.96ZM908.825 20.44C908.825 19.1867 909.212 18.2133 909.985 17.52C910.758 16.8267 911.705 16.48 912.825 16.48C913.945 16.48 914.892 16.8267 915.665 17.52C916.438 18.2133 916.825 19.1867 916.825 20.44V54.04H908.825V20.44ZM903.425 43.04C903.425 46.4267 902.465 48.9867 900.545 50.72C898.625 52.4267 896.052 53.28 892.825 53.28C889.625 53.28 887.065 52.4267 885.145 50.72C883.225 48.9867 882.265 46.4267 882.265 43.04V30.44C882.265 29.1867 882.492 28.04 882.945 27C882.038 26.9733 881.318 26.6667 880.785 26.08C880.252 25.4667 879.985 24.72 879.985 23.84C879.985 22.96 880.238 22.2267 880.745 21.64C881.278 21.0267 882.012 20.72 882.945 20.72H888.745V20.36C888.745 19.1067 889.105 18.1333 889.825 17.44C890.572 16.72 891.572 16.36 892.825 16.36C894.078 16.36 895.065 16.72 895.785 17.44C896.532 18.1333 896.905 19.1067 896.905 20.36V20.72H902.705C903.638 20.72 904.372 21.0267 904.905 21.64C905.438 22.2267 905.705 22.96 905.705 23.84C905.705 24.72 905.438 25.4667 904.905 26.08C904.372 26.6667 903.652 26.9733 902.745 27C903.198 28.04 903.425 29.1867 903.425 30.44V43.04ZM892.825 46.8C893.812 46.8 894.572 46.48 895.105 45.84C895.665 45.1733 895.945 44.3067 895.945 43.24V30.08C895.945 29.0133 895.665 28.1867 895.105 27.6C894.572 26.9867 893.812 26.68 892.825 26.68C891.838 26.68 891.065 26.9867 890.505 27.6C889.972 28.1867 889.705 29.0133 889.705 30.08V43.24C889.705 44.3067 889.972 45.1733 890.505 45.84C891.065 46.48 891.838 46.8 892.825 46.8ZM946.276 45.28C947.343 45.28 948.103 45.6133 948.556 46.28C949.036 46.92 949.276 47.6933 949.276 48.6C949.276 49.5333 949.036 50.3333 948.556 51C948.076 51.6933 947.316 52.04 946.276 52.04H936.756C934.596 52.04 933.089 51.6 932.236 50.72C931.409 49.8133 930.996 48.2933 930.996 46.16V21.96C930.996 20.68 931.356 19.72 932.076 19.08C932.823 18.4133 933.769 18.08 934.916 18.08C936.063 18.08 936.969 18.4133 937.636 19.08C938.329 19.72 938.676 20.68 938.676 21.96V44.16C938.676 44.6133 938.756 44.92 938.916 45.08C939.076 45.2133 939.383 45.28 939.836 45.28H946.276ZM960.036 19.92C960.036 18.88 960.356 18.0533 960.996 17.44C961.636 16.8 962.489 16.48 963.556 16.48C964.623 16.48 965.463 16.8 966.076 17.44C966.716 18.0533 967.036 18.88 967.036 19.92V54.04H960.036V37.64H957.836V54.04H950.636V20.04C950.636 18.9467 950.969 18.08 951.636 17.44C952.303 16.8 953.169 16.48 954.236 16.48C955.303 16.48 956.169 16.8 956.836 17.44C957.503 18.08 957.836 18.9467 957.836 20.04V31H960.036V19.92ZM1008.05 20.44C1008.05 19.1867 1008.43 18.2133 1009.21 17.52C1009.98 16.8267 1010.93 16.48 1012.05 16.48C1013.17 16.48 1014.11 16.8267 1014.89 17.52C1015.66 18.2133 1016.05 19.1867 1016.05 20.44V40.84H1008.05V32.24H1000.65C999.287 34.4267 997.3 36.1067 994.687 37.28C992.1 38.4267 989.1 39 985.687 39C984.94 39 984.367 38.9867 983.967 38.96C983.034 38.9067 982.26 38.5733 981.647 37.96C981.034 37.32 980.727 36.52 980.727 35.56C980.727 34.5733 981.034 33.8133 981.647 33.28C982.287 32.72 983.127 32.4533 984.167 32.48C987.447 32.5333 990.007 31.96 991.847 30.76C993.714 29.56 994.647 27.8533 994.647 25.64V24.84C994.647 24.2533 994.34 23.96 993.727 23.96H984.687C983.594 23.96 982.767 23.6533 982.207 23.04C981.674 22.4 981.407 21.64 981.407 20.76C981.407 19.88 981.674 19.1333 982.207 18.52C982.767 17.88 983.594 17.56 984.687 17.56H996.727C998.834 17.56 1000.33 18 1001.21 18.88C1002.09 19.7333 1002.53 21.08 1002.53 22.92V25.36V26H1008.05V20.44ZM1003.33 42.04C1003.33 42.3067 1003.31 42.5733 1003.29 42.84C1005.47 42.76 1007.58 43.12 1009.61 43.92C1011.66 44.72 1013.39 45.9867 1014.81 47.72C1016.22 49.4267 1017.07 51.5333 1017.37 54.04H1009.17C1008.82 52.52 1007.95 51.2533 1006.57 50.24C1005.18 49.2 1003.51 48.68 1001.57 48.68C1001.27 48.68 1000.83 48.7067 1000.25 48.76C998.54 50.5467 996.274 51.96 993.447 53C990.62 54.0667 987.9 54.52 985.287 54.36C984.14 54.3067 983.26 53.96 982.647 53.32C982.034 52.7067 981.727 51.88 981.727 50.84C981.727 49.9333 982.034 49.2 982.647 48.64C983.287 48.0533 984.154 47.7467 985.247 47.72C987.754 47.6667 989.874 47.12 991.607 46.08C993.34 45.0133 994.567 43.6 995.287 41.84C995.767 40.6933 996.327 39.9067 996.967 39.48C997.634 39.0267 998.487 38.8 999.527 38.8C1000.67 38.8 1001.59 39.1067 1002.29 39.72C1002.98 40.3067 1003.33 41.08 1003.33 42.04ZM1052.93 46.48C1054.07 46.48 1054.93 46.8133 1055.49 47.48C1056.07 48.1467 1056.37 48.9467 1056.37 49.88C1056.37 50.8133 1056.07 51.6 1055.49 52.24C1054.93 52.9067 1054.07 53.24 1052.93 53.24H1022.37C1021.22 53.24 1020.35 52.9067 1019.77 52.24C1019.21 51.6 1018.93 50.8133 1018.93 49.88C1018.93 48.9467 1019.21 48.1467 1019.77 47.48C1020.35 46.8133 1021.22 46.48 1022.37 46.48H1052.93ZM1020.09 28.08C1020.09 26.2133 1020.53 24.4667 1021.41 22.84C1022.29 21.2133 1023.54 19.92 1025.17 18.96C1026.82 17.9733 1028.74 17.48 1030.93 17.48H1044.33C1046.51 17.48 1048.42 17.9733 1050.05 18.96C1051.7 19.92 1052.97 21.2133 1053.85 22.84C1054.75 24.4667 1055.21 26.2133 1055.21 28.08V29.08C1055.21 30.9467 1054.75 32.6933 1053.85 34.32C1052.97 35.9467 1051.7 37.2533 1050.05 38.24C1048.42 39.2 1046.51 39.68 1044.33 39.68H1030.93C1028.74 39.68 1026.82 39.2 1025.17 38.24C1023.54 37.2533 1022.29 35.9467 1021.41 34.32C1020.53 32.6933 1020.09 30.9467 1020.09 29.08V28.08ZM1046.89 28C1046.89 26.8533 1046.45 25.9067 1045.57 25.16C1044.71 24.3867 1043.61 24 1042.25 24H1033.01C1031.65 24 1030.54 24.3867 1029.69 25.16C1028.83 25.9067 1028.41 26.8533 1028.41 28V29.16C1028.41 30.3067 1028.83 31.2667 1029.69 32.04C1030.54 32.7867 1031.65 33.16 1033.01 33.16H1042.25C1043.61 33.16 1044.71 32.7867 1045.57 32.04C1046.45 31.2667 1046.89 30.3067 1046.89 29.16V28ZM1092.21 46.68C1093.33 46.68 1094.17 47 1094.73 47.64C1095.29 48.28 1095.57 49.0533 1095.57 49.96C1095.57 50.8933 1095.29 51.6667 1094.73 52.28C1094.17 52.92 1093.33 53.24 1092.21 53.24H1061.49C1060.37 53.24 1059.53 52.92 1058.97 52.28C1058.41 51.6667 1058.13 50.8933 1058.13 49.96C1058.13 49.0533 1058.41 48.28 1058.97 47.64C1059.53 47 1060.37 46.68 1061.49 46.68H1072.77V41.12H1067.49C1064.93 41.12 1062.97 40.4933 1061.61 39.24C1060.25 37.9867 1059.57 36.2667 1059.57 34.08V33.36C1059.57 31.2 1060.25 29.5067 1061.61 28.28C1062.97 27.0533 1064.93 26.44 1067.49 26.44H1084.97V25.16C1084.97 24.4133 1084.61 24.04 1083.89 24.04H1063.05C1062.14 24.04 1061.41 23.72 1060.85 23.08C1060.29 22.44 1060.01 21.6933 1060.01 20.84C1060.01 20.0133 1060.29 19.28 1060.85 18.64C1061.41 18 1062.14 17.68 1063.05 17.68H1086.29C1088.87 17.68 1090.69 18.2133 1091.73 19.28C1092.77 20.3467 1093.29 21.8933 1093.29 23.92V32.48H1069.57C1068.66 32.48 1068.21 32.88 1068.21 33.68C1068.21 34.48 1068.66 34.88 1069.57 34.88H1091.29C1092.3 34.88 1093.06 35.2 1093.57 35.84C1094.07 36.4533 1094.33 37.1867 1094.33 38.04C1094.33 38.8667 1094.07 39.5867 1093.57 40.2C1093.06 40.8133 1092.3 41.12 1091.29 41.12H1080.93V46.68H1092.21Z" fill="white"/>
<rect width="460" height="72" rx="36" fill="white"/>
<path d="M44.872 39.064C44.872 40.4933 45.2987 41.6027 46.152 42.392C47.0267 43.1813 48.0827 43.576 49.32 43.576C50.664 43.576 51.7947 43.3733 52.712 42.968C52.968 42.84 53.2453 42.712 53.544 42.584C53.8427 42.4347 54.12 42.3387 54.376 42.296C54.632 42.2533 54.824 42.232 54.952 42.232C55.8693 42.232 56.5947 42.6587 57.128 43.512C57.384 43.96 57.512 44.408 57.512 44.856C57.512 45.2827 57.4053 45.6987 57.192 46.104C56.9787 46.488 56.68 46.84 56.296 47.16C55.464 47.8427 54.4187 48.3547 53.16 48.696C51.9013 49.0587 50.6213 49.24 49.32 49.24C47.3573 49.24 45.544 48.888 43.88 48.184C42.216 47.5013 40.8613 46.424 39.816 44.952C38.792 43.4587 38.28 41.592 38.28 39.352V30.04C38.28 27.8 38.792 25.944 39.816 24.472C40.8613 22.9787 42.216 21.8907 43.88 21.208C45.544 20.504 47.3573 20.152 49.32 20.152C50.6853 20.152 51.912 20.3013 53 20.6C54.088 20.8773 54.9627 21.2507 55.624 21.72C56.0933 22.04 56.456 22.4347 56.712 22.904C56.9893 23.352 57.128 23.8213 57.128 24.312C57.128 24.76 57.0213 25.1653 56.808 25.528C56.552 25.9973 56.2 26.3493 55.752 26.584C55.3253 26.8187 54.8667 26.936 54.376 26.936C53.9707 26.936 53.5653 26.8507 53.16 26.68C52.776 26.5093 52.4347 26.36 52.136 26.232C51.7307 26.0827 51.3147 25.976 50.888 25.912C50.4827 25.848 49.96 25.816 49.32 25.816C48.0827 25.816 47.0267 26.2107 46.152 27C45.2987 27.7893 44.872 28.8987 44.872 30.328V39.064ZM71.2085 35.608C71.2085 34.6053 70.9418 33.8693 70.4085 33.4C69.8752 32.9307 69.2672 32.696 68.5845 32.696C67.9018 32.696 67.2832 32.92 66.7285 33.368C66.1952 33.816 65.9285 34.5093 65.9285 35.448V48.728H59.4325V23.352C59.4325 22.3493 59.7525 21.5707 60.3925 21.016C61.0325 20.44 61.8005 20.152 62.6965 20.152C63.5925 20.152 64.3498 20.44 64.9685 21.016C65.6085 21.5707 65.9285 22.3493 65.9285 23.352V28.728C67.1232 27.704 68.5418 27.192 70.1845 27.192C72.5098 27.192 74.3552 27.8747 75.7205 29.24C77.1072 30.6053 77.8005 32.8667 77.8005 36.024V48.728H71.2085V35.608ZM89.8873 49.24C88.1379 49.24 86.5166 48.9413 85.0233 48.344C83.5513 47.768 82.3459 46.808 81.4073 45.464C80.4899 44.0987 80.0313 42.328 80.0313 40.152V36.056C80.0313 33.9227 80.4793 32.1947 81.3753 30.872C82.2926 29.5493 83.4339 28.6107 84.7993 28.056C86.1859 27.48 87.6366 27.192 89.1513 27.192C91.7966 27.192 93.9299 27.96 95.5513 29.496C97.1726 31.032 97.9833 33.88 97.9833 38.04C97.9833 38.7653 97.9299 39.4267 97.8233 40.024H86.3673V40.056C86.3673 41.4213 86.7299 42.392 87.4553 42.968C88.2019 43.544 89.0553 43.832 90.0153 43.832C90.7619 43.832 91.3486 43.8 91.7753 43.736C92.2019 43.672 92.6499 43.5653 93.1193 43.416C93.4179 43.3093 93.7379 43.2027 94.0793 43.096C94.4206 42.968 94.7406 42.904 95.0393 42.904C95.5299 42.904 95.9566 43.0107 96.3193 43.224C96.7033 43.4373 96.9806 43.7467 97.1513 44.152C97.3219 44.5573 97.4073 44.9307 97.4073 45.272C97.4073 45.8053 97.2366 46.3067 96.8953 46.776C96.5753 47.224 96.1166 47.6187 95.5193 47.96C94.9646 48.3013 94.1539 48.6 93.0873 48.856C92.0419 49.112 90.9753 49.24 89.8873 49.24ZM89.1833 32.376C87.3273 32.376 86.3886 33.528 86.3673 35.832H91.7753C91.8606 33.528 90.9966 32.376 89.1833 32.376ZM106.483 40.408C106.483 41.6453 106.782 42.52 107.379 43.032C107.998 43.5227 108.745 43.768 109.619 43.768C110.153 43.768 110.611 43.736 110.995 43.672C111.379 43.5867 111.774 43.448 112.179 43.256C112.606 43.0427 112.958 42.8827 113.235 42.776C113.534 42.648 113.854 42.584 114.195 42.584C114.601 42.584 114.974 42.68 115.315 42.872C115.678 43.0427 115.966 43.3093 116.179 43.672C116.435 44.0773 116.563 44.5147 116.563 44.984C116.563 45.5387 116.393 46.072 116.051 46.584C115.731 47.0747 115.305 47.4907 114.771 47.832C114.11 48.2373 113.331 48.568 112.435 48.824C111.561 49.1013 110.622 49.24 109.619 49.24C106.91 49.24 104.606 48.5467 102.707 47.16C100.83 45.7947 99.8913 43.5333 99.8913 40.376V36.056C99.8913 33.944 100.35 32.2267 101.267 30.904C102.206 29.5813 103.39 28.632 104.819 28.056C106.249 27.48 107.774 27.192 109.395 27.192C110.441 27.192 111.39 27.3093 112.243 27.544C113.097 27.7787 113.811 28.0773 114.387 28.44C114.942 28.7813 115.379 29.208 115.699 29.72C116.019 30.2107 116.179 30.7227 116.179 31.256C116.179 31.704 116.073 32.1093 115.859 32.472C115.411 33.2613 114.718 33.656 113.779 33.656C113.417 33.656 113.086 33.6133 112.787 33.528C112.489 33.4213 112.137 33.272 111.731 33.08C111.39 32.9307 111.07 32.824 110.771 32.76C110.473 32.696 110.089 32.664 109.619 32.664C108.766 32.664 108.03 32.92 107.411 33.432C106.793 33.9227 106.483 34.7867 106.483 36.024V40.408ZM118.638 23.352C118.638 22.3493 118.947 21.5707 119.566 21.016C120.206 20.44 120.974 20.152 121.87 20.152C122.744 20.152 123.491 20.44 124.11 21.016C124.728 21.5707 125.038 22.3493 125.038 23.352V34.872L130.702 28.248C131 27.8853 131.374 27.608 131.822 27.416C132.27 27.224 132.739 27.128 133.23 27.128C133.976 27.128 134.616 27.3307 135.15 27.736C135.512 28.0133 135.79 28.3653 135.982 28.792C136.174 29.2187 136.27 29.6667 136.27 30.136C136.27 30.9253 136.014 31.5973 135.502 32.152L131.118 36.76L138.35 48.728H131.118L126.83 41.24L125.038 43.096V48.728H118.638V23.352ZM137.878 34.36C137.878 33.6133 138.091 32.9733 138.518 32.44C138.944 31.8853 139.595 31.608 140.47 31.608H151.99C152.864 31.608 153.515 31.8853 153.942 32.44C154.368 32.9733 154.582 33.6133 154.582 34.36C154.582 35.1067 154.358 35.768 153.91 36.344C153.483 36.92 152.843 37.208 151.99 37.208H140.47C139.616 37.208 138.966 36.92 138.518 36.344C138.091 35.768 137.878 35.1067 137.878 34.36ZM167.974 47.384C167.356 47.9813 166.62 48.44 165.766 48.76C164.934 49.1013 164.049 49.272 163.11 49.272H162.406C161.382 49.272 160.369 49.0587 159.366 48.632C158.385 48.2267 157.553 47.5227 156.87 46.52C156.188 45.496 155.846 44.1627 155.846 42.52C155.846 40.1307 156.572 38.424 158.022 37.4C159.473 36.3547 161.361 35.832 163.686 35.832H166.982C166.961 34.552 166.684 33.688 166.15 33.24C165.638 32.7707 164.934 32.536 164.038 32.536C163.42 32.536 162.705 32.6533 161.894 32.888C161.638 32.9733 161.393 33.0693 161.158 33.176C160.924 33.2827 160.668 33.4 160.39 33.528C160.049 33.6987 159.686 33.784 159.302 33.784C158.812 33.784 158.353 33.656 157.926 33.4C157.5 33.144 157.18 32.8027 156.966 32.376C156.796 32.0347 156.71 31.6613 156.71 31.256C156.71 30.808 156.817 30.392 157.03 30.008C157.265 29.6027 157.585 29.2507 157.99 28.952C158.78 28.376 159.772 27.9493 160.966 27.672C162.161 27.3733 163.356 27.224 164.55 27.224C167.238 27.224 169.361 27.9067 170.918 29.272C172.497 30.616 173.286 33.08 173.286 36.664V48.728H168.23L167.974 47.384ZM164.07 40.536C162.812 40.536 162.182 41.1867 162.182 42.488C162.182 43.7253 162.78 44.344 163.974 44.344H164.422C165.084 44.344 165.67 44.1413 166.182 43.736C166.716 43.3307 166.982 42.7547 166.982 42.008V40.536H164.07ZM175.999 30.392C175.999 29.3893 176.308 28.6107 176.927 28.056C177.567 27.48 178.335 27.192 179.231 27.192C179.871 27.192 180.457 27.352 180.991 27.672C181.545 27.9707 181.951 28.3973 182.207 28.952C182.825 28.376 183.54 27.9387 184.351 27.64C185.183 27.3413 186.025 27.192 186.879 27.192C191.743 27.192 194.175 30.1147 194.175 35.96V48.728H187.583V35.576C187.583 34.5947 187.316 33.8693 186.783 33.4C186.271 32.9093 185.695 32.664 185.055 32.664C184.393 32.664 183.796 32.9093 183.263 33.4C182.751 33.8693 182.495 34.5947 182.495 35.576V48.728H175.999V30.392ZM209.946 48.728L209.626 46.648C208.986 47.48 208.207 48.12 207.29 48.568C206.394 49.0373 205.37 49.272 204.218 49.272C201.871 49.272 199.983 48.5893 198.554 47.224C197.125 45.8587 196.41 43.5973 196.41 40.44V36.024C196.41 32.8667 197.125 30.6053 198.554 29.24C199.983 27.8747 201.871 27.192 204.218 27.192C205.882 27.192 207.322 27.6933 208.538 28.696V23.352C208.538 22.3493 208.858 21.5707 209.498 21.016C210.138 20.44 210.906 20.152 211.802 20.152C212.698 20.152 213.455 20.44 214.074 21.016C214.714 21.5707 215.034 22.3493 215.034 23.352V48.728H209.946ZM203.002 40.888C203.002 41.8693 203.29 42.6053 203.866 43.096C204.442 43.5653 205.071 43.8 205.754 43.8C206.437 43.8 207.066 43.5653 207.642 43.096C208.239 42.6053 208.538 41.8693 208.538 40.888V35.416C208.538 34.4987 208.239 33.816 207.642 33.368C207.066 32.8987 206.437 32.664 205.754 32.664C205.071 32.664 204.442 32.9093 203.866 33.4C203.29 33.8693 203.002 34.5947 203.002 35.576V40.888ZM216.786 34.36C216.786 33.6133 217 32.9733 217.426 32.44C217.853 31.8853 218.504 31.608 219.378 31.608H230.898C231.773 31.608 232.424 31.8853 232.85 32.44C233.277 32.9733 233.49 33.6133 233.49 34.36C233.49 35.1067 233.266 35.768 232.818 36.344C232.392 36.92 231.752 37.208 230.898 37.208H219.378C218.525 37.208 217.874 36.92 217.426 36.344C217 35.768 216.786 35.1067 216.786 34.36ZM245.955 34.072C246.979 34.072 247.779 33.784 248.355 33.208C248.931 32.632 249.219 31.9173 249.219 31.064V29.176C249.219 28.3227 248.931 27.608 248.355 27.032C247.779 26.456 246.979 26.168 245.955 26.168H242.723C242.36 26.168 242.115 26.232 241.987 26.36C241.859 26.4667 241.795 26.712 241.795 27.096V34.072H245.955ZM235.235 25.72C235.235 24.4613 235.384 23.4693 235.683 22.744C235.982 22.0187 236.494 21.496 237.219 21.176C237.944 20.8347 238.947 20.664 240.227 20.664H246.115C249.016 20.664 251.342 21.368 253.091 22.776C254.84 24.184 255.715 26.264 255.715 29.016V31.064C255.715 32.5787 255.342 33.944 254.595 35.16C253.848 36.3547 252.835 37.3253 251.555 38.072L257.923 48.728H250.691L245.539 39.48H241.795V48.728H235.235V25.72ZM267.127 49.24C265.378 49.24 263.757 48.9413 262.263 48.344C260.791 47.768 259.586 46.808 258.647 45.464C257.73 44.0987 257.271 42.328 257.271 40.152V36.056C257.271 33.9227 257.719 32.1947 258.615 30.872C259.533 29.5493 260.674 28.6107 262.039 28.056C263.426 27.48 264.877 27.192 266.391 27.192C269.037 27.192 271.17 27.96 272.791 29.496C274.413 31.032 275.223 33.88 275.223 38.04C275.223 38.7653 275.17 39.4267 275.063 40.024H263.607V40.056C263.607 41.4213 263.97 42.392 264.695 42.968C265.442 43.544 266.295 43.832 267.255 43.832C268.002 43.832 268.589 43.8 269.015 43.736C269.442 43.672 269.89 43.5653 270.359 43.416C270.658 43.3093 270.978 43.2027 271.319 43.096C271.661 42.968 271.981 42.904 272.279 42.904C272.77 42.904 273.197 43.0107 273.559 43.224C273.943 43.4373 274.221 43.7467 274.391 44.152C274.562 44.5573 274.647 44.9307 274.647 45.272C274.647 45.8053 274.477 46.3067 274.135 46.776C273.815 47.224 273.357 47.6187 272.759 47.96C272.205 48.3013 271.394 48.6 270.327 48.856C269.282 49.112 268.215 49.24 267.127 49.24ZM266.423 32.376C264.567 32.376 263.629 33.528 263.607 35.832H269.015C269.101 33.528 268.237 32.376 266.423 32.376ZM277.611 30.392C277.611 29.3893 277.921 28.6107 278.539 28.056C279.179 27.48 279.947 27.192 280.843 27.192C281.483 27.192 282.07 27.352 282.603 27.672C283.158 27.9707 283.563 28.3973 283.819 28.952C284.438 28.3973 285.153 27.9707 285.963 27.672C286.795 27.352 287.617 27.192 288.427 27.192C290.774 27.192 292.662 27.8747 294.091 29.24C295.521 30.6053 296.235 32.8667 296.235 36.024V40.408C296.235 43.5653 295.521 45.8267 294.091 47.192C292.662 48.5573 290.774 49.24 288.427 49.24C286.827 49.24 285.387 48.8027 284.107 47.928V53.464H277.611V30.392ZM289.643 35.576C289.643 34.5947 289.355 33.8693 288.779 33.4C288.203 32.9093 287.574 32.664 286.891 32.664C286.209 32.664 285.569 32.9093 284.971 33.4C284.395 33.8693 284.107 34.5947 284.107 35.576V41.016C284.107 41.9333 284.395 42.6267 284.971 43.096C285.569 43.544 286.209 43.768 286.891 43.768C287.574 43.768 288.203 43.5333 288.779 43.064C289.355 42.5733 289.643 41.8373 289.643 40.856V35.576ZM308.003 49.24C306.254 49.24 304.633 48.9413 303.139 48.344C301.667 47.768 300.462 46.808 299.523 45.464C298.606 44.0987 298.147 42.328 298.147 40.152V36.056C298.147 33.9227 298.595 32.1947 299.491 30.872C300.409 29.5493 301.55 28.6107 302.915 28.056C304.302 27.48 305.753 27.192 307.267 27.192C309.913 27.192 312.046 27.96 313.667 29.496C315.289 31.032 316.099 33.88 316.099 38.04C316.099 38.7653 316.046 39.4267 315.939 40.024H304.483V40.056C304.483 41.4213 304.846 42.392 305.571 42.968C306.318 43.544 307.171 43.832 308.131 43.832C308.878 43.832 309.465 43.8 309.891 43.736C310.318 43.672 310.766 43.5653 311.235 43.416C311.534 43.3093 311.854 43.2027 312.195 43.096C312.537 42.968 312.857 42.904 313.155 42.904C313.646 42.904 314.073 43.0107 314.435 43.224C314.819 43.4373 315.097 43.7467 315.267 44.152C315.438 44.5573 315.523 44.9307 315.523 45.272C315.523 45.8053 315.353 46.3067 315.011 46.776C314.691 47.224 314.233 47.6187 313.635 47.96C313.081 48.3013 312.27 48.6 311.203 48.856C310.158 49.112 309.091 49.24 308.003 49.24ZM307.299 32.376C305.443 32.376 304.505 33.528 304.483 35.832H309.891C309.977 33.528 309.113 32.376 307.299 32.376ZM330.136 47.384C329.517 47.9813 328.781 48.44 327.928 48.76C327.096 49.1013 326.21 49.272 325.272 49.272H324.568C323.544 49.272 322.53 49.0587 321.528 48.632C320.546 48.2267 319.714 47.5227 319.032 46.52C318.349 45.496 318.008 44.1627 318.008 42.52C318.008 40.1307 318.733 38.424 320.184 37.4C321.634 36.3547 323.522 35.832 325.848 35.832H329.144C329.122 34.552 328.845 33.688 328.312 33.24C327.8 32.7707 327.096 32.536 326.2 32.536C325.581 32.536 324.866 32.6533 324.056 32.888C323.8 32.9733 323.554 33.0693 323.32 33.176C323.085 33.2827 322.829 33.4 322.552 33.528C322.21 33.6987 321.848 33.784 321.464 33.784C320.973 33.784 320.514 33.656 320.088 33.4C319.661 33.144 319.341 32.8027 319.128 32.376C318.957 32.0347 318.872 31.6613 318.872 31.256C318.872 30.808 318.978 30.392 319.192 30.008C319.426 29.6027 319.746 29.2507 320.152 28.952C320.941 28.376 321.933 27.9493 323.128 27.672C324.322 27.3733 325.517 27.224 326.712 27.224C329.4 27.224 331.522 27.9067 333.08 29.272C334.658 30.616 335.448 33.08 335.448 36.664V48.728H330.392L330.136 47.384ZM326.232 40.536C324.973 40.536 324.344 41.1867 324.344 42.488C324.344 43.7253 324.941 44.344 326.136 44.344H326.584C327.245 44.344 327.832 44.1413 328.344 43.736C328.877 43.3307 329.144 42.7547 329.144 42.008V40.536H326.232ZM338.751 33.656C337.812 33.656 337.108 33.4107 336.639 32.92C336.17 32.408 335.935 31.7787 335.935 31.032C335.935 30.2853 336.159 29.656 336.607 29.144C337.076 28.6107 337.791 28.344 338.751 28.344H339.807V24.472C339.807 23.448 340.116 22.6693 340.735 22.136C341.354 21.5813 342.1 21.304 342.975 21.304C343.85 21.304 344.596 21.5813 345.215 22.136C345.834 22.6693 346.143 23.448 346.143 24.472V28.344H348.031C348.991 28.344 349.695 28.6107 350.143 29.144C350.612 29.656 350.847 30.2853 350.847 31.032C350.847 31.7787 350.612 32.408 350.143 32.92C349.674 33.4107 348.97 33.656 348.031 33.656H346.143V42.552C346.143 43.0213 346.239 43.3413 346.431 43.512C346.644 43.6827 346.932 43.768 347.295 43.768C347.423 43.768 347.615 43.7467 347.871 43.704C348.127 43.6613 348.362 43.64 348.575 43.64C349.108 43.64 349.578 43.8 349.983 44.12C350.388 44.44 350.644 44.8667 350.751 45.4C350.794 45.5493 350.815 45.784 350.815 46.104C350.815 46.5947 350.708 47.0427 350.495 47.448C350.282 47.8533 349.983 48.184 349.599 48.44C349.236 48.6747 348.767 48.8667 348.191 49.016C347.636 49.1653 347.082 49.24 346.527 49.24C344.308 49.24 342.634 48.728 341.503 47.704C340.372 46.68 339.807 45.0053 339.807 42.68V33.656H338.751ZM381.562 22.552C381.562 21.5493 381.872 20.7707 382.49 20.216C383.109 19.6613 383.866 19.384 384.762 19.384C385.658 19.384 386.416 19.6613 387.034 20.216C387.653 20.7707 387.962 21.5493 387.962 22.552V24.824H388.954C389.85 24.824 390.49 25.1013 390.874 25.656C391.28 26.1893 391.482 26.84 391.482 27.608C391.482 28.376 391.28 29.0373 390.874 29.592C390.469 30.1253 389.829 30.392 388.954 30.392H387.962V36.312H381.562V22.552ZM361.658 43.416C361.658 41.56 362.245 40.0773 363.418 38.968C364.613 37.8587 366.341 37.304 368.602 37.304H381.53C383.792 37.304 385.509 37.8587 386.682 38.968C387.877 40.0773 388.474 41.56 388.474 43.416C388.474 45.272 387.877 46.7547 386.682 47.864C385.509 48.9733 383.792 49.528 381.53 49.528H368.602C366.341 49.528 364.613 48.9627 363.418 47.832C362.245 46.7227 361.658 45.2507 361.658 43.416ZM368.154 43.416C368.154 43.928 368.325 44.3547 368.666 44.696C369.029 45.016 369.541 45.176 370.202 45.176H379.962C380.624 45.176 381.125 45.016 381.466 44.696C381.808 44.3547 381.978 43.928 381.978 43.416C381.978 42.904 381.808 42.488 381.466 42.168C381.125 41.8267 380.624 41.656 379.962 41.656H370.202C369.541 41.656 369.029 41.8267 368.666 42.168C368.325 42.488 368.154 42.904 368.154 43.416ZM364.794 35.576C363.28 35.576 362.202 35.256 361.562 34.616C360.944 33.976 360.634 32.952 360.634 31.544V22.808C360.634 21.8693 360.901 21.1653 361.434 20.696C361.968 20.2053 362.704 19.96 363.642 19.96C364.56 19.96 365.264 20.2053 365.754 20.696C366.266 21.1867 366.522 21.8907 366.522 22.808V23.192H372.57V22.808C372.57 21.8693 372.826 21.1653 373.338 20.696C373.85 20.2053 374.565 19.96 375.482 19.96C376.421 19.96 377.136 20.2053 377.626 20.696C378.138 21.1867 378.394 21.8907 378.394 22.808V35.576H364.794ZM366.522 30.232C366.522 30.5947 366.576 30.8293 366.682 30.936C366.789 31.0213 367.034 31.064 367.418 31.064H372.538V27.544H366.522V30.232ZM413.723 22.552C413.723 21.5493 414.032 20.7707 414.651 20.216C415.269 19.6613 416.027 19.384 416.923 19.384C417.819 19.384 418.576 19.6613 419.195 20.216C419.813 20.7707 420.123 21.5493 420.123 22.552V36.632H413.723V22.552ZM395.771 43C394.896 43 394.213 42.776 393.723 42.328C393.232 41.8587 392.987 41.24 392.987 40.472C392.987 39.704 393.232 39.096 393.723 38.648C394.213 38.1787 394.896 37.944 395.771 37.944H415.579C416.923 37.944 417.925 38.0933 418.587 38.392C419.248 38.6693 419.696 39.1493 419.931 39.832C420.187 40.5147 420.315 41.528 420.315 42.872V49.432H413.851V43.768C413.851 43.256 413.595 43 413.083 43H395.771ZM392.987 31C394.544 30.3813 395.707 29.5067 396.475 28.376C397.243 27.224 397.659 25.624 397.723 23.576V22.456C397.765 21.6027 398.096 20.9307 398.715 20.44C399.333 19.9493 400.08 19.704 400.955 19.704C401.872 19.704 402.629 19.9707 403.227 20.504C403.824 21.016 404.123 21.7093 404.123 22.584V23.672C404.123 24.312 404.069 25.0267 403.963 25.816C406.416 26.0507 408.293 27.0107 409.595 28.696C410.917 30.3813 411.525 32.7813 411.419 35.896H405.179L405.211 35.192C405.211 33.912 404.965 32.8987 404.475 32.152C403.984 31.384 403.269 30.8933 402.331 30.68C401.627 31.8747 400.784 32.8987 399.803 33.752C398.843 34.584 397.84 35.224 396.795 35.672C395.749 36.0987 394.779 36.312 393.883 36.312C392.987 36.312 392.272 36.0773 391.739 35.608C391.227 35.1387 390.971 34.456 390.971 33.56C390.971 32.9627 391.141 32.44 391.483 31.992C391.845 31.544 392.347 31.2133 392.987 31Z" fill="#FF9C00"/>
</svg>
