<svg width="259" height="90" viewBox="0 0 259 90" fill="none" xmlns="http://www.w3.org/2000/svg">
<rect width="259" height="90" rx="14.4" fill="url(#paint0_linear_2008_1745)" fill-opacity="0.8"/>
<path d="M27.2808 19.222L32.7888 19.672L28.5048 23.038L29.9268 28.618L25.3188 25.54L20.6928 28.618L22.1148 23.038L17.8308 19.672L23.3388 19.222L25.3188 14.092L27.2808 19.222ZM44.7408 19.222L50.2488 19.672L45.9648 23.038L47.3868 28.618L42.7788 25.54L38.1528 28.618L39.5748 23.038L35.2908 19.672L40.7988 19.222L42.7788 14.092L44.7408 19.222ZM62.2008 19.222L67.7088 19.672L63.4248 23.038L64.8468 28.618L60.2388 25.54L55.6128 28.618L57.0348 23.038L52.7508 19.672L58.2588 19.222L60.2388 14.092L62.2008 19.222ZM79.6608 19.222L85.1688 19.672L80.8848 23.038L82.3068 28.618L77.6988 25.54L73.0728 28.618L74.4948 23.038L70.2108 19.672L75.7188 19.222L77.6988 14.092L79.6608 19.222ZM97.1208 19.222L102.629 19.672L98.3448 23.038L99.7668 28.618L95.1588 25.54L90.5328 28.618L91.9548 23.038L87.6708 19.672L93.1788 19.222L95.1588 14.092L97.1208 19.222Z" fill="#FCCF16"/>
<path d="M118.827 17.76C118.827 19.2864 118.294 20.5968 117.229 21.6912C116.163 22.7856 114.694 23.5872 112.822 24.096L112.477 23.3904C114.166 22.9392 115.496 22.2528 116.466 21.3312C117.435 20.4 117.92 19.32 117.92 18.0912V17.76H118.827ZM118.381 17.76V18.48H113.11V17.76H118.381ZM122.499 16.9104V24.0096H121.621V16.9104H122.499ZM122.499 24.6432V29.2224H114.493V24.6432H122.499ZM115.342 25.3632V28.5024H121.65V25.3632H115.342ZM128.13 22.512L130.276 21.8208L130.549 22.656L128.404 23.3616L129.757 25.2336L129.052 25.7952L127.698 23.88L126.33 25.7952L125.653 25.2336L127.007 23.3616L124.832 22.656L125.106 21.8208L127.266 22.512V20.1936H128.13V22.512ZM135.376 22.512L137.522 21.8208L137.795 22.656L135.65 23.3616L137.003 25.2336L136.298 25.7952L134.944 23.88L133.576 25.7952L132.899 25.2336L134.253 23.3616L132.078 22.656L132.352 21.8208L134.512 22.512V20.1936H135.376V22.512ZM149.131 16.9104V24.024H148.267V16.9104H149.131ZM140.635 17.6304V22.6992H139.771V17.6304H140.635ZM140.75 22.1952C141.835 22.1952 142.857 22.152 143.817 22.0656C144.787 21.9696 145.766 21.816 146.755 21.6048L146.913 22.3536C145.857 22.5648 144.84 22.7184 143.861 22.8144C142.881 22.9008 141.845 22.944 140.75 22.944H139.771V22.1952H140.75ZM149.131 24.6576V29.2224H141.168V24.6576H149.131ZM142.017 25.3776V28.5024H148.281V25.3776H142.017Z" fill="#EEEEEE"/>
<path d="M26.7696 41.9368V54.796H25.1712V41.9368H26.7696ZM28.7136 46.804V48.1144H26.4096V46.804H28.7136ZM18.36 50.3464C19.5888 50.3464 20.64 50.3176 21.5136 50.26C22.3968 50.2024 23.2848 50.092 24.1776 49.9288L24.336 51.2536C23.4336 51.4168 22.5312 51.5272 21.6288 51.5848C20.736 51.6424 19.6464 51.6712 18.36 51.6712H17.3088V50.3464H18.36ZM23.2848 43.1752V44.4424H18.8928V50.98H17.3088V43.1752H23.2848ZM40.5507 48.9496V50.2168H28.9443V48.9496H40.5507ZM39.3987 53.2552V54.5224H30.4275V53.2552H39.3987ZM32.0115 51.0376V53.788H30.4275V51.0376H32.0115ZM39.0963 42.2968V45.724H31.9539V47.1928H30.4131V44.5864H37.5411V43.5064H30.3843V42.2968H39.0963ZM39.3699 46.8184V48.0136H30.4131V46.8184H39.3699ZM48.953 49.7128V51.8008H47.369V49.7128H48.953ZM54.5546 41.9656V54.7816H52.985V41.9656H54.5546ZM44.0426 51.2248C45.6746 51.2248 47.153 51.2056 48.4778 51.1672C49.8026 51.1192 51.065 51.0136 52.265 50.8504L52.3658 51.988C51.1274 52.2184 49.8602 52.3672 48.5642 52.4344C47.2778 52.492 45.833 52.5208 44.2298 52.5208L44.0426 51.2248ZM52.0346 43.4344V44.6728H44.2874V43.4344H52.0346ZM48.161 45.2776C48.7754 45.2776 49.3226 45.3784 49.8026 45.58C50.2826 45.772 50.6522 46.0504 50.9114 46.4152C51.1802 46.78 51.3146 47.1976 51.3146 47.668C51.3146 48.1384 51.1802 48.556 50.9114 48.9208C50.6522 49.2856 50.2826 49.5688 49.8026 49.7704C49.3226 49.9624 48.7754 50.0584 48.161 50.0584C47.5466 50.0584 46.9994 49.9624 46.5194 49.7704C46.049 49.5688 45.6794 49.2856 45.4106 48.9208C45.1514 48.556 45.0218 48.1384 45.0218 47.668C45.0218 47.1976 45.1514 46.78 45.4106 46.4152C45.6794 46.0504 46.049 45.772 46.5194 45.58C46.9994 45.3784 47.5466 45.2776 48.161 45.2776ZM48.161 46.4728C47.6714 46.4728 47.273 46.5832 46.9658 46.804C46.6682 47.0152 46.5194 47.3032 46.5194 47.668C46.5194 48.0328 46.6682 48.3256 46.9658 48.5464C47.273 48.7576 47.6714 48.8632 48.161 48.8632C48.6602 48.8632 49.0586 48.7576 49.3562 48.5464C49.6538 48.3352 49.8026 48.0424 49.8026 47.668C49.8026 47.2936 49.6538 47.0008 49.3562 46.7896C49.0586 46.5784 48.6602 46.4728 48.161 46.4728ZM48.953 41.9944V44.14H47.369V41.9944H48.953ZM60.8189 49.5688V51.6424H59.2349V49.5688H60.8189ZM66.2045 41.9656V54.7816H64.6205V41.9656H66.2045ZM67.9613 47.2504V48.5752H65.6717V47.2504H67.9613ZM55.9949 51.2248C57.5597 51.2248 58.9805 51.2056 60.2573 51.1672C61.5437 51.1192 62.7629 51.0136 63.9149 50.8504L64.0445 51.988C62.8445 52.2184 61.6301 52.3672 60.4013 52.4344C59.1821 52.492 57.7853 52.5208 56.2109 52.5208L55.9949 51.2248ZM63.8141 43.42V44.6728H56.2253V43.42H63.8141ZM60.0269 45.2776C60.6317 45.2776 61.1645 45.3784 61.6253 45.58C62.0957 45.772 62.4605 46.0504 62.7197 46.4152C62.9885 46.78 63.1229 47.1976 63.1229 47.668C63.1229 48.1384 62.9885 48.556 62.7197 48.9208C62.4605 49.2856 62.0957 49.5688 61.6253 49.7704C61.1645 49.9624 60.6317 50.0584 60.0269 50.0584C59.4221 50.0584 58.8845 49.9624 58.4141 49.7704C57.9533 49.5688 57.5933 49.2856 57.3341 48.9208C57.0749 48.556 56.9453 48.1384 56.9453 47.668C56.9453 47.1976 57.0749 46.78 57.3341 46.4152C57.5933 46.0504 57.9533 45.772 58.4141 45.58C58.8845 45.3784 59.4221 45.2776 60.0269 45.2776ZM60.0413 46.4728C59.5517 46.4728 59.1629 46.5784 58.8749 46.7896C58.5869 47.0008 58.4429 47.2936 58.4429 47.668C58.4429 48.0424 58.5869 48.3352 58.8749 48.5464C59.1629 48.7576 59.5517 48.8632 60.0413 48.8632C60.5213 48.8632 60.9053 48.7576 61.1933 48.5464C61.4813 48.3352 61.6253 48.0424 61.6253 47.668C61.6253 47.2936 61.4813 47.0008 61.1933 46.7896C60.9053 46.5784 60.5213 46.4728 60.0413 46.4728ZM60.8189 42.0088V44.3272H59.2349V42.0088H60.8189ZM74.6356 42.8728C75.2692 42.8728 75.8308 43.06 76.3204 43.4344C76.8196 43.7992 77.2084 44.3272 77.4868 45.0184C77.7652 45.7 77.9044 46.4968 77.9044 47.4088C77.9044 48.3208 77.7652 49.1224 77.4868 49.8136C77.2084 50.5048 76.8196 51.0376 76.3204 51.412C75.8308 51.7768 75.2692 51.9592 74.6356 51.9592C74.0116 51.9592 73.45 51.7768 72.9508 51.412C72.4612 51.0376 72.0772 50.5048 71.7988 49.8136C71.5204 49.1224 71.3812 48.3208 71.3812 47.4088C71.3812 46.4968 71.5204 45.7 71.7988 45.0184C72.0772 44.3272 72.4612 43.7992 72.9508 43.4344C73.45 43.06 74.0116 42.8728 74.6356 42.8728ZM74.6356 44.3128C74.29 44.3128 73.9828 44.4376 73.714 44.6872C73.4548 44.9272 73.2484 45.2824 73.0948 45.7528C72.9508 46.2136 72.8788 46.7656 72.8788 47.4088C72.8788 48.052 72.9508 48.6088 73.0948 49.0792C73.2484 49.5496 73.4548 49.9096 73.714 50.1592C73.9828 50.4088 74.29 50.5336 74.6356 50.5336C74.9908 50.5336 75.3028 50.4088 75.5716 50.1592C75.8404 49.9096 76.0468 49.5496 76.1908 49.0792C76.3348 48.6088 76.4068 48.052 76.4068 47.4088C76.4068 46.7656 76.3348 46.2136 76.1908 45.7528C76.0468 45.2824 75.8404 44.9272 75.5716 44.6872C75.3028 44.4376 74.9908 44.3128 74.6356 44.3128ZM81.8356 41.9368V54.796H80.266V41.9368H81.8356ZM80.9428 46.6744V47.9416H77.4148V46.6744H80.9428ZM93.8456 42.34V43.5208H84.356V42.34H93.8456ZM93.7736 45.4648V46.66H84.4424V45.4648H93.7736ZM87.6968 42.7864V46.228H86.1128V42.7864H87.6968ZM92.1032 42.7864V46.228H90.5336V42.7864H92.1032ZM94.9112 47.4664V48.7192H83.3336V47.4664H94.9112ZM93.4712 49.5832V52.636H86.2568V53.9608H84.716V51.556H91.916V50.7352H84.6728V49.5832H93.4712ZM93.8312 53.5V54.6664H84.716V53.5H93.8312ZM105.812 47.7688V49.036H96.8843V47.7688H105.812ZM107.094 51.9592V53.2552H95.4875V51.9592H107.094ZM102.054 48.3304V52.4056H100.484V48.3304H102.054ZM105.697 42.8872V44.1544H98.4683V48.3304H96.8843V42.8872H105.697ZM120.565 41.9656V48.3736H118.981V41.9656H120.565ZM122.336 44.716V46.012H119.917V44.716H122.336ZM116.994 42.772V48.0712H110.975V42.772H116.994ZM112.53 44.0104V46.8328H115.439V44.0104H112.53ZM112.429 53.1688C113.005 53.1688 113.543 53.14 114.042 53.0824C114.551 53.0152 115.031 52.9 115.482 52.7368L115.727 54.004C115.208 54.1768 114.685 54.292 114.157 54.3496C113.629 54.4168 113.053 54.4504 112.429 54.4504H111.752V53.1688H112.429ZM113.279 49.5256V53.5H111.752V49.5256H113.279ZM121.674 49.6408V50.7784H115.266V49.6408H121.674ZM118.477 51.1672C119.197 51.1672 119.783 51.3304 120.234 51.6568C120.685 51.9832 120.911 52.42 120.911 52.9672C120.911 53.5144 120.685 53.9512 120.234 54.2776C119.783 54.6136 119.192 54.7816 118.463 54.7816C117.743 54.7816 117.157 54.6136 116.706 54.2776C116.264 53.9512 116.043 53.5144 116.043 52.9672C116.043 52.42 116.269 51.9832 116.72 51.6568C117.171 51.3304 117.757 51.1672 118.477 51.1672ZM118.477 52.2616C118.17 52.2616 117.92 52.324 117.728 52.4488C117.536 52.5736 117.44 52.7464 117.44 52.9672C117.44 53.188 117.536 53.3656 117.728 53.5C117.92 53.6248 118.17 53.6872 118.477 53.6872C118.784 53.6872 119.034 53.6248 119.226 53.5C119.418 53.3656 119.514 53.188 119.514 52.9672C119.514 52.7464 119.418 52.5736 119.226 52.4488C119.034 52.324 118.784 52.2616 118.477 52.2616ZM119.255 48.6472V50.476H117.714V48.6472H119.255ZM133.252 41.9368V54.796H131.653V41.9368H133.252ZM126.397 42.8728C127.041 42.8728 127.612 43.06 128.111 43.4344C128.62 43.7992 129.013 44.3272 129.292 45.0184C129.58 45.7 129.724 46.4968 129.724 47.4088C129.724 48.3208 129.58 49.1224 129.292 49.8136C129.013 50.5048 128.62 51.0376 128.111 51.412C127.612 51.7768 127.041 51.9592 126.397 51.9592C125.754 51.9592 125.178 51.7768 124.669 51.412C124.17 51.0376 123.777 50.5048 123.489 49.8136C123.21 49.1224 123.071 48.3208 123.071 47.4088C123.071 46.4968 123.21 45.7 123.489 45.0184C123.777 44.3272 124.17 43.7992 124.669 43.4344C125.178 43.06 125.754 42.8728 126.397 42.8728ZM126.397 44.3128C126.042 44.3128 125.725 44.4376 125.447 44.6872C125.178 44.9272 124.967 45.2824 124.813 45.7528C124.669 46.2136 124.597 46.7656 124.597 47.4088C124.597 48.052 124.669 48.6088 124.813 49.0792C124.967 49.5496 125.178 49.9096 125.447 50.1592C125.725 50.4088 126.042 50.5336 126.397 50.5336C126.753 50.5336 127.065 50.4088 127.333 50.1592C127.612 49.9096 127.823 49.5496 127.967 49.0792C128.121 48.6088 128.197 48.052 128.197 47.4088C128.197 46.7656 128.121 46.2136 127.967 45.7528C127.823 45.2824 127.612 44.9272 127.333 44.6872C127.065 44.4376 126.753 44.3128 126.397 44.3128ZM141.985 43.0024V45.0184C141.985 46.036 141.846 47.0152 141.568 47.956C141.289 48.8968 140.881 49.732 140.344 50.4616C139.816 51.1816 139.182 51.7288 138.443 52.1032L137.492 50.8216C138.155 50.5048 138.726 50.044 139.206 49.4392C139.696 48.8248 140.065 48.1336 140.315 47.3656C140.574 46.5976 140.704 45.8152 140.704 45.0184V43.0024H141.985ZM142.273 43.0024V45.0184C142.273 45.7864 142.393 46.54 142.633 47.2792C142.883 48.0184 143.238 48.6808 143.699 49.2664C144.16 49.8424 144.712 50.2888 145.355 50.6056L144.39 51.8584C143.68 51.4936 143.07 50.9656 142.561 50.2744C142.052 49.5736 141.664 48.772 141.395 47.8696C141.136 46.9576 141.006 46.0072 141.006 45.0184V43.0024H142.273ZM147.688 41.9656V54.7816H146.089V41.9656H147.688ZM149.646 46.9912V48.316H147.328V46.9912H149.646ZM154.139 46.2712V48.6472H152.57V46.2712H154.139ZM158.733 46.2712V48.6472H157.163V46.2712H158.733ZM161.454 48.1432V49.3816H149.877V48.1432H161.454ZM155.651 50.1592C157.034 50.1592 158.114 50.3608 158.891 50.764C159.678 51.1672 160.072 51.7336 160.072 52.4632C160.072 53.2024 159.678 53.7736 158.891 54.1768C158.114 54.58 157.034 54.7816 155.651 54.7816C154.259 54.7816 153.17 54.58 152.382 54.1768C151.605 53.7736 151.216 53.2024 151.216 52.4632C151.216 51.7336 151.605 51.1672 152.382 50.764C153.17 50.3608 154.259 50.1592 155.651 50.1592ZM155.651 51.3688C155.037 51.3688 154.518 51.412 154.096 51.4984C153.674 51.5752 153.352 51.6952 153.131 51.8584C152.92 52.0216 152.814 52.2232 152.814 52.4632C152.814 52.828 153.054 53.1064 153.534 53.2984C154.024 53.4808 154.73 53.572 155.651 53.572C156.573 53.572 157.274 53.4808 157.754 53.2984C158.234 53.1064 158.474 52.828 158.474 52.4632C158.474 52.2232 158.363 52.0216 158.142 51.8584C157.931 51.6952 157.614 51.5752 157.192 51.4984C156.779 51.412 156.266 51.3688 155.651 51.3688ZM155.666 42.1672C156.597 42.1672 157.408 42.2632 158.099 42.4552C158.79 42.6472 159.323 42.9304 159.698 43.3048C160.072 43.6696 160.259 44.1016 160.259 44.6008C160.259 45.1 160.072 45.532 159.698 45.8968C159.323 46.2616 158.79 46.54 158.099 46.732C157.408 46.924 156.597 47.02 155.666 47.02C154.734 47.02 153.923 46.924 153.232 46.732C152.541 46.54 152.008 46.2616 151.634 45.8968C151.259 45.532 151.072 45.1 151.072 44.6008C151.072 44.1016 151.259 43.6696 151.634 43.3048C152.008 42.9304 152.541 42.6472 153.232 42.4552C153.923 42.2632 154.734 42.1672 155.666 42.1672ZM155.651 43.3768C155.037 43.3768 154.509 43.4248 154.067 43.5208C153.626 43.6168 153.285 43.756 153.045 43.9384C152.814 44.1208 152.699 44.3416 152.699 44.6008C152.699 44.9944 152.958 45.2968 153.477 45.508C153.995 45.7192 154.725 45.8248 155.666 45.8248C156.597 45.8248 157.322 45.7192 157.84 45.508C158.358 45.2968 158.618 44.9944 158.618 44.6008C158.618 44.3416 158.498 44.1208 158.258 43.9384C158.027 43.756 157.691 43.6168 157.25 43.5208C156.808 43.4248 156.275 43.3768 155.651 43.3768ZM168.223 43.996V45.2488H162.002V43.996H168.223ZM165.127 45.94C165.664 45.94 166.144 46.0696 166.567 46.3288C166.989 46.5784 167.32 46.9336 167.56 47.3944C167.8 47.8456 167.92 48.3592 167.92 48.9352C167.92 49.5208 167.8 50.044 167.56 50.5048C167.32 50.956 166.989 51.3112 166.567 51.5704C166.144 51.82 165.664 51.9448 165.127 51.9448C164.599 51.9448 164.123 51.82 163.701 51.5704C163.279 51.3112 162.947 50.956 162.707 50.5048C162.467 50.044 162.347 49.5208 162.347 48.9352C162.347 48.3592 162.467 47.8456 162.707 47.3944C162.947 46.9336 163.279 46.5784 163.701 46.3288C164.123 46.0696 164.599 45.94 165.127 45.94ZM165.127 47.2504C164.858 47.2504 164.618 47.3224 164.407 47.4664C164.205 47.6008 164.042 47.7976 163.917 48.0568C163.802 48.3064 163.744 48.5992 163.744 48.9352C163.744 49.2712 163.802 49.5688 163.917 49.828C164.032 50.0776 164.195 50.2744 164.407 50.4184C164.618 50.5528 164.858 50.62 165.127 50.62C165.395 50.62 165.635 50.5528 165.847 50.4184C166.058 50.2744 166.221 50.0776 166.336 49.828C166.461 49.5688 166.523 49.2712 166.523 48.9352C166.523 48.5992 166.461 48.3064 166.336 48.0568C166.221 47.7976 166.058 47.6008 165.847 47.4664C165.635 47.3224 165.395 47.2504 165.127 47.2504ZM172.96 41.9512V54.7672H171.463V41.9512H172.96ZM171.952 47.236V48.5176H169.72V47.236H171.952ZM170.224 42.2248V54.1912H168.741V42.2248H170.224ZM165.904 42.2968V44.788H164.349V42.2968H165.904ZM184.25 41.9656V49.7848H182.666V41.9656H184.25ZM185.978 45.3496V46.6456H183.674V45.3496H185.978ZM174.127 48.316C175.711 48.3064 177.132 48.2776 178.389 48.2296C179.647 48.1816 180.833 48.0808 181.946 47.9272L182.061 49.0072C180.919 49.2088 179.714 49.3432 178.447 49.4104C177.189 49.4776 175.807 49.516 174.3 49.5256L174.127 48.316ZM178.879 46.4872V48.5608H177.295V46.4872H178.879ZM176.546 42.484V43.5784H179.599V42.484H181.169V47.0776H174.977V42.484H176.546ZM176.546 45.8248H179.599V44.788H176.546V45.8248ZM178.101 50.26V50.5192C178.101 51.46 177.852 52.3 177.353 53.0392C176.863 53.7688 176.148 54.292 175.207 54.6088L174.458 53.4568C174.996 53.2936 175.447 53.0584 175.812 52.7512C176.177 52.444 176.45 52.1032 176.633 51.7288C176.815 51.3448 176.906 50.9416 176.906 50.5192V50.26H178.101ZM178.447 50.26V50.5192C178.447 50.9224 178.524 51.3208 178.677 51.7144C178.841 52.108 179.085 52.468 179.412 52.7944C179.748 53.1112 180.161 53.3656 180.65 53.5576L180.017 54.7384C179.105 54.4024 178.423 53.8504 177.972 53.0824C177.521 52.3048 177.295 51.4504 177.295 50.5192V50.26H178.447ZM182.738 50.26V50.5192C182.738 51.4408 182.513 52.2904 182.061 53.068C181.61 53.8456 180.929 54.4024 180.017 54.7384L179.383 53.5576C179.873 53.356 180.281 53.092 180.607 52.7656C180.943 52.4392 181.193 52.084 181.356 51.7C181.519 51.3064 181.601 50.9128 181.601 50.5192V50.26H182.738ZM183.156 50.26V50.5192C183.156 50.9416 183.247 51.3448 183.429 51.7288C183.612 52.1032 183.885 52.444 184.25 52.7512C184.615 53.0584 185.066 53.2936 185.604 53.4568L184.841 54.6088C183.9 54.292 183.18 53.7688 182.681 53.0392C182.191 52.3 181.946 51.46 181.946 50.5192V50.26H183.156ZM190.788 43.9096V45.5944C190.788 46.5544 190.639 47.4856 190.342 48.388C190.054 49.2904 189.636 50.092 189.089 50.7928C188.542 51.484 187.899 52.0024 187.159 52.348L186.252 51.0952C186.915 50.788 187.491 50.3464 187.98 49.7704C188.479 49.1848 188.859 48.5272 189.118 47.7976C189.387 47.068 189.521 46.3336 189.521 45.5944V43.9096H190.788ZM191.119 43.9096V45.5944C191.119 46.3048 191.249 47.0056 191.508 47.6968C191.777 48.3784 192.156 48.9928 192.646 49.54C193.145 50.0872 193.726 50.5 194.388 50.7784L193.51 52.0312C192.761 51.6952 192.108 51.2008 191.551 50.548C191.004 49.8952 190.582 49.1416 190.284 48.2872C189.996 47.4232 189.852 46.5256 189.852 45.5944V43.9096H191.119ZM193.913 43.2184V44.5288H186.727V43.2184H193.913ZM196.894 41.9656V54.7816H195.31V41.9656H196.894ZM204.958 43.0456V49.1512H198.939V43.0456H204.958ZM200.494 44.2984V47.8696H203.403V44.2984H200.494ZM208.529 41.9512V51.3112H206.945V41.9512H208.529ZM210.3 45.724V47.0344H208.068V45.724H210.3ZM209.033 53.2552V54.5224H200.379V53.2552H209.033ZM201.963 50.404V53.86H200.379V50.404H201.963ZM223.08 43.7368V45.0184H219.25V43.7368H223.08ZM223.08 46.5592V47.8408H219.25V46.5592H223.08ZM224.175 50.1592V54.7816H222.591V51.412H215.506V50.1592H224.175ZM224.175 41.9656V49.5256H222.591V41.9656H224.175ZM217.047 42.6568C217.671 42.6568 218.237 42.7912 218.746 43.06C219.255 43.3288 219.653 43.7032 219.941 44.1832C220.239 44.6536 220.388 45.1864 220.388 45.7816C220.388 46.3768 220.239 46.9144 219.941 47.3944C219.653 47.8744 219.255 48.2488 218.746 48.5176C218.237 48.7864 217.671 48.9208 217.047 48.9208C216.413 48.9208 215.842 48.7864 215.333 48.5176C214.824 48.2488 214.421 47.8744 214.124 47.3944C213.836 46.9144 213.692 46.3768 213.692 45.7816C213.692 45.1864 213.836 44.6536 214.124 44.1832C214.421 43.7032 214.824 43.3288 215.333 43.06C215.842 42.7912 216.413 42.6568 217.047 42.6568ZM217.047 43.996C216.692 43.996 216.37 44.0728 216.082 44.2264C215.804 44.3704 215.583 44.5768 215.42 44.8456C215.266 45.1144 215.189 45.4264 215.189 45.7816C215.189 46.1464 215.266 46.4632 215.42 46.732C215.583 47.0008 215.804 47.212 216.082 47.3656C216.37 47.5096 216.692 47.5816 217.047 47.5816C217.392 47.5816 217.704 47.5096 217.983 47.3656C218.261 47.212 218.477 47.0008 218.631 46.732C218.794 46.4632 218.876 46.1464 218.876 45.7816C218.876 45.4264 218.794 45.1144 218.631 44.8456C218.477 44.5768 218.261 44.3704 217.983 44.2264C217.704 44.0728 217.392 43.996 217.047 43.996ZM230.18 43.0024V45.0184C230.18 46.084 230.036 47.0968 229.748 48.0568C229.46 49.0072 229.038 49.8424 228.481 50.5624C227.934 51.2824 227.271 51.8296 226.494 52.204L225.543 50.8936C226.225 50.5864 226.815 50.1304 227.314 49.5256C227.823 48.9208 228.212 48.2296 228.481 47.452C228.75 46.6648 228.884 45.8536 228.884 45.0184V43.0024H230.18ZM230.482 43.0024V45.0184C230.482 45.8152 230.612 46.588 230.871 47.3368C231.13 48.0856 231.505 48.7528 231.994 49.3384C232.494 49.9144 233.079 50.3512 233.751 50.6488L232.83 51.9304C232.071 51.5752 231.414 51.052 230.857 50.3608C230.31 49.66 229.892 48.8536 229.604 47.9416C229.326 47.02 229.186 46.0456 229.186 45.0184V43.0024H230.482ZM236.242 41.9368V54.796H234.658V41.9368H236.242ZM21.816 65.4888V68.2968H20.232V65.4888H21.816ZM27.4464 58.9512V68.6856H25.8624V58.9512H27.4464ZM27.7488 70.2552V71.5224H18.4032V70.2552H27.7488ZM19.9872 67.7496V70.6008H18.4032V67.7496H19.9872ZM16.7184 64.7256C18.36 64.716 19.8384 64.6872 21.1536 64.6392C22.4688 64.5912 23.7264 64.4952 24.9264 64.3512L25.0128 65.4744C23.8032 65.676 22.5456 65.8104 21.24 65.8776C19.9344 65.9448 18.4944 65.9832 16.92 65.9928L16.7184 64.7256ZM26.2368 66.4536V67.548H23.3856V66.4536H26.2368ZM20.8656 59.4264C21.48 59.4264 22.0272 59.5224 22.5072 59.7144C22.9872 59.8968 23.3616 60.1608 23.6304 60.5064C23.8992 60.852 24.0336 61.2456 24.0336 61.6872C24.0336 62.1384 23.8992 62.5368 23.6304 62.8824C23.3616 63.228 22.9872 63.4968 22.5072 63.6888C22.0272 63.8712 21.4752 63.9624 20.8512 63.9624C20.2272 63.9624 19.6752 63.8712 19.1952 63.6888C18.7152 63.4968 18.3408 63.228 18.072 62.8824C17.8032 62.5368 17.6688 62.1384 17.6688 61.6872C17.6688 61.2456 17.8032 60.852 18.072 60.5064C18.3408 60.1608 18.7152 59.8968 19.1952 59.7144C19.6848 59.5224 20.2416 59.4264 20.8656 59.4264ZM20.8656 60.5784C20.3568 60.5784 19.9488 60.6792 19.6416 60.8808C19.3344 61.0728 19.1808 61.3416 19.1808 61.6872C19.1808 62.0328 19.3344 62.3064 19.6416 62.508C19.9488 62.7 20.3568 62.796 20.8656 62.796C21.3648 62.796 21.7632 62.7 22.0608 62.508C22.368 62.3064 22.5216 62.0328 22.5216 61.6872C22.5216 61.3416 22.368 61.0728 22.0608 60.8808C21.7632 60.6792 21.3648 60.5784 20.8656 60.5784ZM32.4003 59.8728C33.0339 59.8728 33.5955 60.06 34.0851 60.4344C34.5843 60.7992 34.9731 61.3272 35.2515 62.0184C35.5299 62.7 35.6691 63.4968 35.6691 64.4088C35.6691 65.3208 35.5299 66.1224 35.2515 66.8136C34.9731 67.5048 34.5843 68.0376 34.0851 68.412C33.5955 68.7768 33.0339 68.9592 32.4003 68.9592C31.7763 68.9592 31.2147 68.7768 30.7155 68.412C30.2259 68.0376 29.8419 67.5048 29.5635 66.8136C29.2851 66.1224 29.1459 65.3208 29.1459 64.4088C29.1459 63.4968 29.2851 62.7 29.5635 62.0184C29.8419 61.3272 30.2259 60.7992 30.7155 60.4344C31.2147 60.06 31.7763 59.8728 32.4003 59.8728ZM32.4003 61.3128C32.0547 61.3128 31.7475 61.4376 31.4787 61.6872C31.2195 61.9272 31.0131 62.2824 30.8595 62.7528C30.7155 63.2136 30.6435 63.7656 30.6435 64.4088C30.6435 65.052 30.7155 65.6088 30.8595 66.0792C31.0131 66.5496 31.2195 66.9096 31.4787 67.1592C31.7475 67.4088 32.0547 67.5336 32.4003 67.5336C32.7555 67.5336 33.0675 67.4088 33.3363 67.1592C33.6051 66.9096 33.8115 66.5496 33.9555 66.0792C34.0995 65.6088 34.1715 65.052 34.1715 64.4088C34.1715 63.7656 34.0995 63.2136 33.9555 62.7528C33.8115 62.2824 33.6051 61.9272 33.3363 61.6872C33.0675 61.4376 32.7555 61.3128 32.4003 61.3128ZM39.6003 58.9368V71.796H38.0307V58.9368H39.6003ZM38.7075 63.6744V64.9416H35.1795V63.6744H38.7075ZM47.8663 60.0024V66.1224H41.7463V60.0024H47.8663ZM43.3015 61.2552V64.8552H46.3255V61.2552H43.3015ZM51.6823 58.9656V68.1096H50.0983V58.9656H51.6823ZM52.0423 70.1688V71.436H43.2727V70.1688H52.0423ZM44.8567 67.26V70.716H43.2727V67.26H44.8567ZM59.4298 60.276V61.5432H53.7994V60.276H59.4298ZM57.1402 63.948V68.2968H55.585V63.948H57.1402ZM60.3514 60.276V61.1832C60.3514 62.0376 60.3274 62.8392 60.2794 63.588C60.241 64.3368 60.145 65.196 59.9914 66.1656L58.4362 66.036C58.5898 65.0952 58.6858 64.26 58.7242 63.5304C58.7722 62.8008 58.7962 62.0184 58.7962 61.1832V60.276H60.3514ZM63.217 58.9512V71.7672H61.6474V58.9512H63.217ZM65.0746 64.1928V65.5032H62.7706V64.1928H65.0746ZM53.1226 67.8072C54.6298 67.8072 56.0314 67.788 57.3274 67.7496C58.633 67.7016 59.8522 67.6056 60.985 67.4616L61.0714 68.6136C59.9002 68.8056 58.6618 68.9352 57.3562 69.0024C56.0602 69.0696 54.7066 69.1032 53.2954 69.1032L53.1226 67.8072ZM72.4113 70.6584L70.8849 70.644V61.8168L69.0417 62.8392L68.4081 61.5576L70.8993 60.1896H72.4113V70.6584ZM75.5356 62.1192C75.7852 62.1192 75.9868 62.2008 76.1404 62.364C76.3036 62.5176 76.3852 62.7192 76.3852 62.9688C76.3852 63.2184 76.3036 63.4248 76.1404 63.588C75.9868 63.7512 75.7852 63.8328 75.5356 63.8328C75.286 63.8328 75.0796 63.7512 74.9164 63.588C74.7628 63.4248 74.686 63.2184 74.686 62.9688C74.686 62.7192 74.7676 62.5176 74.9308 62.364C75.094 62.2008 75.2956 62.1192 75.5356 62.1192ZM75.5356 66.9576C75.7852 66.9576 75.9868 67.0392 76.1404 67.2024C76.3036 67.356 76.3852 67.5576 76.3852 67.8072C76.3852 68.0568 76.3036 68.2632 76.1404 68.4264C75.9868 68.5896 75.7852 68.6712 75.5356 68.6712C75.286 68.6712 75.0796 68.5896 74.9164 68.4264C74.7628 68.2632 74.686 68.0568 74.686 67.8072C74.686 67.5576 74.7676 67.356 74.9308 67.2024C75.094 67.0392 75.2956 66.9576 75.5356 66.9576ZM81.8551 70.6584L80.3287 70.644V61.8168L78.4855 62.8392L77.8519 61.5576L80.3431 60.1896H81.8551V70.6584ZM94.9298 69.0024V70.284H83.3234V69.0024H94.9298ZM89.8898 66.4536V69.5208H88.3202V66.4536H89.8898ZM93.5762 59.8296V63.948H86.261V66.252H84.7058V62.6952H92.0066V61.0824H84.677V59.8296H93.5762ZM93.8642 65.6328V66.9H84.7058V65.6328H93.8642ZM109.971 68.9016V70.1976H98.3641V68.9016H109.971ZM104.902 65.9496V69.276H103.318V65.9496H104.902ZM104.657 59.7144V60.6648C104.657 61.5576 104.427 62.3976 103.966 63.1848C103.515 63.9624 102.886 64.6248 102.079 65.172C101.273 65.7096 100.366 66.0792 99.3577 66.2808L98.7097 64.9416C99.5737 64.7976 100.351 64.5096 101.043 64.0776C101.743 63.6456 102.291 63.1272 102.684 62.5224C103.078 61.9176 103.275 61.2984 103.275 60.6648V59.7144H104.657ZM104.945 59.7144V60.6648C104.945 61.308 105.142 61.932 105.535 62.5368C105.929 63.1416 106.476 63.66 107.177 64.092C107.878 64.5144 108.66 64.7976 109.524 64.9416L108.847 66.2808C107.839 66.0792 106.932 65.7096 106.126 65.172C105.329 64.6344 104.7 63.9768 104.239 63.1992C103.788 62.412 103.563 61.5672 103.563 60.6648V59.7144H104.945ZM122.081 65.6328V66.8856H110.504V65.6328H122.081ZM117.084 64.164V66.1224H115.5V64.164H117.084ZM120.814 63.4584V64.668H111.987V63.4584H120.814ZM120.728 59.3112V60.5208H113.556V64.1352H111.987V59.3112H120.728ZM120.425 61.3704V62.5512H113.096V61.3704H120.425ZM116.292 67.62C117.704 67.62 118.793 67.7976 119.561 68.1528C120.329 68.4984 120.713 69.012 120.713 69.6936C120.713 70.3656 120.329 70.8792 119.561 71.2344C118.793 71.5896 117.704 71.7672 116.292 71.7672C114.872 71.7672 113.777 71.5896 113.009 71.2344C112.241 70.8792 111.857 70.3656 111.857 69.6936C111.857 69.012 112.241 68.4984 113.009 68.1528C113.777 67.7976 114.872 67.62 116.292 67.62ZM116.292 68.772C115.342 68.772 114.632 68.8488 114.161 69.0024C113.691 69.156 113.456 69.3864 113.456 69.6936C113.456 70.0008 113.691 70.2312 114.161 70.3848C114.632 70.5288 115.337 70.6008 116.278 70.6008C117.228 70.6008 117.939 70.5288 118.409 70.3848C118.889 70.2312 119.129 70.0008 119.129 69.6936C119.129 69.3864 118.889 69.156 118.409 69.0024C117.939 68.8488 117.233 68.772 116.292 68.772ZM135.96 58.9656V71.7816H134.376V58.9656H135.96ZM137.904 64.0632V65.3736H135.6V64.0632H137.904ZM133.425 60.9096V62.1768H125.909V60.9096H133.425ZM129.696 63.0408C130.31 63.0408 130.862 63.1704 131.352 63.4296C131.841 63.6792 132.221 64.0344 132.489 64.4952C132.768 64.9464 132.907 65.4648 132.907 66.0504C132.907 66.636 132.768 67.1592 132.489 67.62C132.211 68.0712 131.827 68.4264 131.337 68.6856C130.857 68.9352 130.315 69.06 129.71 69.06C129.096 69.06 128.544 68.9352 128.054 68.6856C127.574 68.4264 127.195 68.0664 126.917 67.6056C126.638 67.1448 126.499 66.6264 126.499 66.0504C126.499 65.4744 126.638 64.956 126.917 64.4952C127.195 64.0344 127.574 63.6792 128.054 63.4296C128.544 63.1704 129.091 63.0408 129.696 63.0408ZM129.696 64.3224C129.369 64.3224 129.077 64.3944 128.817 64.5384C128.568 64.6824 128.371 64.884 128.227 65.1432C128.093 65.4024 128.025 65.7048 128.025 66.0504C128.025 66.396 128.093 66.6984 128.227 66.9576C128.371 67.2168 128.568 67.4184 128.817 67.5624C129.077 67.6968 129.369 67.764 129.696 67.764C130.022 67.764 130.31 67.6968 130.56 67.5624C130.819 67.4184 131.021 67.2168 131.165 66.9576C131.309 66.6984 131.381 66.396 131.381 66.0504C131.381 65.7048 131.309 65.4024 131.165 65.1432C131.021 64.884 130.819 64.6824 130.56 64.5384C130.31 64.3944 130.022 64.3224 129.696 64.3224ZM130.488 59.1528V61.428H128.889V59.1528H130.488ZM148.431 62.5656V63.8328H139.618V62.5656H148.431ZM149.741 65.316V66.5832H138.135V65.316H149.741ZM141.187 59.412V63.1992H139.618V59.412H141.187ZM148.503 70.212V71.4936H139.517V70.212H148.503ZM141.087 67.692V70.5576H139.517V67.692H141.087ZM161.261 58.9512V71.7672H159.749V58.9512H161.261ZM157.402 63.9912V65.2584H154.493V63.9912H157.402ZM158.54 59.2536V71.1624H157.057V59.2536H158.54ZM155.818 60.5064C155.818 61.7352 155.665 62.868 155.357 63.9048C155.05 64.932 154.546 65.8824 153.845 66.756C153.145 67.6296 152.223 68.4024 151.081 69.0744L150.173 67.9512C151.143 67.3752 151.93 66.732 152.535 66.0216C153.14 65.3112 153.581 64.5288 153.86 63.6744C154.138 62.82 154.277 61.8696 154.277 60.8232V60.5064H155.818ZM154.81 60.5064V61.788H150.821V60.5064H154.81ZM169.764 66.828V69.9672H168.209V66.828H169.764ZM173.998 66.828V69.9672H172.443V66.828H173.998ZM176.36 60.6504V61.932H165.862V60.6504H176.36ZM176.936 69.132V70.4136H165.329V69.132H176.936ZM171.104 62.5656C172.428 62.5656 173.47 62.7816 174.228 63.2136C174.996 63.6456 175.38 64.2504 175.38 65.028C175.38 65.7864 174.996 66.3816 174.228 66.8136C173.47 67.236 172.428 67.4472 171.104 67.4472C169.769 67.4472 168.718 67.236 167.95 66.8136C167.192 66.3816 166.812 65.7864 166.812 65.028C166.812 64.2504 167.192 63.6456 167.95 63.2136C168.718 62.7816 169.769 62.5656 171.104 62.5656ZM171.089 63.7752C170.523 63.7752 170.038 63.8232 169.635 63.9192C169.241 64.0152 168.939 64.1592 168.728 64.3512C168.526 64.5336 168.425 64.7592 168.425 65.028C168.425 65.2872 168.526 65.508 168.728 65.6904C168.939 65.8632 169.241 65.9976 169.635 66.0936C170.038 66.18 170.523 66.2232 171.089 66.2232C171.665 66.2232 172.15 66.18 172.544 66.0936C172.947 65.9976 173.249 65.8632 173.451 65.6904C173.662 65.508 173.768 65.2872 173.768 65.028C173.768 64.7592 173.662 64.5336 173.451 64.3512C173.249 64.1592 172.947 64.0152 172.544 63.9192C172.15 63.8232 171.665 63.7752 171.089 63.7752ZM171.91 59.1096V61.4424H170.312V59.1096H171.91ZM183.661 60.276V61.5432H178.03V60.276H183.661ZM181.371 63.948V68.2968H179.816V63.948H181.371ZM184.582 60.276V61.1832C184.582 62.0376 184.558 62.8392 184.51 63.588C184.472 64.3368 184.376 65.196 184.222 66.1656L182.667 66.036C182.821 65.0952 182.917 64.26 182.955 63.5304C183.003 62.8008 183.027 62.0184 183.027 61.1832V60.276H184.582ZM187.448 58.9512V71.7672H185.878V58.9512H187.448ZM189.306 64.1928V65.5032H187.002V64.1928H189.306ZM177.354 67.8072C178.861 67.8072 180.262 67.788 181.558 67.7496C182.864 67.7016 184.083 67.6056 185.216 67.4616L185.302 68.6136C184.131 68.8056 182.893 68.9352 181.587 69.0024C180.291 69.0696 178.938 69.1032 177.526 69.1032L177.354 67.8072ZM193.986 60.2472V61.14C193.986 61.9464 193.847 62.7048 193.568 63.4152C193.29 64.1256 192.882 64.7448 192.344 65.2728C191.807 65.8008 191.159 66.1944 190.4 66.4536L189.594 65.2152C190.247 64.9944 190.803 64.6728 191.264 64.2504C191.735 63.828 192.09 63.348 192.33 62.8104C192.57 62.2728 192.69 61.716 192.69 61.14V60.2472H193.986ZM194.288 60.2472V61.14C194.288 61.668 194.403 62.1864 194.634 62.6952C194.864 63.1944 195.2 63.6408 195.642 64.0344C196.093 64.428 196.64 64.7352 197.283 64.956L196.491 66.1944C195.752 65.9448 195.123 65.5656 194.605 65.0568C194.087 64.548 193.693 63.9576 193.424 63.2856C193.165 62.604 193.035 61.8888 193.035 61.14V60.2472H194.288ZM199.141 62.1192V63.4152H196.549V62.1192H199.141ZM196.923 59.7288V60.996H190.04V59.7288H196.923ZM200.264 67.2168V71.7816H198.68V68.4984H191.61V67.2168H200.264ZM200.264 58.9656V66.5976H198.68V58.9656H200.264ZM212.361 58.9368V71.796H210.762V58.9368H212.361ZM205.506 59.8728C206.149 59.8728 206.721 60.06 207.22 60.4344C207.729 60.7992 208.122 61.3272 208.401 62.0184C208.689 62.7 208.833 63.4968 208.833 64.4088C208.833 65.3208 208.689 66.1224 208.401 66.8136C208.122 67.5048 207.729 68.0376 207.22 68.412C206.721 68.7768 206.149 68.9592 205.506 68.9592C204.863 68.9592 204.287 68.7768 203.778 68.412C203.279 68.0376 202.885 67.5048 202.597 66.8136C202.319 66.1224 202.18 65.3208 202.18 64.4088C202.18 63.4968 202.319 62.7 202.597 62.0184C202.885 61.3272 203.279 60.7992 203.778 60.4344C204.287 60.06 204.863 59.8728 205.506 59.8728ZM205.506 61.3128C205.151 61.3128 204.834 61.4376 204.556 61.6872C204.287 61.9272 204.076 62.2824 203.922 62.7528C203.778 63.2136 203.706 63.7656 203.706 64.4088C203.706 65.052 203.778 65.6088 203.922 66.0792C204.076 66.5496 204.287 66.9096 204.556 67.1592C204.834 67.4088 205.151 67.5336 205.506 67.5336C205.861 67.5336 206.173 67.4088 206.442 67.1592C206.721 66.9096 206.932 66.5496 207.076 66.0792C207.229 65.6088 207.306 65.052 207.306 64.4088C207.306 63.7656 207.229 63.2136 207.076 62.7528C206.932 62.2824 206.721 61.9272 206.442 61.6872C206.173 61.4376 205.861 61.3128 205.506 61.3128ZM221.318 63.7752V65.0568H219.086V63.7752H221.318ZM224.889 58.9512V71.7672H223.391V58.9512H224.889ZM222.283 59.196V71.1624H220.799V59.196H222.283ZM216.811 59.916C217.367 59.916 217.852 60.1032 218.265 60.4776C218.687 60.8424 219.014 61.3704 219.244 62.0616C219.475 62.7528 219.59 63.564 219.59 64.4952C219.59 65.436 219.475 66.252 219.244 66.9432C219.014 67.6344 218.687 68.1672 218.265 68.5416C217.852 68.9064 217.367 69.0888 216.811 69.0888C216.254 69.0888 215.769 68.9064 215.356 68.5416C214.943 68.1672 214.622 67.6344 214.391 66.9432C214.171 66.252 214.06 65.436 214.06 64.4952C214.06 63.564 214.171 62.7528 214.391 62.0616C214.622 61.3704 214.943 60.8424 215.356 60.4776C215.769 60.1032 216.254 59.916 216.811 59.916ZM216.811 61.4136C216.532 61.4136 216.297 61.5336 216.105 61.7736C215.913 62.004 215.764 62.3496 215.659 62.8104C215.553 63.2712 215.5 63.8328 215.5 64.4952C215.5 65.1576 215.553 65.724 215.659 66.1944C215.764 66.6552 215.913 67.0056 216.105 67.2456C216.297 67.4856 216.532 67.6056 216.811 67.6056C217.089 67.6056 217.324 67.4856 217.516 67.2456C217.718 67.0056 217.871 66.6552 217.977 66.1944C218.083 65.724 218.135 65.1576 218.135 64.4952C218.135 63.8328 218.083 63.2712 217.977 62.8104C217.871 62.3496 217.718 62.004 217.516 61.7736C217.324 61.5336 217.089 61.4136 216.811 61.4136ZM230.347 65.4888V69.1752H228.763V65.4888H230.347ZM235.027 65.4888V69.1752H233.443V65.4888H235.027ZM237.705 68.9304V70.212H226.099V68.9304H237.705ZM231.888 59.6424C232.8 59.6424 233.616 59.7816 234.336 60.06C235.056 60.3384 235.617 60.7368 236.02 61.2552C236.424 61.764 236.625 62.3544 236.625 63.0264C236.625 63.6984 236.424 64.2936 236.02 64.812C235.617 65.3208 235.056 65.7144 234.336 65.9928C233.616 66.2712 232.8 66.4104 231.888 66.4104C230.976 66.4104 230.16 66.2712 229.44 65.9928C228.729 65.7144 228.168 65.3208 227.755 64.812C227.352 64.2936 227.15 63.6984 227.15 63.0264C227.15 62.3544 227.352 61.764 227.755 61.2552C228.168 60.7368 228.729 60.3384 229.44 60.06C230.16 59.7816 230.976 59.6424 231.888 59.6424ZM231.888 60.8808C231.264 60.8808 230.712 60.9672 230.232 61.14C229.752 61.3128 229.377 61.5624 229.108 61.8888C228.84 62.2152 228.705 62.5944 228.705 63.0264C228.705 63.468 228.835 63.852 229.094 64.1784C229.363 64.4952 229.737 64.74 230.217 64.9128C230.707 65.0856 231.264 65.172 231.888 65.172C232.512 65.172 233.064 65.0856 233.544 64.9128C234.033 64.74 234.408 64.4952 234.667 64.1784C234.936 63.852 235.07 63.468 235.07 63.0264C235.07 62.5944 234.936 62.2152 234.667 61.8888C234.398 61.5624 234.024 61.3128 233.544 61.14C233.064 60.9672 232.512 60.8808 231.888 60.8808Z" fill="#EEEEEE"/>
<defs>
<linearGradient id="paint0_linear_2008_1745" x1="148.565" y1="132.75" x2="154.192" y2="-25.5779" gradientUnits="userSpaceOnUse">
<stop stop-color="#002A62"/>
<stop offset="1" stop-color="#EDEDED"/>
</linearGradient>
</defs>
</svg>
