<svg width="137" height="23" viewBox="0 0 137 23" fill="none" xmlns="http://www.w3.org/2000/svg">
<g clip-path="url(#clip0_250_9256)">
<path d="M36.0576 5.28078V17.071H28.2949V5.28078H36.0576ZM33.6927 15.1504V7.20454H30.6598V15.1504H33.6927ZM44.0152 22.0296H41.6055V12.4806H40.0588V21.1534H37.6938V3.33797H40.0588V10.4711H41.6055V2.99512H44.0152V22.0264V22.0296Z" fill="#040000"/>
<path d="M63.625 17.5444V19.5316H46.3164V17.5444H63.625ZM61.6244 13.5286H48.5279V4.59863H61.4518V6.60811H51.0239V11.5413H61.6244V13.5286Z" fill="#040000"/>
<path d="M82.2246 19.6359H64.916V17.6709H72.2696V13.998H66.5075V12.0107H69.3262L68.7894 7.63303L71.3045 7.31241L71.6912 12.0107H75.5198L76.2069 7.35368L78.6357 7.76001L77.8399 12.0107H80.55V13.998H74.7879V17.6709H82.2278V19.6359H82.2246ZM80.5915 6.41401H66.4628V4.42676H80.5915V6.41401Z" fill="#040000"/>
<path d="M100.824 19.5503H83.5156V17.563H100.824V19.5503ZM100.46 11.7536L99.1912 13.6964C97.7722 13.3695 96.3756 12.7346 94.9982 11.7949C93.6208 10.8552 92.6749 9.79495 92.1603 8.61085C91.6874 9.82035 90.751 10.906 89.3544 11.8679C87.9578 12.8298 86.5421 13.4679 85.1071 13.779L83.9247 11.7505C85.0145 11.5949 86.0787 11.2362 87.1173 10.6838C88.156 10.1314 89.0412 9.37591 89.7731 8.4299C90.5049 7.48389 90.8692 6.47439 90.8692 5.40775V4.14746H93.493V5.40775C93.493 6.049 93.64 6.67756 93.934 7.29977C94.228 7.9188 94.6179 8.47117 95.1069 8.9537C95.5958 9.4394 96.1423 9.87749 96.7527 10.268C97.3631 10.6616 97.9831 10.979 98.6127 11.2298C99.2423 11.4806 99.8591 11.6552 100.46 11.7536Z" fill="#040000"/>
<path d="M105.34 15.7472C108.638 15.8043 111.109 15.6329 112.758 15.2329L113.036 17.1345C111.041 17.5916 108.261 17.8043 104.691 17.7757L102.863 17.7535V4.6427H111.658V6.62995H105.337V9.85528H110.843V11.8425H105.337V15.7504L105.34 15.7472ZM117.941 22.0296H115.445V11.9251H112.24V9.78861H115.445V2.99512H117.941V22.0264V22.0296Z" fill="#040000"/>
<path d="M124.348 15.344C127.803 15.344 130.404 15.1504 132.152 14.7663C132.181 14.9504 132.29 15.6361 132.475 16.817C130.711 17.2456 127.809 17.4583 123.767 17.4583C123.552 17.4583 123.233 17.4551 122.811 17.4488C122.389 17.4424 122.07 17.4392 121.855 17.4392V4.74746H130.564V6.73471H124.348V15.344ZM136.412 22.0296H133.875V2.99512H136.412V22.0264V22.0296Z" fill="#040000"/>
<path d="M6.97329 0H16.2699C20.1177 0 23.2432 3.09281 23.2432 6.90032V23H6.97329C3.12552 23 0 19.9072 0 16.0997V6.90032C0 3.09281 3.12552 0 6.97329 0Z" fill="#333333"/>
<path d="M8.32944 7.06204C8.32944 7.06204 6.28412 4.89581 6.07319 4.4088C5.86227 3.9218 3.75622 5.41444 4.97063 7.15375C5.89103 7.92221 6.81143 8.12776 7.39307 8.13092C8.38377 8.13725 8.32625 7.06204 8.32625 7.06204H8.32944Z" fill="white"/>
<path d="M5.40698 4.52855C4.81575 4.9618 4.167 6.00539 4.97235 7.15333C5.89275 7.92179 6.81314 8.12734 7.39478 8.1305C7.68241 8.1305 7.88375 8.04196 8.02117 7.9123C7.29891 7.64034 6.61181 7.27034 5.98862 6.76119C5.27276 6.29316 5.03307 5.27804 5.40698 4.52539V4.52855Z" fill="#D7D7D6"/>
<path d="M7.04376 8.34912C6.50047 8.28271 5.67594 8.05502 4.81627 7.33399C4.80029 7.32134 4.78431 7.30553 4.77472 7.28656C4.07164 6.28092 4.404 5.41759 4.66287 4.99067C4.99843 4.44041 5.58646 4.0293 5.96996 4.07358C6.12016 4.09255 6.2416 4.17794 6.29913 4.30759C6.43974 4.63332 7.73086 6.06588 8.51064 6.89126C8.54899 6.93237 8.57136 6.98613 8.57456 7.04305C8.57456 7.06835 8.60332 7.65972 8.22941 8.04553C8.02168 8.26057 7.74364 8.36809 7.3953 8.36493C7.28344 8.36493 7.1652 8.35544 7.04376 8.34279V8.34912ZM5.08152 6.96083C5.8645 7.60912 6.60593 7.81467 7.09169 7.8716C7.19396 7.88425 7.29942 7.89057 7.3953 7.89057C7.60942 7.89057 7.7724 7.83365 7.88745 7.71664C8.06003 7.53955 8.09838 7.26758 8.10477 7.1316C7.70849 6.711 6.12655 5.00964 5.82615 4.4499C5.67275 4.47204 5.27646 4.70605 5.00162 5.15827C4.75235 5.56622 4.56699 6.20819 5.08152 6.96083Z" fill="#272C2F"/>
<path d="M16.4938 8.03586C16.4938 8.03586 19.0025 6.41356 19.3253 5.9898C19.6481 5.56604 21.3355 7.51091 19.7344 8.915C18.6574 9.44628 17.7114 9.42731 17.1458 9.29449C16.1806 9.06996 16.4938 8.03586 16.4938 8.03586Z" fill="#272C2F"/>
<path d="M17.434 9.59203C17.3158 9.57622 17.1975 9.55725 17.0888 9.53195C16.7533 9.45289 16.5072 9.28212 16.357 9.02597C16.0854 8.5611 16.2547 7.99187 16.2611 7.96973C16.2771 7.91597 16.3123 7.86853 16.3602 7.83691C17.3157 7.21708 18.9137 6.13239 19.131 5.84777C19.2173 5.73393 19.3547 5.677 19.5049 5.69598C19.8884 5.74341 20.3582 6.27786 20.5531 6.89452C20.7033 7.36888 20.8152 8.28597 19.8916 9.0987C19.8756 9.11451 19.8564 9.124 19.8373 9.13349C18.8306 9.63314 17.9709 9.65844 17.4308 9.59519L17.434 9.59203ZM16.7117 8.18477C16.6862 8.31443 16.6606 8.58007 16.782 8.78562C16.8619 8.92477 17.0026 9.01332 17.2039 9.06075C17.2966 9.08289 17.3956 9.0987 17.4947 9.11135C17.9677 9.16827 18.7123 9.14297 19.6008 8.71289C20.2591 8.11836 20.2335 7.47324 20.0961 7.03367C19.9427 6.54666 19.6231 6.23675 19.4857 6.17982C19.0735 6.63521 17.1847 7.87802 16.7149 8.18477H16.7117Z" fill="#272C2F"/>
<path d="M18.7498 13.886C18.2768 17.7536 14.8093 19.8566 10.9008 19.3885C6.99554 18.9205 4.12889 16.0617 4.60187 12.1941C5.07166 8.32651 8.68294 5.08191 12.5914 5.54994C16.4999 6.01797 19.226 10.0184 18.753 13.886H18.7498Z" fill="white"/>
<path d="M6.83575 15.8468C5.00454 12.6275 5.82587 9.10457 7.74976 6.90039C6.06875 8.13688 4.86073 10.0723 4.60187 12.1942C4.12889 16.0618 6.99554 18.9206 10.9008 19.3886C12.1248 19.5341 13.3041 19.4297 14.3619 19.0977C10.5078 19.0914 8.20676 18.1616 6.83575 15.8468Z" fill="#D7D7D6"/>
<path d="M10.8727 19.6292C6.63183 19.1232 3.89621 15.9829 4.3596 12.1659C4.86134 8.04853 8.7219 4.84503 12.6208 5.31307C16.5165 5.77794 19.495 9.79732 18.9933 13.9147C18.5267 17.7317 15.1136 20.1351 10.8727 19.6292ZM12.5633 5.79059C8.83376 5.34469 5.14577 8.34263 4.67279 12.2039C4.24135 15.7426 6.87152 18.6646 10.9302 19.1516C14.9889 19.6355 18.2487 17.4187 18.6801 13.88C19.1531 10.0187 16.2928 6.23648 12.5601 5.79059H12.5633Z" fill="#272C2F"/>
<path d="M11.2238 12.9623C11.1631 12.567 10.8499 12.1717 10.2906 11.7827C9.09541 10.951 7.06606 9.86318 7.04688 9.85053C6.97657 9.81258 6.89029 9.83155 6.84235 9.8948C6.82317 9.9201 4.8929 12.4563 6.69854 14.6826C7.14276 15.2297 7.6477 15.5428 8.19418 15.6061C9.49488 15.761 10.7253 14.4803 11.1216 13.4873C11.1631 13.424 11.2622 13.2374 11.2206 12.9591L11.2238 12.9623Z" fill="#272C2F"/>
<path d="M7.97649 11.5077C8.26092 11.6816 8.63483 11.9156 9.03431 12.1812C9.8844 12.7473 10.025 12.9813 10.025 12.9813C10.025 12.9813 9.26761 15.0147 8.06917 13.949C7.40444 13.3608 7.2862 12.5671 7.31176 11.982C7.33094 11.5235 7.65052 11.3116 7.97649 11.5077Z" fill="white"/>
<path d="M10.0508 5.75879C10.0508 5.75879 13.4767 4.93025 12.4508 3.19727C12.4508 3.19727 15.1929 5.37615 12.6362 6.12247" fill="white"/>
<path d="M12.6041 3.01064C12.5114 2.9379 12.3804 2.94107 12.2941 3.01696C12.2046 3.09286 12.1823 3.21936 12.243 3.32055C12.4156 3.61149 12.4475 3.87713 12.3389 4.13328C12.0161 4.88909 10.5908 5.38243 10.0475 5.51524C9.91644 5.54687 9.78541 5.68918 9.81737 5.81883C9.84932 5.94849 10.4214 5.90738 10.5524 5.87576C12.815 5.3255 12.8023 3.85816 12.815 3.73166C13.1027 3.85183 13.2912 4.15542 13.3935 4.47166C13.4894 4.37995 13.5789 4.27875 13.6556 4.16491C13.2848 3.56722 12.7032 3.09286 12.6009 3.0138L12.6041 3.01064Z" fill="#272C2F"/>
<path d="M10.4756 15.138C10.5044 14.9008 10.6962 14.7521 11.3992 14.8344C12.0863 14.9166 12.2429 15.1127 12.2142 15.3467C12.1854 15.5838 11.5143 15.8716 11.2714 15.8432C11.0285 15.8147 10.4469 15.3783 10.4756 15.1411V15.138Z" fill="#272C2F"/>
<path d="M9.55828 13.0042C9.53911 13.2256 9.42086 13.3995 9.29303 13.39C9.16519 13.3805 9.07571 13.1908 9.09169 12.9663C9.11086 12.7449 9.22911 12.571 9.35694 12.5804C9.48478 12.5899 9.57426 12.7797 9.55828 13.001V13.0042Z" fill="#272C2F"/>
<path d="M16.9476 11.0616C16.9156 10.9889 16.8325 10.9509 16.7558 10.9731C16.7335 10.9794 14.3941 11.6435 13.0551 12.1463C11.879 12.5891 11.9972 13.3101 12.0324 13.4492C12.1506 14.3347 12.7323 16.0329 14.1129 16.1973C14.621 16.2574 15.1771 16.0961 15.7683 15.7167C18.2675 14.107 16.9636 11.0901 16.9476 11.0585V11.0616Z" fill="#272C2F"/>
<path d="M12.8341 5.05598C12.8341 5.05598 13.697 4.94845 13.745 3.6582C13.745 3.6582 14.7101 5.65683 12.6328 6.11854" fill="white"/>
<path d="M12.4803 6.18538C12.4675 6.05256 12.525 5.94188 12.6592 5.93872C13.1993 5.92607 13.6595 5.66043 13.8225 5.32521C13.9535 5.05009 13.9631 4.61684 13.8545 4.35436C13.602 4.78445 12.7615 5.21453 12.6496 5.23034C12.5857 5.23983 12.5282 5.19556 12.5218 5.13231C12.5122 5.06906 12.557 5.01214 12.6209 5.00265C12.6369 5.00265 13.471 4.70539 13.5125 3.65548C13.5157 3.54479 13.5956 3.45309 13.7075 3.42779C13.8161 3.40565 13.928 3.45941 13.9759 3.56061C13.9951 3.60172 14.4649 4.59154 14.059 5.42009C13.8289 5.89444 13.4678 6.11897 12.7934 6.2676C12.7647 6.27393 12.5026 6.33401 12.4866 6.18538H12.4803Z" fill="#272C2F"/>
<path d="M15.5295 12.3898C15.2035 12.491 14.7561 12.6396 14.2767 12.8136C13.3148 13.1614 13.123 13.3543 13.123 13.3543C13.123 13.3543 13.3723 15.5079 14.7881 14.7553C15.635 14.3094 15.9226 13.484 16.0185 12.8989C16.0824 12.51 15.8555 12.2823 15.5295 12.3866V12.3898Z" fill="white"/>
<path d="M13.5755 13.4937C13.5403 13.7056 13.6106 13.8922 13.7321 13.9112C13.8535 13.9301 13.9813 13.7752 14.0165 13.5665C14.0516 13.3546 13.9813 13.168 13.8599 13.149C13.7385 13.1301 13.6138 13.285 13.5755 13.4937Z" fill="#272C2F"/>
<path d="M9.57561 16.1729C9.57561 16.1729 8.62006 17.8521 11.0073 18.1367C13.3946 18.4213 12.944 16.5745 12.944 16.5745C12.944 16.5745 12.1131 17.0425 11.2406 16.4448C10.1285 16.8306 9.57561 16.1729 9.57561 16.1729Z" fill="#272C2F"/>
<path d="M9.79003 16.3809C9.79003 16.3809 8.96231 17.5478 11.0364 17.7976C13.1073 18.0443 12.6503 16.6876 12.6503 16.6876C12.6503 16.6876 12.0015 16.9722 11.2441 16.4441C10.279 16.7888 9.79323 16.3809 9.79323 16.3809H9.79003Z" fill="white"/>
<path d="M10.0682 16.542C10.0682 16.542 10.1097 17.2314 9.88281 17.4085L10.0298 17.5603C10.0298 17.5603 10.1992 16.5799 10.3047 16.5705L10.0682 16.542Z" fill="#272C2F"/>
<path d="M12.3752 16.8178C12.3752 16.8178 12.1706 17.4787 12.3432 17.7032L12.1642 17.8139C12.1642 17.8139 12.2377 16.8241 12.1387 16.7861L12.3752 16.8146V16.8178Z" fill="#272C2F"/>
<path d="M11.1218 16.4319C11.1218 16.4319 11.1793 16.5584 11.1601 16.7134C11.141 16.8683 11.0898 17.8076 10.9492 17.855L11.0547 17.9151L11.1953 17.8676C11.1953 17.8676 11.1122 16.862 11.3902 16.5363L11.272 16.375L11.1218 16.4319Z" fill="#272C2F"/>
<path d="M9.67157 16.0558C9.93682 16.3278 10.429 16.5713 11.2727 16.2297C11.2727 16.2297 11.9822 17.0108 12.9153 16.4353C13.0496 16.3531 13.187 16.4163 12.9601 16.6219C12.583 16.9634 11.9502 17.2733 11.2439 16.4922C11.2439 16.4922 10.087 17.1721 9.56291 16.2171C9.4926 16.0874 9.47343 15.8534 9.67157 16.0558Z" fill="#272C2F"/>
</g>
<defs>
<clipPath id="clip0_250_9256">
<rect width="136.414" height="23" fill="white"/>
</clipPath>
</defs>
</svg>
