<svg width="20" height="21" viewBox="0 0 20 21" fill="none" xmlns="http://www.w3.org/2000/svg">
<g clip-path="url(#clip0_250_9300)">
<path d="M4.91781 5.15004C4.91781 5.15004 2.41537 2.42834 2.15731 1.81734C1.89924 1.20634 -0.677493 3.07901 0.808332 5.26113C1.93443 6.22524 3.06053 6.48313 3.77216 6.48709C4.98429 6.49503 4.9139 5.14608 4.9139 5.14608L4.91781 5.15004Z" fill="white"/>
<path d="M1.34416 1.97174C0.620793 2.51529 -0.172951 3.82457 0.812386 5.26477C1.93849 6.22887 3.06459 6.48676 3.77622 6.49073C4.12812 6.49073 4.37446 6.37964 4.54259 6.21697C3.65892 5.87577 2.81825 5.41157 2.05579 4.7728C1.17993 4.18561 0.886677 2.91204 1.34416 1.96777V1.97174Z" fill="#D7D7D6"/>
<path d="M3.34618 6.76465C2.68146 6.68133 1.67267 6.39567 0.620859 5.49108C0.601308 5.47521 0.581758 5.45537 0.570028 5.43157C-0.290187 4.1699 0.11646 3.08677 0.433175 2.55116C0.843733 1.86081 1.56318 1.34504 2.03239 1.40058C2.21617 1.42439 2.36475 1.53151 2.43513 1.69418C2.60717 2.10283 4.18684 3.90011 5.1409 4.93563C5.18782 4.98721 5.21519 5.05465 5.2191 5.12607C5.2191 5.15781 5.25429 5.89973 4.79681 6.38377C4.54266 6.65356 4.20248 6.78845 3.77628 6.78448C3.63943 6.78448 3.49476 6.77258 3.34618 6.75671V6.76465ZM0.945394 5.02291C1.90336 5.83625 2.8105 6.09414 3.40483 6.16555C3.52995 6.18142 3.65898 6.18936 3.77628 6.18936C4.03826 6.18936 4.23767 6.11794 4.37843 5.97115C4.58958 5.74897 4.6365 5.40776 4.64432 5.23716C4.15947 4.70948 2.22399 2.57496 1.85644 1.87271C1.66876 1.90049 1.18391 2.19408 0.847643 2.76144C0.542657 3.27324 0.315873 4.07865 0.945394 5.02291Z" fill="#272C2F"/>
<path d="M14.909 6.37163C14.909 6.37163 17.9784 4.33631 18.3733 3.80466C18.7682 3.27301 20.8327 5.71303 18.8738 7.4746C17.5561 8.14114 16.3987 8.11734 15.7066 7.9507C14.5258 7.66901 14.909 6.37163 14.909 6.37163Z" fill="#272C2F"/>
<path d="M16.0587 8.32412C15.914 8.30428 15.7694 8.28047 15.6364 8.24873C15.2259 8.14955 14.9248 7.9353 14.741 7.61393C14.4086 7.03071 14.6159 6.31656 14.6237 6.28879C14.6433 6.22134 14.6863 6.16183 14.7449 6.12215C15.914 5.34452 17.8691 3.98367 18.1349 3.62659C18.2405 3.48376 18.4086 3.41235 18.5924 3.43615C19.0616 3.49566 19.6364 4.16617 19.8749 4.93984C20.0587 5.53496 20.1955 6.68554 19.0655 7.70519C19.046 7.72502 19.0225 7.73693 18.9991 7.74883C17.7674 8.37569 16.7156 8.40743 16.0548 8.32808L16.0587 8.32412ZM15.1711 6.55858C15.1398 6.72125 15.1085 7.05452 15.2571 7.3124C15.3549 7.48697 15.5269 7.59806 15.7733 7.65758C15.8867 7.68535 16.0079 7.70519 16.1291 7.72106C16.7078 7.79247 17.6188 7.76073 18.7058 7.22115C19.5113 6.47526 19.48 5.66589 19.3119 5.11441C19.1242 4.50341 18.7332 4.11459 18.565 4.04318C18.0607 4.6145 15.7498 6.17373 15.175 6.55858H15.1711Z" fill="#272C2F"/>
<path d="M17.6693 13.7115C17.0906 18.5637 12.8482 21.2021 8.06618 20.6149C3.28417 20.0277 -0.219251 16.4411 0.359439 11.5888C0.934219 6.73659 5.3526 2.6699 10.1307 3.25312C14.9127 3.84031 18.248 8.85921 17.6693 13.7115Z" fill="white"/>
<path d="M3.09252 16.1713C0.85205 12.1324 1.85694 7.71262 4.2108 4.94727C2.1541 6.49856 0.676097 8.92667 0.359382 11.5889C-0.219308 16.4411 3.28802 20.0277 8.06613 20.6149C9.56368 20.7974 11.0065 20.6665 12.3007 20.2499C7.58519 20.242 4.76994 19.0755 3.09252 16.1713Z" fill="#D7D7D6"/>
<path d="M8.03187 20.9164C2.84321 20.2776 -0.507719 16.3419 0.063151 11.5531C0.677032 6.3874 5.40039 2.36832 10.1707 2.95551C14.9371 3.53873 18.5812 8.58143 17.9674 13.7471C17.3965 18.5359 13.2205 21.5512 8.03187 20.9164ZM10.0964 3.5546C5.53334 2.99518 1.02112 6.75241 0.446338 11.6007C-0.0815215 16.0403 3.13646 19.7063 8.10225 20.3173C13.068 20.9243 17.0563 18.1431 17.5842 13.7035C18.1629 8.85915 14.6633 4.11402 10.0964 3.5546Z" fill="#272C2F"/>
<path d="M8.46215 12.5495C8.38786 12.0536 8.00467 11.5577 7.32041 11.0697C5.85804 10.0262 3.37515 8.66139 3.35169 8.64552C3.26567 8.59791 3.1601 8.62172 3.10145 8.70107C3.07799 8.73281 0.716304 11.9147 2.92549 14.7079C3.46899 15.3942 4.08678 15.787 4.7554 15.8664C6.3468 16.0608 7.85218 14.4539 8.33703 13.2082C8.38786 13.1288 8.50907 12.8947 8.45824 12.5456L8.46215 12.5495Z" fill="#272C2F"/>
<path d="M4.48905 10.7245C4.83704 10.9427 5.29452 11.2363 5.78328 11.5696C6.82336 12.2798 6.9954 12.5734 6.9954 12.5734C6.9954 12.5734 6.06871 15.1245 4.60244 13.7874C3.78914 13.0495 3.64447 12.0536 3.67575 11.3196C3.69921 10.7443 4.09022 10.4785 4.48905 10.7245Z" fill="white"/>
<path d="M7.02539 3.51446C7.02539 3.51446 11.217 2.47497 9.96185 0.300781C9.96185 0.300781 13.3167 3.03439 10.1886 3.97072" fill="white"/>
<path d="M10.146 0.0670075C10.0326 -0.0242451 9.8723 -0.0202776 9.76673 0.0749425C9.65724 0.170163 9.62987 0.328863 9.70416 0.455823C9.91531 0.820833 9.95441 1.1541 9.82147 1.47547C9.42655 2.42371 7.68266 3.04264 7.01795 3.20927C6.85763 3.24895 6.69732 3.42748 6.73642 3.59015C6.77552 3.75282 7.47543 3.70124 7.63574 3.66157C10.4041 2.97122 10.3884 1.1303 10.4041 0.971599C10.756 1.12236 10.9867 1.50324 11.1118 1.89999C11.2291 1.78494 11.3386 1.65798 11.4324 1.51515C10.9788 0.765288 10.2672 0.170163 10.1421 0.070975L10.146 0.0670075Z" fill="#272C2F"/>
<path d="M7.54618 15.2826C7.58137 14.985 7.81598 14.7985 8.67619 14.9017C9.51686 15.0049 9.70845 15.2508 9.67326 15.5444C9.63807 15.842 8.81695 16.203 8.51979 16.1673C8.22262 16.1316 7.51099 15.5841 7.54618 15.2866V15.2826Z" fill="#272C2F"/>
<path d="M6.42469 12.6044C6.40123 12.8821 6.25656 13.1003 6.10016 13.0884C5.94375 13.0765 5.83427 12.8385 5.85382 12.5568C5.87728 12.279 6.02195 12.0608 6.17836 12.0727C6.33476 12.0846 6.44424 12.3227 6.42469 12.6004V12.6044Z" fill="#272C2F"/>
<path d="M15.4648 10.1688C15.4257 10.0775 15.324 10.0299 15.2302 10.0577C15.2028 10.0656 12.3406 10.8988 10.7023 11.5296C9.26341 12.0851 9.40808 12.9897 9.45109 13.1642C9.59576 14.2751 10.3074 16.4057 11.9965 16.612C12.6182 16.6874 13.2986 16.485 14.022 16.0089C17.0796 13.9895 15.4843 10.2045 15.4648 10.1648V10.1688Z" fill="#272C2F"/>
<path d="M10.4319 2.6345C10.4319 2.6345 11.4876 2.4996 11.5463 0.880859C11.5463 0.880859 12.7271 3.38832 10.1855 3.96758" fill="white"/>
<path d="M9.99822 4.04691C9.98258 3.88027 10.053 3.74141 10.2172 3.73744C10.878 3.72157 11.441 3.3883 11.6404 2.96775C11.8008 2.62258 11.8125 2.07903 11.6796 1.74972C11.3707 2.2893 10.3423 2.82889 10.2055 2.84872C10.1273 2.86063 10.0569 2.80508 10.0491 2.72573C10.0373 2.64638 10.0921 2.57497 10.1703 2.56306C10.1898 2.56306 11.2103 2.19012 11.2612 0.872906C11.2651 0.734043 11.3628 0.618986 11.4997 0.587245C11.6326 0.559473 11.7695 0.626921 11.8281 0.753881C11.8516 0.805458 12.4264 2.04729 11.9298 3.08677C11.6483 3.6819 11.2064 3.96359 10.3814 4.15006C10.3462 4.158 10.0256 4.23338 10.006 4.04691H9.99822Z" fill="#272C2F"/>
<path d="M13.7275 11.8355C13.3287 11.9625 12.7812 12.149 12.1947 12.3672C11.0178 12.8036 10.7832 13.0456 10.7832 13.0456C10.7832 13.0456 11.0882 15.7475 12.8203 14.8032C13.8565 14.2438 14.2084 13.2083 14.3257 12.4743C14.4039 11.9863 14.1263 11.7006 13.7275 11.8316V11.8355Z" fill="white"/>
<path d="M11.3392 13.2196C11.2962 13.4854 11.3822 13.7195 11.5308 13.7433C11.6794 13.7671 11.8358 13.5727 11.8788 13.3108C11.9218 13.045 11.8358 12.8109 11.6872 12.7871C11.5386 12.7633 11.3861 12.9577 11.3392 13.2196Z" fill="#272C2F"/>
<path d="M6.444 16.5762C6.444 16.5762 5.27489 18.6829 8.19571 19.04C11.1165 19.3971 10.5652 17.08 10.5652 17.08C10.5652 17.08 9.54859 17.6672 8.48114 16.9174C7.12044 17.4014 6.444 16.5762 6.444 16.5762Z" fill="#272C2F"/>
<path d="M6.70539 16.8418C6.70539 16.8418 5.69268 18.3058 8.23031 18.6192C10.764 18.9287 10.2049 17.2266 10.2049 17.2266C10.2049 17.2266 9.41115 17.5837 8.48447 16.9211C7.30363 17.3536 6.7093 16.8418 6.7093 16.8418H6.70539Z" fill="white"/>
<path d="M7.04514 17.0439C7.04514 17.0439 7.09597 17.9089 6.81836 18.131L6.99822 18.3215C6.99822 18.3215 7.20546 17.0916 7.33449 17.0797L7.04514 17.0439Z" fill="#272C2F"/>
<path d="M9.86942 17.3893C9.86942 17.3893 9.61918 18.2185 9.83032 18.5002L9.61136 18.639C9.61136 18.639 9.70129 17.3972 9.58008 17.3496L9.86942 17.3853V17.3893Z" fill="#272C2F"/>
<path d="M8.33614 16.9015C8.33614 16.9015 8.40652 17.0602 8.38306 17.2546C8.3596 17.449 8.29704 18.6274 8.125 18.6869L8.25403 18.7623L8.42607 18.7027C8.42607 18.7027 8.32441 17.4411 8.66459 17.0324L8.51992 16.8301L8.33614 16.9015Z" fill="#272C2F"/>
<path d="M6.56038 16.4295C6.88491 16.7707 7.48706 17.0762 8.51932 16.6477C8.51932 16.6477 9.38735 17.6277 10.5291 16.9056C10.6933 16.8024 10.8614 16.8818 10.5838 17.1397C10.1224 17.5682 9.34825 17.957 8.48413 16.977C8.48413 16.977 7.06868 17.83 6.42743 16.6318C6.34141 16.4692 6.31795 16.1756 6.56038 16.4295Z" fill="#272C2F"/>
</g>
<defs>
<clipPath id="clip0_250_9300">
<rect width="20" height="21" fill="white"/>
</clipPath>
</defs>
</svg>
